<?xml version="1.0" encoding="utf-8"?>
<!-- Generator: Adobe Illustrator 16.0.0, SVG Export Plug-In . SVG Version: 6.00 Build 0)  -->
<!DOCTYPE svg PUBLIC "-//W3C//DTD SVG 1.1//EN" "http://www.w3.org/Graphics/SVG/1.1/DTD/svg11.dtd">
<svg version="1.1" id="Layer_1" xmlns="http://www.w3.org/2000/svg" xmlns:xlink="http://www.w3.org/1999/xlink" x="0px" y="0px"
	 width="612px" height="792px" viewBox="0 0 612 792" enable-background="new 0 0 612 792" xml:space="preserve">
<title>love fruit copy 2</title>
<g>
	<path d="M266.349,467.317c0.781,0,1.553-0.175,2.258-0.512c11.639-5.504,24.346-8.38,37.221-8.425H306
		c12.936,0.018,25.707,2.895,37.4,8.425c2.623,1.267,5.776,0.167,7.044-2.456c1.267-2.624,0.167-5.777-2.457-7.044
		c-0.021-0.011-0.042-0.021-0.062-0.03c-13.108-6.199-27.426-9.424-41.926-9.443h-0.189c-14.432,0.049-28.676,3.273-41.723,9.443
		c-2.631,1.252-3.75,4.399-2.498,7.031c0.875,1.84,2.731,3.011,4.769,3.01L266.349,467.317z"/>
	<path d="M564.433,461.251c-22.458-34.825-34.734-75.726-35.642-118.588l28.044,16.894c2.827,1.705,6.5,0.795,8.204-2.032
		c1.183-1.961,1.141-4.424-0.106-6.344c-5.823-8.968-11.125-18.265-15.878-27.844c-11.061-22.306-18.506-48.279-22.127-77.199
		C512.997,134.675,418.178,51.071,305.849,51.21c-0.976,0-1.972,0.007-2.948,0.019c-53.849,0.767-105.552,21.228-145.343,57.518
		c-39.504,35.932-65.136,84.596-72.42,137.498c-4.07,29.705-11.517,55.104-22.766,77.655c-4.681,9.379-9.888,18.485-15.598,27.276
		c-1.798,2.768-1.013,6.469,1.755,8.268c1.919,1.247,4.381,1.288,6.341,0.107l28.055-16.898
		c-0.911,42.865-13.189,83.765-35.648,118.588l-0.504,0.779c-1.792,2.772-0.996,6.472,1.776,8.264
		c1.915,1.237,4.367,1.277,6.321,0.104l25.414-15.307c-4.057,32.466-12.763,64.179-25.85,94.166
		c-1.32,3.025,0.062,6.548,3.087,7.868c1.806,0.789,3.885,0.636,5.556-0.408l27.134-16.942c9.136-5.69,17.607-12.385,25.257-19.957
		c1.222,7.358,2.656,14.668,4.303,21.931c0.732,3.219,3.935,5.234,7.153,4.502c1.138-0.259,2.175-0.845,2.984-1.687l38.935-40.521
		c30.573,51.665,78.595,90.711,135.412,110.098c1.26,0.433,2.627,0.433,3.887,0c56.816-19.388,104.839-58.433,135.411-110.098
		l38.936,40.521c2.286,2.38,6.069,2.456,8.45,0.169c0.842-0.809,1.428-1.846,1.687-2.983c1.609-7.067,3.01-14.192,4.203-21.372
		c7.496,7.347,15.77,13.854,24.675,19.41l27.134,16.942c2.8,1.747,6.486,0.894,8.234-1.906c1.043-1.671,1.195-3.749,0.407-5.554
		c-13.083-29.986-21.786-61.698-25.843-94.162l25.403,15.3c2.829,1.7,6.501,0.786,8.201-2.043c1.176-1.955,1.136-4.408-0.104-6.324
		L564.433,461.251z M483.285,528.134l-36.65-38.147c-2.288-2.38-6.071-2.454-8.451-0.167c-0.435,0.418-0.803,0.898-1.094,1.427
		c-28.471,51.836-75.085,91.33-130.894,110.899c-55.809-19.569-102.423-59.063-130.894-110.899
		c-1.591-2.892-5.226-3.946-8.118-2.355c-0.528,0.291-1.01,0.66-1.428,1.096l-36.652,38.147c-1.282-6.556-2.383-13.146-3.304-19.771
		c12.614-15.556,21.781-33.612,26.895-52.976c47.031,84.591,153.73,115.039,238.321,68.009
		c28.564-15.882,52.119-39.435,68.003-67.998c5.19,19.655,14.558,37.961,27.462,53.67
		C485.579,515.449,484.514,521.804,483.285,528.134z M161.308,347.142c2.913,0,5.275-2.362,5.275-5.275
		c0.006-15.41,7.179-29.94,19.408-39.316c1.03,0.561,2.065,1.111,3.101,1.661c-10.59,9.635-16.559,23.336-16.403,37.652
		c0,26.564,19.475,48.177,43.413,48.177s43.413-21.612,43.413-48.177c0.001-3.1-0.27-6.193-0.809-9.246
		c2.215,0.654,4.436,1.289,6.661,1.903c0.366,2.43,0.551,4.885,0.554,7.343c0.044,2.914,2.441,5.24,5.355,5.196
		c2.852-0.043,5.153-2.344,5.196-5.196c0-1.522-0.078-3.023-0.191-4.516c11.128,2.709,22.382,4.919,33.761,6.629
		c3.265,0.488,6.307-1.763,6.794-5.027c0.264-1.762-0.272-3.549-1.462-4.875l-35.583-39.672
		c17.571,8.082,35.779,14.701,54.439,19.79c2.371,0.647,4.751,1.259,7.134,1.856c-3.848,8.063-5.839,16.885-5.83,25.819
		c0.005,2.913,2.37,5.271,5.283,5.267c2.907-0.005,5.262-2.36,5.267-5.267c-0.009-8.142,1.997-16.159,5.838-23.337
		c1.73,0.376,3.464,0.741,5.198,1.094c-3.265,6.96-4.947,14.556-4.928,22.244c0,26.564,19.474,48.177,43.412,48.177
		s43.413-21.613,43.413-48.177c0.021-8.29-1.943-16.465-5.73-23.839c-0.052-0.107-0.109-0.211-0.166-0.317
		c-1.816-3.473-4.048-6.712-6.647-9.645l-6.693-9.635c15.808,8.741,25.625,25.373,25.641,43.437
		c-0.006,2.905,2.344,5.264,5.248,5.27c1.322,0.003,2.598-0.493,3.57-1.388v72.754c0.002,5.888,0.361,11.771,1.076,17.615
		c-36.429,82.544-132.875,119.928-215.419,83.499c-37.273-16.449-67.054-46.232-83.502-83.506
		c0.714-5.843,1.073-11.723,1.076-17.608v-73.034C158.459,346.536,159.851,347.142,161.308,347.142z M157.474,328.871v-43.447
		c6.105,4.047,12.329,7.912,18.671,11.595C166.739,305.419,160.208,316.561,157.474,328.871z M200.877,310.201
		c3.906,1.899,7.835,3.747,11.798,5.506c10.663,4.734,21.531,8.957,32.604,12.67c1.516,4.335,2.287,8.896,2.283,13.488
		c0,19.974-14.113,36.224-31.459,36.224c-17.347,0-31.459-16.25-31.459-36.224C184.644,328.253,191.208,316.392,200.877,310.201z
		 M364.145,341.867c-0.034-7.008,1.775-13.901,5.246-19.989c18.08,2.996,36.368,4.562,54.694,4.682
		c1.975,4.861,2.986,10.06,2.979,15.307c0,19.974-14.113,36.224-31.459,36.224C378.258,378.091,364.145,361.84,364.145,341.867
		L364.145,341.867z M450.872,317.659l3.373,2.223v7.667C453.412,324.16,452.283,320.851,450.872,317.659z M527.288,438.646
		c-2.827-1.704-6.5-0.793-8.203,2.034c-0.656,1.089-0.948,2.358-0.833,3.624c2.844,31.647,9.94,62.767,21.098,92.518l-11.518-7.191
		c-38.448-23.829-61.78-65.899-61.634-111.133V316.656c0-2.01-1.01-3.885-2.688-4.99l-64.615-42.575
		c-2.756-1.816-6.462-1.055-8.278,1.701c-1.345,2.039-1.312,4.691,0.08,6.697l25.671,36.968
		c-26.702-0.816-53.216-4.778-78.99-11.802c-28.29-7.716-55.463-19.059-80.843-33.748c-2.856-1.653-6.513-0.679-8.167,2.178
		c-1.296,2.24-1.004,5.06,0.724,6.986l45.894,51.167c-26.649-5.245-52.629-13.451-77.457-24.464
		c-21.979-9.767-42.94-21.682-62.576-35.573c-2.694-1.906-6.424-1.268-8.331,1.427c-0.714,1.01-1.098,2.216-1.098,3.453v144.422
		c0.145,45.234-23.189,87.305-61.639,111.133l-11.518,7.191c11.158-29.756,18.255-60.879,21.1-92.53
		c0.298-3.287-2.125-6.194-5.413-6.492c-1.266-0.114-2.535,0.178-3.624,0.833l-15.814,9.525
		c17.453-34.264,26.475-72.199,26.315-110.651v-5.461c0.001-3.301-2.674-5.977-5.975-5.978c-1.087,0-2.154,0.296-3.085,0.857
		l-16.875,10.16c1.401-2.603,2.759-5.222,4.073-7.857c11.839-23.735,19.662-50.35,23.906-81.367
		C111.22,143.915,199.814,64.516,303.047,63.18c0.932-0.013,1.86-0.019,2.791-0.019c106.303-0.133,196.039,78.979,209.229,184.461
		c3.789,30.256,11.621,57.516,23.278,81.026c1.406,2.833,2.861,5.648,4.367,8.446l-16.867-10.16c-2.827-1.704-6.5-0.793-8.204,2.034
		c-0.562,0.932-0.858,1.999-0.857,3.086v5.484c-0.159,38.444,8.859,76.37,26.306,110.628L527.288,438.646z"/>
</g>
</svg>
