<?xml version="1.0" encoding="utf-8"?>
<!-- Generator: Adobe Illustrator 16.0.0, SVG Export Plug-In . SVG Version: 6.00 Build 0)  -->
<!DOCTYPE svg PUBLIC "-//W3C//DTD SVG 1.1//EN" "http://www.w3.org/Graphics/SVG/1.1/DTD/svg11.dtd">
<svg version="1.1" id="Layer_1" xmlns="http://www.w3.org/2000/svg" xmlns:xlink="http://www.w3.org/1999/xlink" x="0px" y="0px"
	 width="612px" height="792px" viewBox="0 0 612 792" enable-background="new 0 0 612 792" xml:space="preserve">
<path d="M22.258,465.119c-2.68-18.293,2.895-37.705,14.976-52.014c9.499-12.258,21.671-22.313,38.305-31.622
	c1.004-0.557,1.353-1.842,0.802-2.833c-0.569-1.01-1.836-1.371-2.84-0.802c-17.136,9.59-29.706,19.982-39.504,32.638
	c-10.667,12.619-16.561,29.088-16.561,45.526c0,3.237,0.232,6.512,0.71,9.755c0.851,4.731,2.032,9.505,3.519,14.076
	c0.349,1.09,1.523,1.689,2.619,1.347c1.096-0.349,1.683-1.53,1.334-2.632C24.198,474.158,23.066,469.605,22.258,465.119z"/>
<path d="M184.457,386.826c0.875,0.288,1.738,0.257,2.601-0.128c0.845-0.374,1.451-1.077,1.806-2.112
	c0.312-0.893,0.245-1.781-0.171-2.65c-0.447-0.887-1.126-1.426-2.044-1.769c-0.918-0.324-1.799-0.245-2.65,0.166
	c-0.856,0.465-1.432,1.126-1.738,2.007c-0.355,1.065-0.306,1.964,0.147,2.797C182.872,385.969,183.551,386.526,184.457,386.826z"/>
<path d="M194.922,391.22c0.826,0.398,1.689,0.49,2.583,0.245c0.893-0.257,1.579-0.863,2.068-1.848
	c0.44-0.887,0.483-1.738,0.184-2.68c-0.312-0.894-0.912-1.567-1.787-2.008c-0.869-0.41-1.75-0.489-2.65-0.171
	c-0.881,0.342-1.536,0.912-1.958,1.75c-0.502,0.992-0.582,1.922-0.232,2.797C193.472,390.149,194.071,390.798,194.922,391.22z"/>
<path d="M204.598,396.894c0.777,0.515,1.609,0.679,2.528,0.581c0.918-0.129,1.695-0.654,2.301-1.573
	c0.539-0.777,0.71-1.658,0.514-2.607c-0.196-0.924-0.691-1.677-1.493-2.209c-0.802-0.563-1.671-0.734-2.62-0.539
	c-0.912,0.19-1.652,0.667-2.179,1.457c-0.618,0.906-0.82,1.83-0.581,2.711C203.294,395.639,203.808,396.361,204.598,396.894z"/>
<path d="M230.338,422.371c0.9,0.238,1.806,0.049,2.724-0.569c0.795-0.502,1.297-1.236,1.481-2.167
	c0.189-0.947,0.012-1.842-0.521-2.674c-0.532-0.814-1.267-1.304-2.197-1.475c-0.937-0.202-1.793-0.025-2.583,0.489
	c-0.937,0.624-1.463,1.39-1.598,2.308c-0.141,0.893,0.055,1.769,0.575,2.57C228.735,421.637,229.439,422.139,230.338,422.371z"/>
<path d="M233.594,428.154c-0.263,0.888-0.189,1.775,0.214,2.644c0.392,0.857,1.028,1.42,1.897,1.77
	c0.851,0.379,1.781,0.3,2.779-0.142c0.851-0.409,1.444-1.102,1.75-1.995c0.306-0.894,0.257-1.793-0.159-2.68
	c-0.416-0.894-1.077-1.481-1.977-1.781c-0.894-0.318-1.769-0.251-2.62,0.128C234.476,426.575,233.839,427.268,233.594,428.154z"/>
<path d="M238.099,438.656c-0.367,0.857-0.41,1.744-0.123,2.65c0.282,0.894,0.833,1.579,1.646,2.007
	c0.795,0.478,1.726,0.551,2.772,0.202c0.906-0.312,1.566-0.888,2.007-1.731c0.428-0.863,0.496-1.757,0.196-2.681
	c-0.306-0.906-0.881-1.598-1.726-2.02c-0.851-0.429-1.72-0.496-2.619-0.19C239.2,437.212,238.478,437.8,238.099,438.656z"/>
<path d="M178.288,410.131c0.863,0.343,1.726,0.324,2.583-0.012c0.869-0.373,1.493-1.028,1.873-2.075
	c0.336-0.894,0.3-1.786-0.104-2.655c-0.41-0.882-1.077-1.476-1.983-1.849c-0.906-0.325-1.799-0.288-2.662,0.122
	c-0.851,0.429-1.444,1.071-1.775,1.946c-0.398,1.046-0.379,1.983,0.061,2.797C176.721,409.226,177.388,409.788,178.288,410.131z"/>
<path d="M212.517,439.69c0.869,0.324,1.793,0.196,2.748-0.336c0.845-0.472,1.39-1.157,1.641-2.087
	c0.269-0.925,0.159-1.824-0.3-2.681c-0.483-0.851-1.175-1.401-2.081-1.652c-0.912-0.264-1.793-0.166-2.607,0.3
	c-0.979,0.514-1.573,1.236-1.781,2.166c-0.196,0.894-0.08,1.769,0.386,2.638C210.957,438.834,211.636,439.391,212.517,439.69z"/>
<path d="M214.996,445.352c-0.374,0.863-0.404,1.708-0.092,2.656c0.288,0.863,0.838,1.53,1.646,1.971
	c0.82,0.453,1.738,0.502,2.778,0.135c0.906-0.294,1.567-0.888,1.989-1.726c0.422-0.894,0.471-1.757,0.171-2.681
	c-0.312-0.912-0.894-1.61-1.744-2.014c-0.869-0.404-1.732-0.465-2.625-0.153C216.066,443.896,215.351,444.482,214.996,445.352z"/>
<path d="M174.897,422.249c0.869,0.349,1.738,0.36,2.601,0.024c0.863-0.331,1.511-0.998,1.909-2.014
	c0.361-0.894,0.343-1.781-0.049-2.65c-0.379-0.893-1.022-1.512-1.934-1.854c-0.894-0.38-1.787-0.38-2.656,0.012
	c-0.875,0.392-1.494,1.028-1.836,1.891c-0.404,1.047-0.41,1.971,0.013,2.797C173.349,421.3,174.01,421.888,174.897,422.249z"/>
<path d="M207.866,447.684c-0.851-0.416-1.726-0.465-2.619-0.172c-1.053,0.355-1.763,0.961-2.124,1.824
	c-0.373,0.851-0.397,1.731-0.098,2.644c0.294,0.894,0.851,1.542,1.665,1.995c0.814,0.459,1.732,0.514,2.772,0.159
	c0.912-0.33,1.573-0.899,1.995-1.774c0.416-0.863,0.471-1.77,0.165-2.681C209.304,448.761,208.716,448.105,207.866,447.684z"/>
<path d="M181.477,398.35c0.863,0.318,1.726,0.295,2.588-0.086c0.863-0.379,1.469-1.052,1.836-2.08
	c0.325-0.906,0.276-1.787-0.153-2.681c-0.422-0.869-1.089-1.45-2.007-1.793c-0.899-0.306-1.787-0.275-2.662,0.141
	c-0.845,0.447-1.432,1.114-1.744,1.977c-0.374,1.053-0.331,1.983,0.116,2.797C179.897,397.463,180.571,398.038,181.477,398.35z"/>
<path d="M191.581,402.83c0.826,0.435,1.683,0.557,2.583,0.33c0.906-0.227,1.604-0.82,2.124-1.787
	c0.465-0.851,0.545-1.701,0.251-2.637c-0.288-0.919-0.844-1.629-1.708-2.082c-0.863-0.434-1.744-0.538-2.65-0.25
	c-0.912,0.288-1.585,0.844-2.026,1.659c-0.526,0.991-0.636,1.909-0.318,2.791C190.167,401.729,190.736,402.377,191.581,402.83z"/>
<path d="M224.157,435.841c0.869,0.325,1.787,0.245,2.76-0.263c0.863-0.429,1.426-1.107,1.72-2.038
	c0.275-0.899,0.208-1.799-0.245-2.662c-0.44-0.863-1.114-1.438-2.025-1.732c-0.9-0.281-1.787-0.208-2.613,0.221
	c-0.992,0.515-1.61,1.212-1.848,2.105c-0.227,0.899-0.123,1.774,0.312,2.638C222.64,434.93,223.288,435.511,224.157,435.841z"/>
<path d="M228.172,446.435c0.814,0.447,1.732,0.502,2.772,0.172c0.912-0.343,1.579-0.894,1.995-1.757
	c0.428-0.887,0.483-1.769,0.196-2.681c-0.312-0.911-0.906-1.591-1.756-2.007c-0.845-0.423-1.726-0.472-2.625-0.172
	c-1.059,0.373-1.769,0.949-2.124,1.806c-0.379,0.863-0.422,1.731-0.116,2.65C226.813,445.309,227.358,445.982,228.172,446.435z"/>
<path d="M73.936,435.548c-0.906-0.307-1.793-0.245-2.656,0.184c-0.851,0.428-1.438,1.113-1.756,2.031
	c-0.306,0.906-0.251,1.806,0.171,2.656c0.429,0.851,1.096,1.414,1.989,1.731c1.041,0.361,1.971,0.294,2.785-0.152
	c0.808-0.453,1.358-1.145,1.677-2.044c0.3-0.869,0.27-1.732-0.104-2.595C75.674,436.502,74.97,435.902,73.936,435.548z"/>
<path d="M80.778,426.9c-0.245-0.906-0.869-1.604-1.836-2.094c-0.863-0.416-1.744-0.483-2.656-0.165
	c-0.899,0.312-1.579,0.894-2.013,1.769s-0.508,1.744-0.19,2.681c0.306,0.894,0.888,1.555,1.732,1.94
	c0.998,0.514,1.922,0.575,2.791,0.238c0.856-0.349,1.505-0.955,1.934-1.812C80.956,428.645,81.035,427.781,80.778,426.9z"/>
<path d="M81.316,420.756c0.924,0.624,1.83,0.813,2.736,0.587c0.894-0.227,1.609-0.74,2.154-1.542
	c0.514-0.753,0.716-1.592,0.575-2.51c-0.135-0.905-0.661-1.676-1.561-2.307c-0.784-0.539-1.659-0.704-2.595-0.502
	c-0.948,0.165-1.689,0.674-2.228,1.493c-0.551,0.802-0.722,1.659-0.539,2.595C80.043,419.494,80.533,420.235,81.316,420.756z"/>
<path d="M90.827,412.09c0.924-0.123,1.701-0.539,2.344-1.236c0.624-0.686,0.912-1.512,0.912-2.442
	c-0.018-0.894-0.44-1.726-1.254-2.454c-0.71-0.637-1.548-0.899-2.515-0.869c-0.961,0.086-1.756,0.465-2.417,1.182
	c-0.637,0.722-0.918,1.566-0.857,2.521c0.061,0.936,0.447,1.738,1.157,2.344C89.021,411.888,89.909,412.193,90.827,412.09z"/>
<path d="M98.679,403.9c0.93,0,1.757-0.299,2.479-0.905c0.709-0.636,1.102-1.401,1.224-2.319c0.104-0.9-0.202-1.806-0.912-2.65
	c-0.63-0.716-1.42-1.096-2.387-1.15c-0.955-0.061-1.812,0.238-2.546,0.888c-0.735,0.648-1.126,1.407-1.188,2.38
	c-0.061,0.938,0.239,1.775,0.833,2.498C96.917,403.473,97.743,403.883,98.679,403.9z"/>
<path d="M107.583,396.777c0.93,0.129,1.781-0.067,2.583-0.612c0.771-0.501,1.273-1.218,1.512-2.105
	c0.232-0.894,0.043-1.806-0.551-2.711c-0.526-0.814-1.261-1.315-2.203-1.481c-0.93-0.184-1.806-0.024-2.638,0.514
	c-0.814,0.539-1.304,1.267-1.487,2.197c-0.196,0.906-0.024,1.781,0.496,2.595C105.9,396.085,106.666,396.624,107.583,396.777z"/>
<path d="M117.461,390.822c0.888,0.239,1.769,0.166,2.632-0.232c0.838-0.404,1.438-1.028,1.781-1.909
	c0.355-0.863,0.3-1.781-0.171-2.76c-0.416-0.881-1.077-1.438-1.989-1.756c-0.912-0.312-1.793-0.263-2.681,0.128
	c-0.875,0.422-1.469,1.102-1.781,1.983c-0.3,0.894-0.251,1.775,0.141,2.638C115.876,389.923,116.562,390.56,117.461,390.822z"/>
<path d="M127.957,386.312c0.845,0.379,1.732,0.398,2.644,0.128c0.894-0.288,1.561-0.838,2.014-1.652
	c0.471-0.802,0.532-1.695,0.184-2.766c-0.288-0.9-0.863-1.591-1.738-1.989c-0.838-0.465-1.744-0.526-2.662-0.226
	c-0.924,0.33-1.604,0.894-2.032,1.732c-0.422,0.838-0.49,1.713-0.196,2.619C126.513,385.229,127.1,385.926,127.957,386.312z"/>
<path d="M97.357,441.643c-0.899-0.354-1.787-0.306-2.656,0.116c-0.875,0.41-1.475,1.065-1.817,1.971
	c-0.336,0.912-0.312,1.806,0.098,2.669c0.398,0.881,1.047,1.438,1.928,1.78c1.04,0.386,1.97,0.38,2.796-0.073
	c0.82-0.44,1.402-1.107,1.738-1.982c0.324-0.888,0.306-1.72-0.031-2.595C99.077,442.652,98.379,442.028,97.357,441.643z"/>
<path d="M102.877,431.526c-0.832-0.489-1.707-0.618-2.638-0.367c-0.912,0.264-1.628,0.802-2.129,1.628
	c-0.496,0.845-0.612,1.714-0.379,2.638c0.251,0.918,0.783,1.641,1.597,2.13c0.949,0.563,1.867,0.68,2.76,0.392
	c0.881-0.275,1.566-0.838,2.062-1.658c0.471-0.796,0.618-1.658,0.416-2.564C104.383,432.818,103.813,432.077,102.877,431.526z"/>
<path d="M107.51,421.808c-0.949,0.074-1.757,0.484-2.387,1.219c-0.643,0.734-0.912,1.597-0.826,2.527
	c0.074,0.948,0.478,1.738,1.2,2.344c0.838,0.729,1.713,1.04,2.625,0.899c0.93-0.128,1.701-0.551,2.319-1.267
	c0.618-0.704,0.894-1.518,0.881-2.454c-0.031-0.912-0.465-1.738-1.285-2.441C109.309,421.998,108.465,421.729,107.51,421.808z"/>
<path d="M116.421,413.76c-0.967-0.085-1.824,0.178-2.577,0.79c-0.759,0.618-1.181,1.401-1.261,2.338
	c-0.092,0.948,0.165,1.787,0.747,2.521c0.71,0.856,1.53,1.321,2.448,1.347c0.93,0.061,1.774-0.232,2.509-0.839
	c0.728-0.587,1.15-1.328,1.297-2.259c0.128-0.905-0.135-1.799-0.826-2.644C118.146,414.262,117.375,413.852,116.421,413.76z"/>
<path d="M126.543,407.487c-0.918-0.27-1.806-0.141-2.663,0.324c-0.851,0.453-1.407,1.151-1.658,2.057
	c-0.263,0.918-0.159,1.806,0.293,2.619c0.539,0.979,1.249,1.585,2.167,1.769c0.894,0.215,1.769,0.098,2.613-0.373
	c0.814-0.453,1.377-1.126,1.671-2.002c0.3-0.869,0.202-1.793-0.336-2.741C128.165,408.289,127.479,407.732,126.543,407.487z"/>
<path d="M137.694,403.105c-0.875-0.447-1.763-0.502-2.693-0.189c-0.924,0.306-1.585,0.893-2.001,1.744
	c-0.417,0.85-0.471,1.738-0.171,2.613c0.355,1.064,0.967,1.774,1.824,2.142c0.851,0.38,1.72,0.397,2.638,0.116
	c0.881-0.307,1.542-0.857,1.995-1.658c0.465-0.839,0.502-1.727,0.159-2.76C139.132,404.195,138.551,403.521,137.694,403.105z"/>
<path d="M85.49,438.491c-0.894-0.324-1.781-0.275-2.65,0.129c-0.851,0.446-1.457,1.119-1.775,2.044
	c-0.331,0.894-0.269,1.78,0.141,2.649c0.41,0.875,1.065,1.426,1.958,1.757c1.041,0.379,1.977,0.354,2.791-0.122
	c0.814-0.453,1.389-1.114,1.701-2.021c0.312-0.887,0.282-1.75-0.08-2.613C87.229,439.477,86.537,438.864,85.49,438.491z"/>
<path d="M90.68,428.105c-0.838-0.453-1.714-0.532-2.632-0.245c-0.924,0.275-1.616,0.857-2.075,1.714
	c-0.459,0.851-0.544,1.732-0.269,2.638c0.288,0.924,0.851,1.579,1.677,2.025c0.973,0.545,1.903,0.637,2.772,0.325
	c0.875-0.325,1.536-0.894,1.995-1.744c0.435-0.82,0.544-1.659,0.312-2.577C92.234,429.348,91.647,428.626,90.68,428.105z"/>
<path d="M91.8,421.985c0.141,0.918,0.6,1.684,1.34,2.271c0.894,0.643,1.787,0.894,2.699,0.716c0.918-0.165,1.658-0.636,2.234-1.401
	c0.569-0.746,0.795-1.566,0.722-2.49c-0.092-0.955-0.575-1.744-1.438-2.405c-0.771-0.575-1.634-0.802-2.589-0.643
	c-0.948,0.141-1.701,0.624-2.295,1.401C91.892,420.186,91.659,421.056,91.8,421.985z"/>
<path d="M99.542,412.536c0.018,0.925,0.349,1.751,1.003,2.424c0.777,0.813,1.64,1.199,2.558,1.15
	c0.937-0.03,1.738-0.397,2.424-1.077c0.655-0.637,1.016-1.42,1.064-2.355c0.049-0.925-0.306-1.794-1.064-2.571
	c-0.68-0.691-1.494-1.046-2.448-1.016c-0.967,0-1.799,0.324-2.491,1.016C99.891,410.768,99.554,411.582,99.542,412.536z"/>
<path d="M115.368,405.762c0.202-0.895-0.024-1.806-0.667-2.681c-0.557-0.777-1.328-1.23-2.271-1.396
	c-0.949-0.146-1.818,0.073-2.607,0.637c-0.79,0.562-1.249,1.315-1.401,2.246c-0.135,0.941,0.073,1.805,0.63,2.57
	c0.649,0.893,1.438,1.401,2.356,1.493c0.93,0.085,1.774-0.135,2.552-0.692C114.707,407.377,115.178,406.667,115.368,405.762z"/>
<path d="M123.404,402.188c0.82-0.435,1.401-1.071,1.738-1.953c0.318-0.868,0.233-1.793-0.257-2.747
	c-0.441-0.863-1.12-1.42-2.038-1.695c-0.918-0.282-1.805-0.202-2.681,0.232c-0.856,0.44-1.432,1.132-1.713,2.026
	c-0.294,0.893-0.208,1.774,0.22,2.588c0.496,1.004,1.206,1.622,2.111,1.861C121.672,402.707,122.547,402.609,123.404,402.188z"/>
<path d="M135.711,396.239c0.453-0.814,0.52-1.744,0.178-2.791c-0.306-0.893-0.888-1.566-1.745-1.977
	c-0.875-0.453-1.769-0.502-2.68-0.202c-0.918,0.312-1.585,0.894-2.02,1.726c-0.41,0.869-0.472,1.732-0.178,2.65
	c0.355,1.078,0.955,1.756,1.818,2.148c0.844,0.379,1.726,0.379,2.625,0.129C134.591,397.592,135.264,397.034,135.711,396.239z"/>
<path d="M242.009,492.953c-1.053-0.349-1.977-0.306-2.791,0.153c-0.82,0.452-1.365,1.138-1.683,2.044
	c-0.3,0.875-0.27,1.731,0.104,2.582c0.373,0.875,1.077,1.476,2.105,1.83c0.906,0.312,1.799,0.239,2.656-0.178
	c0.863-0.44,1.444-1.119,1.756-2.044c0.312-0.894,0.263-1.793-0.165-2.644C243.564,493.834,242.896,493.266,242.009,492.953z"/>
<path d="M237.866,504.067c-0.985-0.502-1.928-0.576-2.791-0.233c-0.856,0.35-1.5,0.937-1.928,1.812
	c-0.416,0.814-0.502,1.671-0.251,2.583c0.251,0.888,0.875,1.579,1.848,2.062c0.851,0.435,1.738,0.483,2.65,0.178
	c0.906-0.318,1.573-0.9,2.008-1.787c0.434-0.851,0.508-1.732,0.189-2.645C239.286,505.138,238.705,504.477,237.866,504.067z"/>
<path d="M232.376,514.349c-0.93-0.624-1.836-0.814-2.742-0.581c-0.894,0.208-1.616,0.734-2.154,1.523
	c-0.521,0.765-0.722,1.604-0.582,2.521s0.655,1.683,1.561,2.308c0.784,0.557,1.665,0.703,2.595,0.526
	c0.942-0.196,1.689-0.698,2.24-1.506c0.539-0.802,0.722-1.658,0.532-2.619C233.643,515.615,233.147,514.875,232.376,514.349z"/>
<path d="M222.866,523.021c-0.936,0.104-1.713,0.521-2.344,1.242c-0.618,0.674-0.912,1.506-0.912,2.43
	c0.013,0.894,0.441,1.744,1.249,2.448c0.729,0.643,1.555,0.912,2.528,0.875c0.955-0.049,1.756-0.446,2.399-1.169
	c0.649-0.746,0.949-1.585,0.863-2.527c-0.067-0.937-0.447-1.738-1.157-2.356C224.653,523.223,223.784,522.904,222.866,523.021z"/>
<path d="M215.014,531.203c-0.931-0.019-1.757,0.312-2.473,0.912c-0.716,0.6-1.126,1.413-1.242,2.313
	c-0.098,0.93,0.196,1.799,0.918,2.631c0.63,0.71,1.414,1.114,2.375,1.176c0.961,0.061,1.817-0.233,2.546-0.869
	c0.747-0.637,1.15-1.42,1.199-2.399c0.062-0.937-0.22-1.781-0.844-2.497C216.776,531.644,215.944,531.228,215.014,531.203z"/>
<path d="M206.103,538.326c-0.918-0.128-1.787,0.086-2.595,0.601c-0.765,0.514-1.267,1.229-1.512,2.13
	c-0.226,0.894-0.037,1.799,0.557,2.723c0.532,0.79,1.267,1.279,2.203,1.451c0.949,0.184,1.812,0.03,2.644-0.515
	c0.808-0.538,1.303-1.267,1.493-2.19c0.189-0.931,0.006-1.781-0.502-2.57C207.78,539.024,207.015,538.479,206.103,538.326z"/>
<path d="M196.213,544.281c-0.888-0.251-1.769-0.171-2.625,0.227c-0.838,0.38-1.444,1.028-1.775,1.892
	c-0.361,0.875-0.306,1.812,0.171,2.79c0.416,0.857,1.077,1.438,1.983,1.763c0.899,0.306,1.787,0.251,2.681-0.171
	c0.881-0.423,1.481-1.077,1.775-1.978c0.3-0.894,0.257-1.744-0.147-2.619C197.798,545.169,197.113,544.532,196.213,544.281z"/>
<path d="M185.736,548.792c-0.857-0.38-1.744-0.386-2.662-0.129c-0.875,0.288-1.548,0.839-2.007,1.646
	c-0.459,0.82-0.526,1.72-0.184,2.778c0.293,0.906,0.869,1.579,1.738,1.989c0.851,0.446,1.75,0.532,2.668,0.227
	c0.924-0.318,1.61-0.894,2.02-1.732c0.429-0.856,0.496-1.72,0.202-2.613C187.174,549.894,186.574,549.195,185.736,548.792z"/>
<path d="M220.804,491.374c0.336-0.905,0.306-1.812-0.098-2.681s-1.059-1.444-1.94-1.781c-1.041-0.379-1.977-0.379-2.791,0.062
	c-0.82,0.453-1.401,1.12-1.744,2.008c-0.312,0.869-0.312,1.731,0.043,2.595c0.336,0.869,1.022,1.493,2.05,1.873
	c0.899,0.342,1.787,0.306,2.662-0.104C219.843,492.935,220.455,492.268,220.804,491.374z"/>
<path d="M210.797,503.571c0.82,0.489,1.701,0.612,2.631,0.361c0.924-0.257,1.634-0.783,2.136-1.641
	c0.496-0.832,0.618-1.714,0.373-2.625c-0.251-0.925-0.771-1.641-1.585-2.094c-0.961-0.593-1.873-0.703-2.76-0.428
	c-0.881,0.3-1.573,0.838-2.062,1.658c-0.471,0.808-0.618,1.658-0.428,2.564C209.298,502.273,209.861,503.015,210.797,503.571z"/>
<path d="M206.165,513.29c0.961-0.092,1.756-0.496,2.38-1.23c0.649-0.729,0.937-1.572,0.839-2.527
	c-0.08-0.931-0.478-1.72-1.182-2.344c-0.844-0.71-1.726-1.022-2.644-0.894c-0.93,0.128-1.701,0.551-2.319,1.278
	c-0.618,0.686-0.894,1.506-0.875,2.43c0.024,0.931,0.453,1.763,1.279,2.467C204.359,513.106,205.209,513.382,206.165,513.29z"/>
<path d="M197.272,521.338c0.949,0.079,1.799-0.184,2.564-0.79c0.759-0.63,1.175-1.401,1.273-2.355
	c0.085-0.931-0.171-1.781-0.765-2.497c-0.698-0.888-1.524-1.347-2.43-1.377c-0.942-0.05-1.781,0.238-2.515,0.851
	c-0.722,0.587-1.15,1.34-1.292,2.246c-0.134,0.93,0.147,1.799,0.838,2.668C195.546,520.823,196.323,521.239,197.272,521.338z"/>
<path d="M187.119,527.617c0.93,0.25,1.812,0.152,2.674-0.312s1.414-1.157,1.659-2.068c0.263-0.912,0.171-1.8-0.3-2.62
	c-0.526-0.973-1.248-1.578-2.154-1.793c-0.894-0.177-1.775-0.085-2.62,0.38c-0.808,0.428-1.377,1.126-1.659,1.971
	c-0.312,0.894-0.196,1.805,0.343,2.748C185.503,526.821,186.195,527.354,187.119,527.617z"/>
<path d="M176.005,532.017c0.875,0.404,1.75,0.447,2.681,0.147c0.918-0.288,1.585-0.882,2.001-1.726
	c0.404-0.845,0.471-1.732,0.165-2.62c-0.355-1.064-0.961-1.769-1.817-2.142c-0.838-0.38-1.738-0.38-2.644-0.104
	c-0.875,0.318-1.542,0.857-1.989,1.659c-0.447,0.832-0.502,1.731-0.153,2.772C174.548,530.909,175.13,531.589,176.005,532.017z"/>
<path d="M226.097,494.783c0.361,0.856,1.059,1.45,2.093,1.83c0.894,0.349,1.781,0.287,2.644-0.129
	c0.869-0.44,1.463-1.126,1.787-2.032c0.318-0.894,0.27-1.799-0.135-2.631c-0.422-0.876-1.083-1.438-1.958-1.763
	c-1.053-0.38-1.983-0.343-2.791,0.092c-0.814,0.459-1.389,1.15-1.713,2.056C225.724,493.045,225.742,493.914,226.097,494.783z"/>
<path d="M227.976,502.892c-0.288-0.924-0.845-1.597-1.677-2.031c-0.985-0.539-1.903-0.637-2.772-0.312
	c-0.869,0.312-1.536,0.899-1.989,1.726c-0.441,0.82-0.551,1.684-0.337,2.583c0.232,0.905,0.826,1.622,1.799,2.136
	c0.833,0.453,1.714,0.532,2.644,0.251c0.912-0.294,1.597-0.856,2.05-1.714C228.16,504.673,228.251,503.804,227.976,502.892z"/>
<path d="M221.887,513.131c-0.147-0.931-0.606-1.677-1.346-2.271c-0.881-0.655-1.787-0.894-2.699-0.716
	c-0.918,0.177-1.652,0.636-2.228,1.401c-0.569,0.728-0.802,1.561-0.71,2.49c0.085,0.918,0.563,1.732,1.426,2.405
	c0.759,0.563,1.628,0.79,2.577,0.643c0.955-0.128,1.726-0.611,2.301-1.389C221.795,514.924,222.015,514.055,221.887,513.131z"/>
<path d="M214.108,522.586c0-0.955-0.331-1.769-0.992-2.424c-0.771-0.844-1.616-1.211-2.552-1.15
	c-0.931,0.049-1.738,0.386-2.412,1.077c-0.667,0.637-1.022,1.426-1.077,2.381c-0.055,0.894,0.3,1.781,1.071,2.564
	c0.667,0.673,1.481,1.021,2.436,1.021c0.967,0,1.799-0.349,2.491-1.027C213.771,524.343,214.102,523.528,214.108,522.586z"/>
<path d="M198.318,529.336c-0.208,0.895,0.019,1.806,0.661,2.681c0.563,0.79,1.322,1.255,2.271,1.401
	c0.949,0.129,1.812-0.092,2.613-0.636c0.783-0.582,1.249-1.328,1.389-2.259c0.135-0.924-0.067-1.793-0.612-2.558
	c-0.661-0.894-1.438-1.401-2.362-1.493c-0.924-0.116-1.781,0.128-2.558,0.691C198.979,527.702,198.508,528.431,198.318,529.336z"/>
<path d="M190.283,532.929c-0.838,0.41-1.402,1.065-1.738,1.928c-0.324,0.888-0.245,1.806,0.257,2.772
	c0.441,0.851,1.114,1.414,2.038,1.689c0.912,0.294,1.806,0.208,2.668-0.221c0.875-0.428,1.444-1.113,1.726-2.025
	c0.282-0.894,0.202-1.787-0.226-2.619c-0.508-0.985-1.2-1.622-2.105-1.843C192.003,532.384,191.127,532.494,190.283,532.929z"/>
<path d="M177.958,538.89c-0.459,0.802-0.514,1.708-0.171,2.754c0.3,0.894,0.887,1.573,1.744,1.995
	c0.881,0.398,1.769,0.465,2.681,0.147c0.918-0.275,1.597-0.857,2.02-1.695c0.404-0.863,0.465-1.732,0.171-2.632
	c-0.355-1.053-0.955-1.769-1.806-2.154s-1.738-0.392-2.644-0.086C179.077,537.494,178.404,538.052,177.958,538.89z"/>
<path d="M537.96,32.961l7.338-8.188c1.53-1.695,1.401-4.333-0.336-5.881c-1.695-1.53-4.34-1.389-5.876,0.331l-7.319,8.183
	c-0.716,0.79-1.089,1.787-1.089,2.778c0,1.145,0.459,2.283,1.401,3.103C533.793,34.816,536.431,34.681,537.96,32.961z"/>
<path d="M522.538,50.208l7.338-8.195c1.542-1.708,1.401-4.357-0.343-5.888c-1.708-1.536-4.352-1.401-5.869,0.325l-7.338,8.201
	c-0.71,0.79-1.065,1.787-1.065,2.778c0,1.145,0.466,2.289,1.396,3.103C518.37,52.068,521.008,51.921,522.538,50.208z"/>
<path d="M507.121,67.448l7.313-8.195c1.543-1.726,1.401-4.351-0.33-5.887c-1.701-1.53-4.363-1.389-5.888,0.331l-7.325,8.201
	c-0.704,0.795-1.065,1.787-1.065,2.778c0,1.145,0.466,2.283,1.401,3.103C502.941,69.308,505.579,69.167,507.121,67.448z"/>
<path d="M601.002,80.471l-8.2,7.326c-0.925,0.826-1.401,1.964-1.401,3.103c0,0.998,0.367,1.995,1.083,2.785
	c1.518,1.714,4.187,1.861,5.869,0.331l8.188-7.338c1.732-1.542,1.891-4.18,0.361-5.881C605.354,79.076,602.71,78.935,601.002,80.471
	z"/>
<path d="M583.75,95.888l-8.194,7.338c-0.906,0.82-1.39,1.958-1.39,3.103c0,0.991,0.355,1.983,1.065,2.778
	c1.529,1.72,4.161,1.867,5.887,0.325l8.188-7.338c1.714-1.53,1.861-4.174,0.331-5.881S585.464,94.357,583.75,95.888z"/>
<path d="M566.517,111.316l-8.214,7.332c-0.918,0.827-1.383,1.971-1.383,3.109c0,0.991,0.349,1.983,1.053,2.778
	c1.548,1.72,4.186,1.867,5.906,0.331l8.2-7.326c1.708-1.542,1.897-4.174,0.355-5.894
	C570.867,109.933,568.229,109.78,566.517,111.316z"/>
<path d="M220.308,306.232c0.888,0.306,1.75,0.269,2.607-0.11c0.844-0.349,1.462-1.071,1.812-2.099
	c0.306-0.906,0.245-1.781-0.178-2.644c-0.44-0.869-1.114-1.451-2.044-1.763c-0.918-0.312-1.793-0.257-2.644,0.171
	c-0.851,0.44-1.432,1.077-1.732,1.977c-0.361,1.046-0.312,1.989,0.141,2.791C218.729,305.363,219.414,305.926,220.308,306.232z"/>
<path d="M234.273,321.177c-0.924-0.312-1.793-0.251-2.65,0.171c-0.844,0.465-1.432,1.108-1.732,2.007
	c-0.367,1.053-0.318,1.983,0.135,2.797c0.465,0.808,1.15,1.371,2.05,1.677c0.881,0.306,1.75,0.263,2.601-0.128
	c0.844-0.367,1.457-1.077,1.805-2.118c0.312-0.893,0.245-1.774-0.171-2.662C235.871,322.077,235.191,321.52,234.273,321.177z"/>
<circle cx="275.737" cy="289.175" r="5.08"/>
<path d="M244.659,299.616c0,0,12.987-15.631,19.309-17.772c5.998-2.044,11.94-0.655,11.94-0.655s-12.632-12.675-30.857,5.324
	c-17.833,17.607-18.017,18.017-18.017,18.017l4.89,11.145L244.659,299.616z"/>
<circle cx="179.347" cy="336.966" r="5.08"/>
<path d="M210.032,339.641c17.84-17.607,18.011-18.011,18.011-18.011l-4.89-11.157l-12.729,16.059c0,0-12.986,15.655-19.309,17.785
	c-5.998,2.026-11.94,0.649-11.94,0.649S191.801,357.64,210.032,339.641z"/>
<path d="M324.121,400.951c-0.887-0.404-1.72-0.49-2.644-0.166c-1.016,0.355-1.726,0.955-2.093,1.807
	c-0.38,0.869-0.392,1.707-0.129,2.601c0.33,0.894,0.894,1.579,1.665,2.05c0.838,0.459,1.756,0.502,2.821,0.141
	c0.894-0.312,1.529-0.893,1.971-1.713c0.403-0.869,0.465-1.744,0.141-2.662C325.554,402.071,324.984,401.379,324.121,400.951z"/>
<path d="M299.354,395.48c0.808,0.434,1.732,0.496,2.803,0.134c0.894-0.3,1.549-0.894,1.978-1.732
	c0.422-0.863,0.477-1.732,0.165-2.674c-0.318-0.912-0.899-1.604-1.75-2.014c-0.876-0.428-1.751-0.489-2.65-0.165
	c-1.04,0.343-1.75,0.942-2.117,1.793c-0.368,0.863-0.404,1.72-0.116,2.601C297.989,394.329,298.54,395.002,299.354,395.48z"/>
<circle cx="336.343" cy="349.77" r="5.073"/>
<path d="M343.675,361.538c-2.154,6.322-17.778,19.291-17.778,19.291l-16.065,12.754l11.163,4.89c0,0,0.397-0.178,18.005-18.011
	c17.98-18.231,5.33-30.87,5.33-30.87S345.719,355.541,343.675,361.538z"/>
<circle cx="288.534" cy="446.16" r="5.08"/>
<path d="M285.865,415.474c-17.999,18.231-5.324,30.852-5.324,30.852s-1.383-5.931,0.655-11.929
	c2.148-6.315,17.791-19.296,17.791-19.296l16.065-12.741l-11.163-4.885C303.889,397.463,303.491,397.641,285.865,415.474z"/>
<path d="M606.296,46.542L579.02,19.271c-6.695-6.695-17.583-6.701-24.278-0.018l-5.869,5.863l-0.153,0.177l-0.158,0.141
	l-45.295,50.967l-0.562,0.63l-0.44,0.734c-1.72,3.036-3.269,6.145-4.792,9.149c-3.36,6.659-6.5,12.956-11.212,17.528
	c-12.302,11.775-23.685,23.066-34.651,34.039l-3.55-3.543c-0.129-1.713-0.777-3.396-2.087-4.706l-4.657-4.633
	c-2.834-2.821-7.412-2.821-10.245,0.006c-2.834,2.828-2.834,7.417-0.013,10.245l4.64,4.639c1.34,1.31,3.011,1.982,4.718,2.074
	l3.557,3.55c-2.137,2.118-4.211,4.229-6.292,6.328c-19.902,20.006-38.703,38.898-61.176,59.817
	c-14.522,13.586-28.739,27.852-42.479,41.653c-5.086,5.104-10.184,10.214-15.3,15.306c-12.877-10.838-26.31-21.799-42.749-28.396
	c-16.683-6.555-33.666-0.937-48.084,5.428l-0.239,0.104l-0.233,0.123c-18.653,9.657-30.44,25.771-41.848,41.365
	c-10.38,14.162-20.184,27.558-34.517,35.637c-12.295,6.457-26.028,12.124-39.291,17.644c-33.287,13.788-67.705,28.029-91.451,58.604
	C7.197,415.254,0,435.168,0,455.811c0,4.162,0.3,8.299,0.894,12.369c4.051,22.656,14.009,43.629,28.831,60.899
	c1.2,1.427,2.43,2.871,3.654,4.309l-7.289,4.211c8.458,10.062,17.216,19.755,26.182,28.893c-0.404,0.979-0.208,2.166,0.594,2.95
	l3.188,3.188c0.802,0.813,1.977,1.003,2.962,0.6c9.143,8.941,18.862,17.724,28.948,26.23l4.217-7.283
	c1.444,1.23,2.888,2.473,4.357,3.696c17.154,14.719,38.121,24.707,60.539,28.703c24.517,3.61,50.099-3.647,68.722-19.327
	c30.569-23.752,44.835-58.177,58.624-91.451c5.496-13.269,11.181-26.983,17.76-39.492c7.963-14.119,21.341-23.905,35.521-34.297
	c15.588-11.396,31.714-23.226,41.372-41.872l0.128-0.227l0.123-0.252c3.892-8.8,8.311-20.416,8.311-32.283
	c0-5.551-0.937-10.838-2.87-15.704c-6.604-16.481-17.577-29.933-28.434-42.81c5.036-5.08,10.11-10.141,15.189-15.196
	c13.825-13.782,28.14-28.036,41.727-42.595c20.955-22.497,39.872-41.316,59.872-61.23c15.324-15.233,31.139-30.986,47.98-48.544
	c4.554-4.688,10.839-7.852,17.484-11.193c2.993-1.512,6.108-3.072,9.138-4.823l0.765-0.441l0.637-0.581l56.837-51.133l0.3-0.294
	c3.231-3.237,5.03-7.558,5.03-12.136C611.333,54.106,609.54,49.786,606.296,46.542z M498.97,114.511l-35.68,35.691l-2.154-2.154
	l35.68-35.686L498.97,114.511z M523.462,79.143c0.38,0.367,0.991,0.349,1.371-0.037l0.759-0.79l0.496,0.441L515.744,89.7
	c-0.428-0.857-0.679-1.763-0.679-2.662c0-1.12,0.373-2.203,1.126-3.048l7.008-7.846l0.967,0.875l-0.704,0.747
	c-0.171,0.19-0.275,0.435-0.275,0.667C523.149,78.69,523.266,78.947,523.462,79.143z M563.971,43.629
	c-0.41-0.337-1.017-0.263-1.396,0.146l-0.82,1.077l-0.661-0.581l0.948-1.175c0.331-0.416,0.264-1.022-0.146-1.371
	c-0.392-0.331-1.04-0.263-1.377,0.153l-0.888,1.102l-3.837-3.439l7.075-7.925c1.817-2.05,5.232-1.977,7.662,0.165
	c1.401,1.261,2.154,2.956,2.154,4.56c0,1.126-0.361,2.197-1.127,3.048l-7.05,7.919l-1.304-1.156L564.104,45
	C564.46,44.59,564.393,43.972,563.971,43.629z M562.648,49.381l-13.556,15.19l-0.374-0.336l12.748-15.918L562.648,49.381z
	 M557.899,45.146l-0.906,1.145c-0.141,0.184-0.214,0.404-0.214,0.606c0,0.288,0.129,0.569,0.379,0.765
	c0.404,0.336,1.022,0.269,1.377-0.147l0.833-1.071l0.637,0.575l-12.761,15.912l-0.618-0.544l0.894-1.022
	c0.361-0.397,0.337-1.016-0.104-1.371c-0.416-0.349-1.022-0.306-1.401,0.104l-0.857,0.998l-0.569-0.496l0.992-1.132
	c0.354-0.41,0.3-1.01-0.11-1.377c-0.404-0.349-1.034-0.3-1.39,0.098l-0.93,1.12l-2.754-2.497l13.562-15.189L557.899,45.146z
	 M545.53,65.092L532.776,81.01l-1.267-1.126l13.329-15.404L545.53,65.092z M541.381,61.401l-0.93,1.077
	c-0.129,0.184-0.239,0.404-0.239,0.636c0,0.27,0.129,0.539,0.367,0.734c0.38,0.349,1.022,0.3,1.384-0.104l0.881-1.053l0.558,0.49
	L530.047,78.58l-0.63-0.551l0.832-0.857c0.38-0.392,0.349-1.003-0.062-1.371c-0.379-0.374-0.991-0.355-1.37,0.037l-0.869,0.894
	l-0.49-0.435l0.894-0.967c0.38-0.385,0.374-1.01-0.03-1.377s-0.997-0.342-1.383,0.043l-0.925,1.01l-1.046-0.924l13.562-15.196
	L541.381,61.401z M231.458,396.128c-0.526-0.526-1.034-1.126-1.573-1.658c-0.178-0.153-0.374-0.361-0.551-0.514l231.238-231.238
	l2.16,2.142L231.458,396.128z M464.104,166.255l2.153,2.154L234.831,399.825c-0.667-0.759-1.334-1.524-2.032-2.276L464.104,166.255z
	 M230.204,407.23c0.649,0.789,1.273,1.591,1.897,2.411l-10.447,10.423c-0.508-0.502-1.12-0.803-1.842-0.895
	c-0.606-0.115-1.175-0.023-1.708,0.147l6.243-6.249c0.704-0.066,1.371-0.367,2.025-0.899c0.68-0.612,1.065-1.358,1.151-2.259
	L230.204,407.23z M100.974,499.703c5.336,0.27,24.572,19.505,24.834,24.835c-7.179-0.459-15.881,3.054-22.938,10.11
	c-3.568,3.574-9.461,14.664-10.759,15.937c-4.743,4.755-12.442,4.755-17.191,0c-2.38-2.374-3.562-5.478-3.562-8.574
	c0-3.121,1.181-6.242,3.562-8.593c1.292-1.285,12.381-7.196,15.943-10.759c6.646-6.646,10.159-14.743,10.159-21.664
	C101.023,500.554,101.004,500.126,100.974,499.703z M124.848,484.336c0.483,0.912,1.022,1.817,1.591,2.699l-11.566,11.572
	c-0.808-0.636-1.622-1.278-2.424-1.872L124.848,484.336z M123.973,436.104c-3.121,3.121-6.426,5.832-9.418,7.711l-1.848-1.848
	c1.891-2.969,4.59-6.292,7.723-9.456c3.317-3.311,6.873-6.181,9.97-8.048l1.64,1.659
	C130.154,429.201,127.284,432.769,123.973,436.104z M118.655,501.882c-0.753-0.679-1.518-1.37-2.277-2.007l11.181-11.188
	c0.594,0.845,1.218,1.658,1.885,2.424L118.655,501.882z M130.76,492.531c0.178,0.189,0.331,0.379,0.521,0.575
	c0.539,0.544,1.114,1.027,1.677,1.523l-10.734,10.74c-0.704-0.728-1.414-1.438-2.148-2.153L130.76,492.531z M125.588,509.067
	c-0.661-0.777-1.34-1.53-2.032-2.283l10.894-10.863c0.814,0.637,1.634,1.23,2.491,1.806L125.588,509.067z M138.673,498.742
	c0.918,0.539,1.867,1.028,2.834,1.476l-12.772,12.772c-0.594-0.809-1.224-1.61-1.885-2.424L138.673,498.742z M125.001,447.273
	l10.655-10.655c9.076,4.749,19.854,13.091,30.013,23.25c9.517,9.529,17.54,19.762,22.424,28.568l-5.417,5.404
	c-0.012,0-0.03,0.03-0.037,0.049l-0.031,0.03l-5.814,5.814c-0.698-0.404-1.432-0.863-2.154-1.268
	c-8.286-4.951-17.644-12.393-26.408-21.162C138.08,467.133,129.756,456.35,125.001,447.273z M200.632,408.54
	c0.08,0.085,0.128,0.159,0.214,0.232c0.747,0.581,1.573,0.82,2.491,0.71c0.318-0.024,0.612-0.129,0.894-0.232l-5.82,5.826
	c-0.753,0.141-1.402,0.508-1.922,1.113c-0.465,0.533-0.734,1.09-0.845,1.659l-6.041,6.034c-0.006-0.098-0.006-0.165-0.024-0.251
	c-0.024-0.129-0.098-0.214-0.134-0.337c-0.055-0.177-0.055-0.373-0.141-0.557c-0.055-0.116-0.147-0.184-0.208-0.287
	c-0.043-0.08-0.092-0.129-0.135-0.19c-0.275-0.41-0.63-0.746-1.052-1.004L200.632,408.54z M179.518,441.013
	c-0.79-0.655-1.598-1.279-2.424-1.892l18.96-18.959c0.208,0.367,0.465,0.691,0.808,0.979c0.508,0.429,1.077,0.704,1.708,0.809
	L179.518,441.013z M193.006,434.587l-9.957,9.944c-0.49-0.557-0.979-1.138-1.524-1.658c-0.178-0.184-0.379-0.361-0.569-0.514
	l10.306-10.318c0.11,0.716,0.428,1.401,0.973,1.971C192.474,434.244,192.737,434.403,193.006,434.587z M208.49,414.812
	c0.171,0.521,0.459,0.979,0.869,1.408c0.361,0.367,0.765,0.611,1.218,0.801L197.75,429.85c-0.135-0.238-0.294-0.453-0.496-0.661
	c-0.594-0.63-1.292-0.961-2.093-1.046L208.49,414.812z M202.547,418.002c-0.122-0.863-0.508-1.58-1.181-2.167
	c-0.177-0.153-0.367-0.294-0.551-0.397l12.222-12.216c0.159,0.208,0.294,0.44,0.521,0.643c0.636,0.575,1.401,0.845,2.252,0.869
	L202.547,418.002z M183.135,426.056c0.074,0.116,0.208,0.195,0.288,0.306c0.153,0.184,0.306,0.38,0.496,0.532
	c0.116,0.104,0.171,0.232,0.3,0.318c0.459,0.324,0.955,0.502,1.481,0.575l-10.233,10.258c-0.893-0.588-1.793-1.127-2.723-1.604
	L183.135,426.056z M188.441,499.844l0.208-0.184c3.091-3.084,6.359-5.74,9.315-7.625l1.842,1.854
	c-1.891,2.986-4.59,6.285-7.717,9.449c-3.311,3.305-6.879,6.188-9.976,8.048l-1.64-1.646
	C182.345,506.662,185.179,503.137,188.441,499.844z M188.637,453.081c-0.453-0.961-0.937-1.909-1.469-2.84l11.505-11.512
	c-0.245,0.361-0.422,0.741-0.501,1.151c-0.166,0.905,0,1.769,0.496,2.619c0.067,0.116,0.177,0.171,0.257,0.287L188.637,453.081z
	 M186.134,448.534c-0.563-0.875-1.175-1.683-1.818-2.503l10.924-10.918c0.686-0.104,1.328-0.429,1.928-0.992
	c0.575-0.551,0.906-1.175,1.016-1.928l5.459-5.483c0.006,0.869,0.263,1.641,0.826,2.295c0.184,0.227,0.416,0.38,0.636,0.551
	L186.134,448.534z M207.113,430.303c0.783,0.012,1.536-0.251,2.258-0.863c0.747-0.605,1.163-1.389,1.249-2.338
	c0.006-0.116,0-0.208,0-0.324l5.263-5.263c-0.061,0.189-0.11,0.379-0.134,0.611c-0.086,0.894,0.146,1.769,0.704,2.546
	c0.092,0.123,0.214,0.166,0.312,0.3l-12.968,12.963c-0.379-0.318-0.808-0.539-1.328-0.643c-0.924-0.208-1.781-0.11-2.595,0.379
	c-0.153,0.116-0.281,0.184-0.416,0.3L207.113,430.303z M209.94,424.709c-0.037-0.049-0.067-0.129-0.11-0.159
	c-0.618-0.74-1.389-1.163-2.337-1.279c-0.147-0.006-0.288,0-0.429,0.013l6.469-6.475c0.257-0.154,0.508-0.367,0.759-0.588
	c0.226-0.227,0.397-0.465,0.551-0.729l5.704-5.716c0.08,0.753,0.361,1.444,0.894,2.056c0.227,0.258,0.496,0.429,0.759,0.625
	L209.94,424.709z M226.991,407.684c-0.104-0.16-0.196-0.307-0.312-0.436c-0.637-0.746-1.432-1.15-2.381-1.193l2.613-2.613
	c0.686,0.76,1.353,1.524,2.014,2.295L226.991,407.684z M215.081,412.512c-0.171-0.435-0.428-0.845-0.789-1.212
	c-0.417-0.429-0.894-0.704-1.414-0.875l10.576-10.581c0.177,0.171,0.367,0.367,0.544,0.52c0.539,0.533,1.046,1.127,1.573,1.658
	L215.081,412.512z M219.322,401.232c-0.006-0.116,0.006-0.165,0-0.238c-0.067-0.943-0.471-1.757-1.187-2.424
	c-0.092-0.092-0.19-0.129-0.288-0.184l1.94-1.946c0.759,0.68,1.505,1.371,2.24,2.069L219.322,401.232z M215.742,397.744
	c-0.043,0-0.085-0.024-0.128-0.012c-0.949,0.061-1.732,0.453-2.362,1.15c-0.637,0.729-0.937,1.486-0.93,2.276l-6.2,6.2
	c0.257-0.588,0.343-1.17,0.245-1.873c-0.098-0.711-0.385-1.322-0.844-1.836l10.435-10.435c0.795,0.643,1.579,1.285,2.356,1.958
	L215.742,397.744z M203.827,402.604c-0.447-0.135-0.912-0.159-1.414-0.104c-0.931,0.128-1.689,0.6-2.258,1.346
	c-0.661,0.9-0.912,1.793-0.722,2.693c0.018,0.115,0.092,0.184,0.122,0.324l-6.708,6.609c0.092-0.178,0.214-0.3,0.288-0.502
	c0.337-0.894,0.3-1.793-0.104-2.662c-0.41-0.881-1.077-1.475-1.983-1.848c-0.906-0.325-1.799-0.288-2.662,0.121
	c-0.851,0.43-1.444,1.078-1.775,1.947c-0.397,1.046-0.379,1.982,0.062,2.797c0.44,0.82,1.107,1.389,2.007,1.719
	c0.857,0.331,1.713,0.318,2.558-0.012l-5.881,5.795c-0.239,0.062-0.471,0.074-0.704,0.172c-0.851,0.429-1.444,1.071-1.775,1.946
	c-0.049,0.129-0.037,0.257-0.074,0.38l-11.952,11.78c-7.515-3.348-15.942-3.715-23.801-1.609c-2.509-1.634-4.945-2.968-7.301-4.247
	c0.447-0.789,0.863-1.518,1.206-2.246l1.206-2.595l-10.117-10.116l-2.644,1.211c-4.474,2.068-9.902,6.133-14.884,11.108
	c-4.743,4.749-8.562,9.811-10.741,14.18l-1.334,2.681l10.575,10.569l2.687-1.34c0.698-0.38,1.42-0.766,2.148-1.176
	c1.242,2.313,2.668,4.7,4.266,7.143c-0.802,2.986-1.261,6.096-1.261,9.296c0,5.062,1.089,9.964,3.097,14.456l-13.122,13.151
	c-3.611-2.454-6.964-4.088-9.437-4.211l-7.625-0.379l-16.334-16.328l1.774,27.326c0,0.575-0.734,3.562-3.837,6.707
	c-0.227,0.178-1.077,0.832-4.106,2.699c-6.812-13.293-10.465-28.066-10.465-43.44c0-25.532,9.945-49.522,28.005-67.57
	c18.048-18.06,42.044-28.005,67.583-28.005c21.254,0,41.432,6.91,58.011,19.608L203.827,402.604z M72.13,520.664
	c1.236-0.752,2.436-1.401,3.58-2.001c-0.012-0.012-0.024-0.03-0.043-0.043c2.595-1.622,4.511-2.9,5.472-3.739
	c4.816-4.828,6.708-10.116,6.475-13.311l-0.324-5.258l5.428,5.441c-0.238,4.804-3.103,10.562-7.65,15.104
	c-1.046,1.059-3.904,2.926-6.512,4.541l0.037,0.037c-1.139,0.673-2.216,1.334-3.06,1.848c-3.758,2.277-5.233,3.146-6.371,4.254
	c-3.868,3.868-6.071,9.015-6.071,14.474c0,5.483,2.111,10.618,5.979,14.486c7.993,8.005,20.973,8.005,28.966,0
	c1.132-1.145,1.965-2.485,4.241-6.249c1.744-2.864,4.97-8.182,6.5-9.706c4.541-4.547,10.294-7.417,15.092-7.656l5.441,5.435
	l-5.263-0.33c-3.183-0.227-8.476,1.658-13.311,6.48c-1.2,1.365-3.207,4.554-5.912,9.016c-2.258,3.696-3.292,5.409-4.829,6.945
	c-4.651,4.658-10.838,7.21-17.436,7.21c-6.597,0-12.785-2.552-17.442-7.21c-4.651-4.676-7.209-10.838-7.209-17.466
	c0-6.585,2.564-12.785,7.216-17.43C66.671,523.981,68.379,522.941,72.13,520.664z M116.794,550.193
	c3.188-3.188,6.169-3.886,6.695-3.886l27.363,1.78l-16.328-16.34l-0.379-7.613c-0.123-2.51-1.757-5.894-4.266-9.56l13.544-13.538
	c4.082,1.598,8.464,2.43,12.98,2.43c3.036,0,5.998-0.392,8.862-1.144c2.472,1.658,4.896,3.176,7.264,4.474
	c-0.355,0.636-0.686,1.278-0.973,1.909l-1.224,2.644l10.135,10.123l2.644-1.206c4.474-2.087,9.902-6.12,14.878-11.102
	c4.737-4.73,8.537-9.78,10.734-14.149l1.34-2.681l-10.576-10.581l-2.687,1.34c-0.544,0.275-1.095,0.581-1.659,0.894
	c-1.297-2.301-2.76-4.663-4.382-7.057c0.753-2.906,1.175-5.869,1.175-8.959c0-4.511-0.863-8.887-2.46-12.963l11.035-11.053
	c0.08,0.031,0.134,0.104,0.22,0.129c0.887,0.263,1.793,0.129,2.735-0.429c0.826-0.508,1.34-1.212,1.567-2.166
	c0.159-0.68,0.116-1.334-0.104-1.928l13.531-13.55c0.061,0.03,0.11,0.079,0.171,0.086c0.912,0.177,1.812-0.037,2.693-0.667
	c0.771-0.558,1.249-1.316,1.383-2.259c0.067-0.459,0.049-0.894-0.049-1.34l10.649-10.637c12.136,16.358,18.697,36.083,18.697,56.812
	c0,25.545-9.945,49.548-28.011,67.583c-18.048,18.061-42.051,28.006-67.583,28.006c-14.81,0-29.094-3.397-42.02-9.743
	C115.925,551.393,116.61,550.407,116.794,550.193z M236.116,401.307l274.819-274.819l2.16,2.148L238.038,403.681
	C237.407,402.891,236.771,402.09,236.116,401.307z M473.884,160.796l-2.166-2.16l35.691-35.686l2.154,2.16L473.884,160.796z
	 M505.818,109.565l12.87-14.859c0.894,0.325,1.817,0.465,2.748,0.447l-13.36,16.671L505.818,109.565z M516.901,91.285l10.624-11.236
	l0.716,0.637l-10.073,11.634c-0.337-0.214-0.68-0.447-0.991-0.734C517.066,91.493,517.012,91.383,516.901,91.285z M520.071,93.091
	l9.621-11.108l1.34,1.193l-7.778,9.688C522.293,93.268,521.186,93.341,520.071,93.091z M515.561,92.687
	c0.129,0.116,0.202,0.251,0.337,0.355c0.312,0.282,0.655,0.514,1.004,0.741l-12.46,14.406l-1.806-1.812L515.561,92.687z
	 M503.878,119.419l2.16,2.148l-35.691,35.692l-2.148-2.154L503.878,119.419z M466.815,153.733l-2.167-2.154l35.68-35.686
	l2.167,2.154L466.815,153.733z M492.036,110.422c0.477-0.465,0.894-0.985,1.364-1.475l2.032,2.038l-35.686,35.686l-2.283-2.295
	C468.438,133.403,479.766,122.197,492.036,110.422z M459.196,161.347L227.927,392.616c-0.741-0.698-1.469-1.408-2.222-2.081
	l231.348-231.342L459.196,161.347z M455.671,157.816L224.218,389.268c-0.765-0.679-1.53-1.353-2.319-1.989l231.618-231.617
	L455.671,157.816z M9.143,466.979c-0.539-3.696-0.801-7.436-0.801-11.163c0-18.384,6.499-36.744,18.409-50.851
	c31.745-40.974,84.695-51.31,128.361-74.242c32.436-18.292,42.932-59.676,76.115-76.861c12.833-5.661,27.821-10.729,41.61-5.318
	c17.613,7.056,31.952,19.908,46.31,31.94c21.01-20.716,41.451-41.989,63.036-62.136c24.988-23.268,45.912-44.499,67.688-66.353
	l2.276,2.283L220.351,386.08c-18.201-14.278-40.472-22.044-63.954-22.044c-27.766,0.019-53.862,10.82-73.483,30.465
	c-19.633,19.621-30.447,45.705-30.447,73.47c0,16.88,4.07,33.098,11.616,47.669L40.71,529.152c-1.561-1.817-3.122-3.635-4.658-5.489
	C22.216,507.549,12.876,487.861,9.143,466.979z M87.222,595.2c-9.553-8.128-18.434-16.243-26.567-24.224
	c0.067-0.777-0.159-1.566-0.753-2.166l-3.194-3.188c-0.594-0.588-1.383-0.814-2.167-0.747c-7.987-8.151-16.096-17.007-24.187-26.523
	l25.533-14.762c-0.899,1.23-1.744,2.516-2.46,3.861l-17.858,10.76c-0.435,0.281-0.673,0.716-0.673,1.181
	c0,0.245,0.062,0.496,0.196,0.729c0.404,0.643,1.254,0.862,1.909,0.465l14.523-8.764c-1.267,3.525-1.958,7.271-1.958,11.139
	c0,8.812,3.427,17.104,9.657,23.329c6.23,6.236,14.511,9.651,23.335,9.651c7.13,0,13.887-2.265,19.511-6.42L87.222,595.2z
	 M515.127,133.495c-38.134,39.78-70.368,69.517-107.945,109.86c-20.141,21.555-41.42,42.026-62.124,63.03
	c12.032,14.364,24.891,28.697,31.935,46.298c1.658,4.162,2.319,8.415,2.319,12.674c0,9.939-3.678,19.97-7.626,28.942
	c-17.185,33.194-58.556,43.678-76.873,76.108c-22.938,43.672-33.262,96.616-74.248,128.354
	c-16.958,14.357-40.062,20.839-61.996,17.626c-20.9-3.746-40.576-13.091-56.69-26.922c-1.824-1.487-3.629-3.03-5.435-4.603
	l13.746-23.813c14.192,7.062,29.909,10.863,46.218,10.863c27.76,0,53.856-10.808,73.483-30.459
	c19.639-19.614,30.453-45.741,30.453-73.495c0-22.956-7.417-44.768-21.089-62.754L514.49,129.988l2.117,2.124
	C516.118,132.589,515.592,133.011,515.127,133.495z M513.878,117.724l16.677-13.36c-0.024,0.93,0.123,1.86,0.441,2.748
	l-14.866,12.871L513.878,117.724z M518.07,121.83c-0.037,0.006-0.062,0-0.098,0.006l-0.466-0.471l12.289-10.631
	c-0.012,0.006-0.012,0.019-0.024,0.031l2.148-1.854c0.227,0.343,0.446,0.686,0.734,0.998c0.11,0.129,0.238,0.202,0.361,0.337
	l-13.642,12.876L518.07,121.83z M584.031,63.874c-0.33-0.422-0.942-0.489-1.358-0.159l-1.175,0.942l-0.588-0.649l1.077-0.857
	c0.416-0.349,0.478-0.955,0.135-1.365c-0.33-0.422-0.937-0.489-1.358-0.153l-1.15,0.924l-1.151-1.297l7.926-7.075
	c2.057-1.83,5.483-1.371,7.613,1.035c1.09,1.236,1.658,2.748,1.658,4.174c0,1.34-0.495,2.601-1.493,3.488l-7.932,7.081l-3.439-3.843
	l1.096-0.881C584.307,64.896,584.362,64.284,584.031,63.874z M578.744,65.752l0.587,0.649l-1.077,0.856
	c-0.238,0.196-0.379,0.478-0.379,0.765c0,0.214,0.086,0.429,0.227,0.606c0.336,0.422,0.93,0.496,1.364,0.153l1.151-0.924
	l3.524,3.954l-15.189,13.562l-2.473-2.803l1.132-0.961c0.386-0.361,0.435-0.967,0.104-1.377c-0.367-0.404-0.967-0.447-1.383-0.104
	l-1.151,0.992l-0.489-0.551l1.004-0.863c0.397-0.355,0.435-0.973,0.11-1.371c-0.374-0.41-0.955-0.453-1.377-0.104l-1.028,0.887
	l-0.558-0.618L578.744,65.752z M551.798,97.393c-0.367-0.386-0.979-0.404-1.371-0.037l-0.624,0.6l-0.343,0.312l-0.435-0.49
	l0.899-0.851c0.38-0.373,0.38-0.979,0.037-1.371c-0.361-0.392-0.979-0.41-1.365-0.037h-0.012c-0.013,0.018-0.05,0.006-0.067,0.024
	l-0.637,0.605l-0.184,0.171l-0.545-0.618l3.728-3.231h-0.013l11.677-10.098l0.49,0.551l-1.053,0.906
	c-0.227,0.189-0.361,0.471-0.361,0.74c0,0.227,0.104,0.453,0.239,0.637c0.36,0.41,0.96,0.453,1.389,0.104l1.083-0.936l2.521,2.827
	l-11.188,9.994l-0.006-0.006l-3.99,3.568l-0.912-1.04l0.777-0.734l0.159-0.153c0,0,0,0,0-0.006l0.067-0.062
	C552.152,98.403,552.165,97.785,551.798,97.393z M546.559,102.338c0.196,0.196,0.453,0.312,0.71,0.3c0.08,0,0.135-0.073,0.221-0.092
	c0.178-0.03,0.361-0.061,0.502-0.189l0.71-0.673l0.856,0.942l-7.84,7.001c-0.41,0.373-0.894,0.636-1.396,0.826
	c-0.104,0.03-0.201,0.037-0.306,0.067c-0.361,0.11-0.74,0.177-1.139,0.196c-0.428,0.012-0.881-0.006-1.328-0.11h-0.006
	c-0.508-0.116-1.016-0.3-1.506-0.551l10.912-10.306l0.41,0.471l-0.789,0.759C546.204,101.347,546.186,101.958,546.559,102.338z
	 M561.534,77.044l-0.343-0.379l15.184-13.562l1.071,1.193L561.534,77.044z M561.277,80.937l-11.86,10.257c0,0,0-0.006-0.013-0.006
	l-3.537,3.066l-1.113-1.249l15.911-12.754L561.277,80.937z M545.029,97.57l0.63,0.704l-11.182,10.575
	c-0.098-0.092-0.189-0.171-0.3-0.263c-0.287-0.318-0.526-0.643-0.722-0.992L545.029,97.57z M532.673,105.68
	c-0.104-0.422-0.147-0.845-0.147-1.267c0-0.667,0.129-1.316,0.38-1.916l9.62-7.717l1.182,1.334L532.673,105.68z M600.415,64.908
	l-56.812,51.132c-6.621,3.813-13.867,6.842-20.343,10.979l-2.509-2.516l13.807-13.042c1.077,0.673,2.271,1.046,3.488,1.157
	c0.098,0.006,0.165,0.049,0.263,0.055c0.013,0,0.031-0.006,0.043-0.006c0.116,0.006,0.215,0.049,0.331,0.049
	c0.673,0,1.328-0.159,1.946-0.349c0.098-0.024,0.189-0.019,0.281-0.049c0.783-0.275,1.493-0.673,2.111-1.218l0.013-0.012
	c0.012-0.006,0.024-0.006,0.024-0.012l52.399-46.732c1.401-1.23,2.147-2.986,2.147-4.945c0-1.971-0.765-3.911-2.166-5.465
	c-1.475-1.658-3.488-2.68-5.582-2.796c-1.793-0.104-3.476,0.465-4.755,1.597l-39.29,35.067c-0.013,0-0.013,0-0.013,0l-13.127,11.714
	c-0.563,0.496-1.004,1.114-1.353,1.769l-15.826,12.675l0.049-0.043l-1.732,1.401l-1.248,0.998l-3.104-3.097l15.074-18.813
	c0.648-0.349,1.272-0.789,1.769-1.353l46.732-52.369c1.04-1.163,1.628-2.711,1.628-4.339c0-2.233-1.028-4.424-2.821-6.01
	c-1.493-1.34-3.385-2.105-5.264-2.154c-2.025-0.042-3.868,0.723-5.122,2.148l-46.738,52.375c-1.041,1.163-1.628,2.705-1.628,4.339
	c0,1.444,0.471,2.864,1.261,4.125l-13.097,13.85l-2.724-2.736c4.137-6.457,7.154-13.708,10.973-20.324l45.288-50.961l5.845-5.857
	c3.452-3.452,9.052-3.439,12.503,0.006l27.277,27.277c1.72,1.72,2.601,3.99,2.601,6.261
	C603.01,60.924,602.153,63.176,600.415,64.908z"/>
</svg>
