<?xml version="1.0" encoding="utf-8"?>
<!-- Generator: Adobe Illustrator 16.0.0, SVG Export Plug-In . SVG Version: 6.00 Build 0)  -->
<!DOCTYPE svg PUBLIC "-//W3C//DTD SVG 1.1//EN" "http://www.w3.org/Graphics/SVG/1.1/DTD/svg11.dtd">
<svg version="1.1" id="Layer_1" xmlns="http://www.w3.org/2000/svg" xmlns:xlink="http://www.w3.org/1999/xlink" x="0px" y="0px"
	 width="612px" height="792px" viewBox="0 0 612 792" enable-background="new 0 0 612 792" xml:space="preserve">
<title>fleurdelis</title>
<g>
	<path d="M550.004,345.449c-3.978-50.429-32.681-73.868-90.453-73.868c-28.458,0-55.631,11.2-80.11,26.683
		c17.441-26.132,27.479-53.856,27.846-77.969c0.673-41.8-25.275-76.99-50.368-111.017c-18.359-24.908-35.74-48.47-40.392-71.91
		c-1.041-5.789-6.578-9.636-12.366-8.595c-4.604,0.828-8.127,4.563-8.687,9.207c-4.101,24.174-22.093,48.96-41.249,75.337
		c-24.48,33.538-49.511,68.177-49.511,107.039c0,23.991,9.792,51.592,27.173,77.724c-24.113-15.116-51.286-26.255-79.56-26.255
		c-57.772,0-86.537,23.439-90.454,73.868c-2.349,21.862,3.834,43.787,17.259,61.2c12.515,15.438,30.66,25.259,50.429,27.295
		c3.962,0.445,7.946,0.671,11.934,0.674c12.831,0.791,25.493-3.248,35.496-11.322c8.218-7.658,12.688-18.519,12.24-29.743
		c0.057-13.817-8.306-26.276-21.114-31.457l-1.04-0.367c-10.628-5.499-23.655-2.791-31.212,6.487l0,0
		c-1.382,1.494-2.426,3.268-3.06,5.202c-5.347,11.859-0.819,25.84,10.465,32.313c-3.394,0.063-6.787-0.101-10.159-0.489
		c-23.195-2.57-45.349-21.604-42.473-58.263c2.387-30.172,13.28-47.614,62.118-47.614c58.323,0,116.953,63.771,139.046,87.822
		l4.1,4.467l0.367,0.306l0.306,0.367l0,0l0.612,0.49l0.49,0.367l0.673,0.428l0.551,0.367l0.674,0.367h0.611h0.674h0.611h0.674h0.673
		h0.674h0.673h4.039h0.734h0.551h0.734h0.551h0.734h0.612l0.673-0.306l0.612-0.306l0.612-0.367l0.611-0.429l0.551-0.428l0.612-0.49
		l0,0l0.306-0.367l0.367-0.306l4.101-4.468c22.154-23.317,80.662-87.087,138.985-87.087c48.96,0,59.731,17.442,62.118,47.613
		c2.876,36.72-19.278,55.692-42.473,58.262c-2.143,0-4.101,0.367-6.12,0.49c10.509-8.183,12.889-23.104,5.446-34.15
		c-0.608-1.229-1.392-2.362-2.325-3.366c-8.407-8.607-21.22-11.203-32.313-6.548c-12.965,5.156-21.426,17.75-21.298,31.702
		c-0.447,11.224,4.022,22.085,12.24,29.744c9.996,8.037,22.633,12.054,35.435,11.261c3.987-0.003,7.972-0.229,11.934-0.674
		c19.722-2.114,37.796-11.977,50.246-27.417C546.05,389.507,552.348,367.453,550.004,345.449z M271.483,125.557
		c13.133-17.005,24.783-35.105,34.822-54.101c9.752,17.693,20.906,34.578,33.354,50.49c23.011,31.212,46.757,63.403,46.206,97.92
		c-0.367,23.807-12.24,52.51-33.171,78.765c-20.93,26.255-39.412,37.271-46.695,37.271c-19.461,0-79.927-61.567-79.927-115.79
		C226.073,188.165,249.145,156.341,271.483,125.557z M374.911,432.108H237.089c-7.858,0-14.229-6.371-14.229-14.229
		s6.371-14.229,14.229-14.229h137.822c7.858,0,14.229,6.37,14.229,14.229S382.77,432.108,374.911,432.108z M201.593,543.431
		c-17.391-0.285-33.054-10.584-40.208-26.438c-6.12-15.116-1.713-31.946,12.24-46.083c4.259-4.057,10.999-3.892,15.055,0.367
		c3.917,4.112,3.917,10.575,0,14.688c-5.569,5.569-11.444,14.015-7.772,22.828c3.805,7.919,11.719,13.046,20.502,13.28
		c40.514,0,55.08-34.395,55.08-63.832c-0.003-5.881,4.762-10.651,10.643-10.654s10.651,4.762,10.654,10.644c0,0.003,0,0.007,0,0.011
		C277.787,517.115,239.537,543.431,201.593,543.431z M409.306,543.431c-34.517,0-74.786-22.276-74.786-85.19
		c-0.004-5.881,4.762-10.651,10.643-10.654c5.882-0.003,10.651,4.762,10.654,10.644c0,0.003,0,0.007,0,0.011
		c0,59.242,40.882,63.832,53.428,63.832c9.223-0.313,17.525-5.676,21.604-13.954c2.877-6.915,0.367-14.32-7.466-22.154
		c-4.057-4.259-3.892-10.999,0.367-15.055c4.112-3.917,10.575-3.917,14.688,0c13.893,13.892,18.36,30.6,12.24,45.41
		C443.304,532.608,427.184,543.172,409.306,543.431z M320.198,455.058c1.423,5.914,2.525,11.899,3.305,17.932
		c0.796,6.12,1.469,12.24,1.897,17.932c0.918,12.24,1.163,23.93,1.04,35.863c-0.122,11.935-0.611,23.93-1.591,35.863
		c-0.857,12.037-2.432,24.013-4.713,35.863c-1.553,7.858-9.183,12.97-17.042,11.416c-5.767-1.14-10.275-5.648-11.416-11.416
		c-2.281-11.851-3.855-23.826-4.712-35.863c-0.979-12.24-1.408-23.929-1.591-35.863c-0.184-11.934,0-23.929,1.041-35.863
		c0.428-6.12,1.102-12.239,1.897-17.932c0.779-6.032,1.883-12.018,3.305-17.932c2.012-7.858,10.014-12.598,17.872-10.585
		c5.197,1.33,9.255,5.389,10.586,10.585H320.198z"/>
</g>
</svg>
