<?xml version="1.0" encoding="utf-8"?>
<!-- Generator: Adobe Illustrator 16.0.0, SVG Export Plug-In . SVG Version: 6.00 Build 0)  -->
<!DOCTYPE svg PUBLIC "-//W3C//DTD SVG 1.1//EN" "http://www.w3.org/Graphics/SVG/1.1/DTD/svg11.dtd">
<svg version="1.1" id="Layer_1" xmlns="http://www.w3.org/2000/svg" xmlns:xlink="http://www.w3.org/1999/xlink" x="0px" y="0px"
	 width="612px" height="792px" viewBox="0 0 612 792" enable-background="new 0 0 612 792" xml:space="preserve">
<title>8 -Disco Globe- (Solid)</title>
<desc>Created with Sketch.</desc>
<g>
	<g transform="translate(-960.000000, -370.000000)">
		<g transform="translate(960.000000, 370.000000)">
			<path d="M220.531,485.689c26.379-6.331,54.869-10.552,85.469-10.552V369.621H200.483
				C201.538,410.772,208.924,449.813,220.531,485.689"/>
			<path d="M327.104,496.241v122.4c33.766-29.545,60.145-68.587,78.083-112.903C380.917,500.462,355.593,497.297,327.104,496.241"/>
			<path d="M327.104,475.138c30.6,1.056,59.09,4.221,85.469,10.552c11.607-35.876,18.993-75.973,20.049-116.069H327.104V475.138z"/>
			<path d="M306,619.696V496.241c-27.435,1.056-53.814,4.221-78.083,9.497C245.855,551.11,272.234,590.151,306,619.696"/>
			<path d="M200.483,348.517H306V243c-29.545-1.055-58.035-4.221-84.414-10.552C208.924,268.324,201.538,307.365,200.483,348.517"/>
			<path d="M432.621,492.021c29.545,9.497,55.924,21.104,80.192,37.986l10.552,9.497c40.097-45.373,64.366-104.463,67.531-168.828
				H453.725C452.669,412.883,445.283,454.034,432.621,492.021"/>
			<path d="M179.379,348.517c1.055-43.262,8.441-84.414,22.159-121.345c-29.545-9.497-56.979-22.159-81.249-37.986l-10.552-9.497
				c-40.096,45.373-64.365,104.462-67.531,168.828H179.379z"/>
			<path d="M327.104,108.993v112.903c27.435-1.055,52.759-3.166,75.973-9.497C385.138,172.303,359.813,137.483,327.104,108.993"/>
			<path d="M512.813,188.131c-24.269,16.883-51.703,29.545-81.248,39.042c13.718,36.931,21.104,78.083,22.159,121.345h137.172
				c-2.11-64.365-27.435-123.455-66.476-168.828L512.813,188.131z"/>
			<path d="M411.518,232.448c-26.38,6.331-53.814,9.497-84.414,10.552v105.517h105.518
				C431.565,307.365,424.18,267.269,411.518,232.448"/>
			<path d="M425.234,511.014c-18.993,47.482-46.428,88.635-81.248,120.29c63.311-6.331,121.345-34.821,164.606-78.083l-9.496-7.387
				C476.938,531.062,452.669,519.455,425.234,511.014"/>
			<path d="M230.027,212.4c23.214,5.276,48.538,8.441,75.973,8.441V108.993C273.29,137.483,247.965,172.303,230.027,212.4"/>
			<path d="M306,63.621h21.104c13.717,0,25.324,8.441,29.545,21.104H275.4C280.676,72.062,292.283,63.621,306,63.621L306,63.621z
				 M132.952,171.248c23.214,15.828,48.538,27.435,75.973,35.876c16.883-39.041,40.096-72.807,69.641-101.296h75.973
				c29.545,28.49,52.759,63.31,69.642,101.296c27.434-8.441,53.813-20.048,77.027-35.876l8.441-7.386
				c-34.821-34.821-80.193-60.145-129.786-71.752c-1.056-20.048-13.718-36.931-31.655-45.373V10.862
				c0-6.331-4.221-10.551-10.552-10.551h-42.207c-6.331,0-10.552,4.221-10.552,10.551v35.876
				c-17.938,7.386-30.6,25.324-31.655,45.373c-49.593,11.607-93.91,36.931-129.786,71.752L132.952,171.248z"/>
			<path d="M179.379,369.621H42.207c2.11,64.366,27.435,122.4,66.476,167.772l12.662-8.44c24.269-15.828,50.648-28.49,79.138-37.986
				C187.821,454.034,180.435,412.883,179.379,369.621"/>
			<path d="M207.869,511.014c-27.435,8.441-51.704,20.049-74.917,35.876l-9.497,6.331c43.262,43.262,101.297,71.752,164.607,78.083
				C253.241,600.703,225.807,559.552,207.869,511.014"/>
		</g>
	</g>
</g>
</svg>
