<?xml version="1.0" encoding="utf-8"?>
<!-- Generator: Adobe Illustrator 16.0.0, SVG Export Plug-In . SVG Version: 6.00 Build 0)  -->
<!DOCTYPE svg PUBLIC "-//W3C//DTD SVG 1.1//EN" "http://www.w3.org/Graphics/SVG/1.1/DTD/svg11.dtd">
<svg version="1.1" id="Layer_1" xmlns="http://www.w3.org/2000/svg" xmlns:xlink="http://www.w3.org/1999/xlink" x="0px" y="0px"
	 width="612px" height="792px" viewBox="0 0 612 792" enable-background="new 0 0 612 792" xml:space="preserve">
<title>18 -Music- (Solid)</title>
<desc>Created with Sketch.</desc>
<g>
	<g transform="translate(-960.000000, -490.000000)">
		<g transform="translate(960.000000, 490.000000)">
			<path d="M316.2,462.3c-5.641,0-10.2-4.569-10.2-10.2c0-5.63,4.56-10.199,10.2-10.199s10.2,4.569,10.2,10.199
				C326.4,457.73,321.841,462.3,316.2,462.3 M316.2,421.5c-16.871,0-30.6,13.729-30.6,30.6c0,16.871,13.729,30.601,30.6,30.601
				c16.87,0,30.6-13.729,30.6-30.601C346.8,435.229,333.07,421.5,316.2,421.5"/>
			<path d="M265.2,186.9c16.871,0,30.6-13.729,30.6-30.6c0-16.871-13.729-30.6-30.6-30.6c-16.871,0-30.6,13.729-30.6,30.6
				C234.6,173.171,248.329,186.9,265.2,186.9"/>
			<path d="M265.2,105.3c28.121,0,51,22.879,51,51c0,28.122-22.879,51-51,51c-28.122,0-51-22.878-51-51
				C214.2,128.179,237.079,105.3,265.2,105.3 M265.2,227.7c39.361,0,71.399-32.028,71.399-71.4S304.562,84.9,265.2,84.9
				c-39.362,0-71.4,32.028-71.4,71.4S225.838,227.7,265.2,227.7"/>
			<path d="M316.2,503.1c-28.122,0-51-22.878-51-51c0-28.121,22.878-51,51-51c28.121,0,51,22.879,51,51
				C367.2,480.222,344.321,503.1,316.2,503.1 M316.2,350.1c-56.243,0-102,45.757-102,102c0,56.243,45.757,102,102,102
				c56.242,0,102-45.757,102-102C418.2,395.857,372.442,350.1,316.2,350.1"/>
			<path d="M397.8,319.5c-28.121,0-51-22.878-51-51s22.879-51,51-51c28.122,0,51,22.878,51,51S425.922,319.5,397.8,319.5
				 M316.2,574.5c-67.494,0-122.4-54.906-122.4-122.4c0-67.493,54.907-122.399,122.4-122.399
				c67.493,0,122.399,54.906,122.399,122.399C438.6,519.594,383.693,574.5,316.2,574.5 M265.2,64.5c50.622,0,91.8,41.188,91.8,91.8
				c0,50.613-41.178,91.8-91.8,91.8c-50.623,0-91.8-41.188-91.8-91.8C173.4,105.688,214.578,64.5,265.2,64.5 M489.6,13.5H142.8
				c-5.641,0-10.2,4.569-10.2,10.2v591.6c0,5.631,4.559,10.2,10.2,10.2h346.8c5.641,0,10.2-4.569,10.2-10.2V23.7
				C499.8,18.069,495.24,13.5,489.6,13.5"/>
			<path d="M397.8,278.7c-5.641,0-10.2-4.57-10.2-10.2s4.56-10.2,10.2-10.2s10.2,4.57,10.2,10.2S403.44,278.7,397.8,278.7
				 M397.8,237.9c-16.87,0-30.6,13.729-30.6,30.6s13.729,30.6,30.6,30.6c16.871,0,30.601-13.729,30.601-30.6
				S414.671,237.9,397.8,237.9"/>
		</g>
	</g>
</g>
</svg>
