<?xml version="1.0" encoding="utf-8"?>
<!-- Generator: Adobe Illustrator 16.0.0, SVG Export Plug-In . SVG Version: 6.00 Build 0)  -->
<!DOCTYPE svg PUBLIC "-//W3C//DTD SVG 1.1//EN" "http://www.w3.org/Graphics/SVG/1.1/DTD/svg11.dtd">
<svg version="1.1" id="Layer_1" xmlns="http://www.w3.org/2000/svg" xmlns:xlink="http://www.w3.org/1999/xlink" x="0px" y="0px"
	 width="612px" height="792px" viewBox="0 0 612 792" enable-background="new 0 0 612 792" xml:space="preserve">
<title>Subjects</title>
<path d="M459.56,424.681c-2.741-4.407-5.74-8.667-8.644-12.794c-13.575-19.284-21.502-32.073-13.745-51.178
	c15.907-39.204,14.826-76.364-3.032-104.638c-17.448-27.629-49.457-44.751-90.565-48.698v-53.694l17.431-34.861
	c0.64-1.277,0.972-2.685,0.971-4.113v-9.201h27.602c5.082,0.003,9.203-4.114,9.206-9.195c0.002-5.082-4.114-9.203-9.196-9.206
	c-0.003,0-0.006,0-0.01,0h-27.602V50.302h27.602c5.081,0.001,9.201-4.117,9.202-9.198c0.002-5.081-4.116-9.201-9.198-9.203
	c-0.001,0-0.002,0-0.004,0h-27.602v-9.2c0-5.082-4.119-9.201-9.2-9.201h-92.005c-5.081,0-9.2,4.12-9.2,9.201v9.2h-27.602
	c-5.081-0.001-9.201,4.117-9.203,9.199c-0.001,5.081,4.117,9.201,9.199,9.202c0.001,0,0.002,0,0.004,0h27.602v36.802h-27.602
	c-5.081,0.002-9.198,4.124-9.196,9.206c0.003,5.077,4.118,9.193,9.196,9.195h27.602v9.201c-0.001,1.428,0.332,2.836,0.971,4.113
	l17.43,34.861v53.441c-41.14,4.108-73.126,21.322-90.505,48.942c-17.743,28.199-18.783,65.264-2.921,104.357
	c7.756,19.101-0.17,31.889-13.746,51.182c-2.903,4.117-5.902,8.382-8.644,12.784c-26.033,41.799-32.869,82.735-19.776,118.388
	c13.028,35.464,44.494,62.076,91.002,76.967c11.938,3.827,46.095,5.76,79.852,5.76c32.63,0,64.882-1.808,76.295-5.465
	c48.399-15.494,82.502-44.31,96.021-81.131C490.446,503.781,484.227,464.284,459.56,424.681z M269.97,96.305V31.901h73.604v80.633
	l-14.886,29.773h-43.832l-14.886-29.773V96.305z M325.173,160.708v294.417h-36.802V160.708H325.173z M460.273,532.57
	c-11.524,31.374-41.48,56.211-84.36,69.942c-19.523,6.251-125.168,6.026-144.926-0.295c-40.901-13.093-68.336-35.845-79.336-65.788
	c-11.063-30.132-4.803-65.513,18.121-102.314c2.47-3.966,5.193-7.829,8.073-11.928c12.973-18.425,27.675-39.314,15.751-68.687
	c-13.576-33.462-13.065-64.583,1.444-87.635c14.031-22.297,40.459-36.411,74.929-40.243v229.502h-27.602
	c-5.081-0.011-9.208,4.101-9.219,9.182s4.101,9.209,9.182,9.219c0.013,0,0.025,0,0.037,0h128.807
	c5.082-0.01,9.192-4.138,9.183-9.219c-0.011-5.066-4.115-9.172-9.183-9.182h-27.602V225.861
	c34.452,3.676,60.917,17.725,75.012,40.037c14.602,23.121,15.149,54.333,1.532,87.892c-11.919,29.373,2.778,50.263,15.752,68.691
	c2.879,4.094,5.603,7.958,8.073,11.933C465.499,469.018,471.144,502.958,460.273,532.57z"/>
</svg>
