<?xml version="1.0" encoding="utf-8"?>
<!-- Generator: Adobe Illustrator 16.0.0, SVG Export Plug-In . SVG Version: 6.00 Build 0)  -->
<!DOCTYPE svg PUBLIC "-//W3C//DTD SVG 1.1//EN" "http://www.w3.org/Graphics/SVG/1.1/DTD/svg11.dtd">
<svg version="1.1" id="Layer_1" xmlns="http://www.w3.org/2000/svg" xmlns:xlink="http://www.w3.org/1999/xlink" x="0px" y="0px"
	 width="612px" height="792px" viewBox="0 0 612 792" enable-background="new 0 0 612 792" xml:space="preserve">
<g>
	<path d="M161.568,168.948c-6.12,11.016-11.016,20.808-17.136,31.824c2.448,3.672,4.896,8.568,6.12,13.464
		C216.648,451.692,214.2,439.452,214.2,445.572c1.224-1.225,2.448-2.448,3.672-3.672c2.448,1.224,6.12,2.447,8.568,3.672
		l-36.72-255.816C181.152,182.412,171.36,175.068,161.568,168.948z"/>
	<path d="M233.784,150.588c-7.344,9.792-13.464,19.584-19.584,30.6l0,0L250.92,441.9c3.672-3.673,7.344-8.568,11.016-12.24
		c6.12,3.672,12.24,7.344,18.36,11.016l-18.36-263.16C253.368,167.724,243.576,159.156,233.784,150.588z"/>
	<path d="M286.416,168.948L286.416,168.948l17.136,259.487c1.225-1.224,2.448-1.224,3.672-2.447
		c4.896,3.672,9.792,7.344,13.464,12.239l4.896-270.503l0,0c-6.12-7.344-12.24-14.688-18.36-22.032
		C299.88,153.036,292.536,161.604,286.416,168.948z"/>
	<path d="M379.44,150.588c-11.017,9.792-20.809,18.36-30.601,28.152l-3.672,254.592c2.448-1.224,3.672-2.448,6.12-3.672
		c4.896,4.896,8.568,9.792,13.464,13.464l35.496-261.936C392.904,171.396,386.784,161.604,379.44,150.588z"/>
	<path d="M466.344,197.1c-4.896-9.792-9.792-18.36-14.688-28.152c-9.792,6.12-18.36,12.24-28.152,19.584l-34.271,254.592
		c2.447-1.224,3.672-2.448,6.119-2.448c2.448,2.448,3.673,4.896,6.12,7.344l63.648-244.8
		C463.896,200.772,465.12,198.324,466.344,197.1z"/>
	<path d="M127.296,220.356c-3.672-11.016-14.688-17.136-25.704-14.688L22.032,227.7c-11.016,3.672-17.136,14.688-14.688,25.704
		L70.992,478.62c3.672,11.016,14.688,17.136,25.704,14.688l79.56-22.031c11.016-3.672,17.136-14.688,14.688-25.704L127.296,220.356z
		 M24.48,244.836l73.44-19.584l4.896,17.136l-42.84,11.016l1.224,6.12l-31.824,8.568L24.48,244.836z M31.824,274.212l31.824-8.568
		l1.224,6.12l42.84-11.016l3.672,12.24l-42.84,11.016l1.224,4.896l-31.824,8.568L31.824,274.212z M40.392,304.812l31.824-8.568
		l1.224,6.12l42.84-11.016l4.896,17.136l-74.664,19.584L40.392,304.812z M47.736,335.412l74.664-19.584l6.12,23.256l-74.664,19.584
		L47.736,335.412z M56.304,364.788l74.664-19.584l4.896,18.36L94.248,374.58l1.224,4.896L61.2,388.044L56.304,364.788z
		 M69.768,418.645l-6.12-23.256l33.048-8.568l1.224,6.12l41.616-11.016l3.672,12.24l-41.616,11.016l1.224,4.896L69.768,418.645z
		 M77.112,448.02l-6.12-23.256l33.048-8.568l2.448,7.345l41.616-11.017l3.672,12.24L110.16,435.78l1.224,3.672L77.112,448.02z
		 M85.68,478.62l-6.12-23.256l33.048-8.568l2.448,7.344l41.616-11.016l3.672,15.912L85.68,478.62z"/>
	<path d="M600.984,233.82l-107.713-28.152c-2.447-1.224-4.896,1.224-6.119,3.672L422.28,460.26c0,2.448,1.224,4.896,3.672,6.12
		l107.712,28.152c2.448,0,4.896-1.225,6.12-3.672l64.872-250.92C604.656,236.268,603.432,233.82,600.984,233.82z M531.216,252.18
		c1.225-3.672,6.12-7.344,9.792-6.12s7.344,4.896,6.12,9.792c-1.224,3.672-6.12,6.12-9.792,6.12
		C532.44,260.748,529.992,257.076,531.216,252.18z M525.096,276.66c1.225-3.672,6.12-6.12,9.792-6.12
		c4.896,1.224,7.345,6.12,6.12,9.792c-1.224,3.672-6.12,6.12-9.792,6.12C526.32,285.228,523.872,280.332,525.096,276.66z
		 M518.976,299.916c1.225-3.672,6.12-7.344,9.792-6.12c3.673,1.224,7.345,6.12,6.12,9.792c-1.224,4.896-6.12,7.344-9.792,6.12
		C520.2,308.484,517.752,304.812,518.976,299.916z M511.632,357.444c-3.672-1.224-6.12-6.12-6.12-9.792
		c1.225-4.896,6.12-7.344,9.792-6.12c3.672,1.224,6.12,6.12,6.12,9.792C520.2,356.22,515.304,358.668,511.632,357.444z
		 M515.304,375.804c-1.224,3.672-6.12,6.12-9.792,6.12c-3.672-1.224-6.12-6.12-6.12-9.792c1.225-3.672,6.12-7.344,9.792-6.12
		C512.856,367.236,515.304,370.908,515.304,375.804z M517.752,334.188c-4.896-1.224-6.12-6.12-6.12-9.792
		c1.224-4.896,6.12-6.12,9.792-6.12c3.672,1.224,6.12,6.12,6.12,9.792C526.32,332.964,522.648,335.412,517.752,334.188z
		 M500.616,257.076c1.224-3.672,6.12-6.12,9.792-6.12c3.672,1.224,6.12,6.12,6.12,9.792c-1.225,3.672-6.12,6.12-9.792,6.12
		C501.84,265.644,499.392,260.748,500.616,257.076z M494.496,280.332c1.224-3.672,6.12-7.344,9.792-6.12
		c4.896,1.224,6.12,4.896,6.12,9.792c-1.225,3.672-6.12,7.344-9.792,6.12C495.72,288.9,493.271,285.228,494.496,280.332z
		 M488.376,304.812c1.224-3.672,4.896-6.12,9.792-6.12c3.672,1.224,6.12,6.12,6.12,9.792c-1.224,3.672-6.12,6.12-9.792,6.12
		C489.6,313.38,487.152,308.484,488.376,304.812z M482.256,328.068c1.225-3.672,6.12-7.344,9.792-6.12
		c4.896,1.224,7.344,6.12,6.12,9.792c-1.224,3.672-6.12,7.344-9.792,6.12C483.48,336.636,481.032,332.964,482.256,328.068z
		 M474.912,352.548c1.224-4.896,4.896-7.344,9.792-6.12c3.672,1.224,7.344,6.12,6.12,9.792c-1.225,4.896-4.896,7.344-9.792,6.12
		C476.136,361.116,473.688,356.22,474.912,352.548z M468.792,375.804c1.224-4.896,6.12-6.12,9.792-6.12
		c4.896,1.224,7.344,6.12,6.12,9.792c-1.224,4.896-6.12,7.344-9.792,6.12C470.016,384.372,467.568,380.7,468.792,375.804z
		 M471.24,428.436c-1.225,3.673-6.12,6.12-9.792,6.12c-4.896-1.224-7.344-6.12-6.12-9.792s6.12-6.119,9.792-6.119
		C470.016,418.645,472.464,423.54,471.24,428.436z M477.36,403.956c-1.225,3.672-4.896,7.344-9.792,6.12
		c-3.672-1.225-6.12-6.12-6.12-9.792c1.224-4.896,6.12-7.344,9.792-6.12C476.136,395.388,478.584,400.284,477.36,403.956z
		 M495.72,446.796c-1.224,3.672-6.12,6.12-9.792,6.12c-3.672-1.224-7.344-6.12-6.12-9.792c1.225-3.672,6.12-6.12,9.792-6.12
		C494.496,438.228,496.944,443.124,495.72,446.796z M501.84,423.54c-1.224,3.672-6.12,6.12-9.792,6.12
		c-4.896-1.225-7.344-4.896-6.12-9.792c1.225-3.673,6.12-7.345,9.792-6.12C500.616,414.973,503.064,418.645,501.84,423.54z
		 M507.96,399.061c-1.224,3.672-6.12,7.344-9.792,6.119c-3.672-1.224-7.344-6.119-6.12-9.792s6.12-6.12,9.792-6.12
		C506.736,390.492,509.184,395.388,507.96,399.061z M526.32,443.124c-1.225,3.672-6.12,6.12-9.792,6.12
		c-3.672-1.225-6.12-6.12-6.12-9.792c1.224-3.672,6.12-7.344,9.792-6.12C525.096,434.556,527.544,438.228,526.32,443.124z
		 M532.44,418.645c-1.225,3.672-6.12,7.344-9.792,6.119c-4.896-1.224-6.12-4.896-6.12-9.791c1.224-3.673,6.12-7.345,9.792-6.121
		C531.216,410.076,533.664,414.973,532.44,418.645z M538.56,395.388c-1.224,3.672-4.896,6.12-9.792,6.12
		c-3.672-1.224-6.119-6.12-6.119-9.792c1.224-3.672,6.119-6.12,9.792-6.12C537.336,386.82,539.784,390.492,538.56,395.388z
		 M544.68,370.908c-1.224,3.672-6.12,7.344-9.792,6.12c-4.896-1.224-7.344-6.12-6.12-9.792c1.225-3.672,6.12-7.344,9.792-6.12
		C543.456,362.34,545.904,367.236,544.68,370.908z M552.024,347.652c-1.225,3.672-6.12,6.12-9.792,6.12
		c-3.673-1.224-7.345-6.12-6.12-9.792c1.224-4.896,4.896-7.344,9.792-6.12C550.8,339.084,553.248,342.756,552.024,347.652z
		 M558.144,323.172c-1.224,4.896-6.119,7.344-9.792,6.12c-4.896-1.224-7.344-6.12-6.119-9.792c1.224-4.896,6.119-7.344,9.792-6.12
		C556.92,314.604,559.368,319.5,558.144,323.172z M564.264,299.916c-1.224,4.896-6.12,7.344-9.792,6.12
		c-3.672-1.224-7.344-6.12-6.12-9.792c1.225-4.896,6.12-6.12,9.792-6.12C563.04,291.348,565.488,295.02,564.264,299.916z
		 M571.608,275.436c-1.225,4.896-6.12,7.344-9.792,6.12s-6.12-6.12-6.12-9.792c1.224-4.896,6.12-7.344,9.792-6.12
		C570.384,266.868,572.832,271.764,571.608,275.436z"/>
</g>
</svg>
