<?xml version="1.0" encoding="utf-8"?>
<!-- Generator: Adobe Illustrator 16.0.0, SVG Export Plug-In . SVG Version: 6.00 Build 0)  -->
<!DOCTYPE svg PUBLIC "-//W3C//DTD SVG 1.1//EN" "http://www.w3.org/Graphics/SVG/1.1/DTD/svg11.dtd">
<svg version="1.1" id="Layer_1" xmlns="http://www.w3.org/2000/svg" xmlns:xlink="http://www.w3.org/1999/xlink" x="0px" y="0px"
	 width="612px" height="792px" viewBox="0 0 612 792" enable-background="new 0 0 612 792" xml:space="preserve">
<g>
	<path d="M258.264,161.604c0,0,11.016-6.12,23.868,1.224c0,0,0,3.06-3.672,3.672s-23.256,1.836-23.256,14.688
		c0,0,3.06-6.732,11.628-9.792c-0.612,1.224-1.224,2.448-1.224,3.672c0,3.672,3.06,6.12,6.12,6.732
		c-4.284,0.612-7.344-1.224-7.344-1.224l-7.344,3.06l7.344-0.612c17.136,3.06,20.808-7.956,21.42-15.3l7.344-6.12
		C293.76,162.216,267.444,151.2,258.264,161.604z M272.34,171.396c0-0.612,0.612-1.224,1.836-1.224l0,0
		c0.612,0,1.836,0.612,1.836,1.224s-0.612,1.224-1.836,1.224C272.952,172.62,272.34,172.008,272.34,171.396z M279.072,178.74
		c0.612-1.224,1.224-2.448,1.224-3.672c0-1.836-1.224-3.672-2.448-4.896c1.836,0,3.672,0.612,5.508,0.612l1.224-1.224
		C282.744,173.844,280.908,176.904,279.072,178.74z"/>
	<path d="M250.308,145.692l1.836,1.224c0,0-14.688,9.792-14.076,14.076c0.612,4.284,6.732,3.672,6.732,3.672l15.912-20.196
		l-3.672,0.612c0,0,16.524-9.18,31.212,3.06C288.252,148.14,266.832,127.944,250.308,145.692z"/>
	<path d="M250.308,230.148c1.836,0.612,4.284,3.672,6.12,0.612c0,0,0.612-3.672-1.836-3.672c-2.448,0-10.404-0.612-9.18,6.12
		C245.412,233.82,249.084,229.536,250.308,230.148z"/>
	<path d="M226.44,190.98c-0.612,0-0.612,0-1.224,0c-4.896,0-11.628,1.836-13.464,7.956h-1.836l0,0c0,0,0,0,0.612,0l-5.508,2.448
		l9.18,2.448c0,0-2.448-6.12,7.956-11.016c0,0.612-0.612,1.224-0.612,2.448c0,3.06,2.448,5.508,4.896,5.508
		c3.06,0,4.896-2.448,4.896-5.508c0-0.612,0-0.612,0-1.224c-0.612,0.612-1.224,1.224-2.448,1.224c-1.224,0-2.448-1.224-2.448-1.836
		c0-1.224,1.224-1.836,2.448-1.836c0.612,0,0.612,0,1.224,0l-0.612-0.612c0.612,0,0.612,0,1.224-0.612c0,0-1.224,0-2.448,0
		C227.052,190.98,226.44,190.98,226.44,190.98z"/>
	<path d="M249.696,264.42c0,0,1.224,8.568,9.792,8.568c8.568,0.612,18.36-7.956,21.42-17.136c0,0,8.568-5.508,9.792-7.344
		l-6.732,0.612c3.06-1.224,6.12-3.06,6.12-3.06s-33.048,0-36.108,0.612c-2.448,0.612-3.06,4.284-4.896,4.896
		c-1.836,0.612-1.224-1.836-1.224-1.836C241.128,255.24,248.472,266.868,249.696,264.42z M276.624,258.912
		c-1.836,2.448-6.12,1.836-6.12,1.836c-1.224-1.224,3.672-3.672,3.672-3.672c0.612-1.836,7.344-3.06,7.344-3.06
		S278.46,256.464,276.624,258.912z M274.176,253.404c-3.06,1.836-7.344,4.896-9.792,5.508c-1.224,0.612-3.06,0.612-4.284,1.224
		c-0.612-0.612-1.836-1.836-1.224-3.06C258.876,255.852,268.668,254.016,274.176,253.404z"/>
	<path d="M238.068,257.688c-16.524-11.628-21.42-31.212-20.808-37.944c0.612-6.732-1.836-11.628-1.836-11.628l-20.808-6.12
		l14.688-2.448c-3.672-1.836-9.18-14.076-9.18-15.3c0,0,0-1.224,0-1.836c2.448-1.224,10.404-3.672,17.136-1.224l-0.612-2.448
		c0,0,8.568,1.224,10.404,5.508c0,0.612,0.612,1.224,0.612,2.448c0,6.732-4.896-0.612-4.896-0.612l1.224-1.836
		c0,0-12.852,3.672-14.076,10.404l-3.672-3.06l3.672,6.12c0,0,3.672-12.852,19.584-6.12c0,0,0.612-0.612,0-3.06
		c0,0-1.836-7.956-11.016-10.404c-8.568-2.448-4.896,0-4.896,0s-11.628-3.06-14.076,2.448c-0.612-6.12-1.836-17.748-4.896-32.436
		c-4.284-20.196,15.3-36.108,15.3-36.108l26.928-19.584l-8.568,0.612l35.496-23.256l-6.732-3.672c0,0,14.076-6.732,9.18-10.404
		s-35.496,4.896-35.496,4.896c-48.348,13.464-68.544,95.472-72.216,140.148c-3.672,44.064,20.808,58.14,20.808,58.14
		c-9.792-7.956-10.404-44.064-10.404-44.064s9.18,19.584,14.688,47.124c5.508,27.54,36.108,61.812,36.108,61.812l-9.792-53.244
		c0,0,12.852,47.124,22.032,61.812c8.568,14.688,20.196,11.628,20.196,11.628c7.344-29.376,0.612-58.752,0.612-58.752l11.016,2.448
		l-5.508-6.732C250.92,278.496,238.068,257.688,238.068,257.688z"/>
	<path d="M263.16,64.908l6.12,3.06l-25.092,18.36l8.568-0.612l-28.764,20.808l52.02-23.868l-8.568-2.448l28.152-14.076
		c0,0-7.956-2.448-9.792-7.956c-1.836-5.508,25.704,2.448,67.32,26.316c41.616,23.868,27.54,108.324,34.272,155.448
		c2.447,17.136,33.659,37.944,33.659,37.944s-14.075-21.42-19.584-40.392c-5.508-19.584,7.956-65.484-19.584-126.072
		c-26.928-62.424-80.172-65.484-80.172-65.484c-22.032-6.12-31.212,8.568-31.212,8.568C273.564,57.564,263.16,64.908,263.16,64.908z
		"/>
	<path d="M333.54,105.3c29.376,7.956,48.348,76.5,47.736,57.528c-0.612-19.584-13.465-57.528-26.316-71.604
		c-13.464-14.076-52.02-30.6-55.692-29.376c-3.671,1.836,6.12,5.508,6.12,5.508l-22.644,9.792l7.344,3.672l-44.064,18.36
		l53.856-17.748l2.448-3.672c0,0,4.284,2.448,0,7.956C297.432,91.224,304.164,97.344,333.54,105.3z"/>
	<path d="M419.22,282.168c0,0-22.032-16.524-29.376-28.152s-14.076-66.096-11.628-78.336c0,0-22.644-42.228-32.436-52.632
		c-9.792-10.404-38.557-20.196-44.064-23.868c-5.508-4.284-7.956-12.24-7.956-12.24l-35.496,10.404c0,0,7.956-1.836,17.748,3.672
		c9.792,5.508,26.316,27.54,35.496,36.108c8.568,8.568,10.404,10.404,17.748,10.404s18.36,15.912,18.36,15.912
		s-9.792-8.568-17.748-10.404s-2.448,6.12-2.448,6.12s-1.836,15.3,7.344,21.42c8.568,6.12,19.584,0.612,19.584,0.612
		s-10.403-8.568-9.792-12.24c0.612-3.672,0.612-3.672,0.612-3.672s-1.836,7.956,7.344,4.284c9.181-3.672,10.404-14.076,14.076,7.956
		c3.061,20.808,8.568,77.724,13.464,85.68c-12.852,0-27.54,6.731-44.063,23.868c0,0-3.672,9.18-7.956,19.584
		c-0.612-3.06,2.448-26.316,2.448-26.316c18.972-15.912,20.808-41.616,20.808-41.616c-10.404,40.392-57.528,56.916-57.528,56.916
		c-17.748,6.12-29.988-8.568-29.988-8.568c14.076,20.196,36.72,10.404,36.72,10.404c11.628,13.464,0,36.108,0,36.108
		s9.18-6.12,17.136-12.24c-17.748,14.076-65.484,53.856-77.724,62.424c-14.688,10.404-70.38,39.78-75.276,76.5
		c-2.448,17.748-3.672,26.929-4.284,31.824c-2.448-4.896-4.896-9.792-4.896-14.688c0-12.24,6.732-55.08,28.152-77.112
		c8.568,0,20.196-2.448,31.212-11.628l15.912-14.688l-4.284,15.912l17.136-21.42c0,0-19.584-5.508-22.644-18.36
		c0,0,1.224,14.688-5.508,18.36l11.628-3.672c0,0-22.644,21.42-41.004,23.868c-18.36,2.448,2.448,5.508,7.956,3.672
		c0,0-0.612,0.612-1.836,1.224c-4.896,2.448-17.136,8.568-25.704,5.509c0,0,6.12,2.447,14.688,2.447
		c-17.748,14.688-44.676,46.513-26.928,100.368l-0.612,0.612c0,0,18.36,54.468,75.276,70.38l23.868,9.18
		c0,0-10.404-10.403-17.748-22.644c23.256-11.628,104.04-58.141,77.112-134.641c0,0,10.404,84.456-79.56,127.296l-0.612,2.448
		c-1.224-2.448-2.448-4.896-3.06-7.344c-5.508-17.136-59.364-97.92,93.636-221.544c-1.837,7.344-3.061,14.076-1.837,18.36
		c0,0,9.181-44.676,20.196-55.08c17.748-16.524,67.32-55.08,112.608,74.052c0,0-14.688-57.528-43.452-84.456
		C412.488,278.496,415.548,280.332,419.22,282.168z M323.136,321.336l0.612-4.896c0.612-0.612,1.224-1.224,1.224-1.224
		C324.36,317.052,323.748,319.5,323.136,321.336z"/>
	<path d="M406.98,235.044c4.283,7.956,11.628,32.436,17.747,39.78c6.12,7.344,16.524,44.064,16.524,44.064
		s15.912-43.452,4.284-68.544c-11.628-25.704-29.376-44.063-29.376-57.528c0-13.464-10.404-55.692-29.376-79.56
		c0,0,17.748,54.468,17.748,76.5C404.532,211.788,402.084,227.088,406.98,235.044z"/>
	<path d="M225.216,325.008l-6.12,2.448c-15.3-11.628-37.944-60.588-37.944-60.588l-15.3-14.076
		c12.24,30.6,48.348,88.128,58.14,101.592c9.792,13.464,28.152,9.792,28.152,9.792l-17.748-11.016
		c1.836,1.224,9.18,4.284,25.704,0.612c20.196-4.284,18.36-13.464,18.36-13.464c-6.12,7.956-17.748,6.732-29.376,7.344
		C230.112,348.264,225.216,325.008,225.216,325.008z"/>
	<path d="M281.52,334.8c0,0,2.448,2.448-0.612,8.568c0,0,21.42-16.524,20.195-24.48c-0.611-7.956-1.836-18.36-1.836-18.36
		s-22.032,15.912-41.616-11.628c0,0,3.672,45.9,0,52.632C257.652,342.144,267.444,347.04,281.52,334.8z"/>
	<path d="M365.364,206.892c-6.12,1.836-11.628-5.508-11.628-5.508l0.611,21.42c0,0,2.448-8.568,6.12-12.24
		C362.304,208.728,364.14,207.504,365.364,206.892z"/>
	<path d="M365.364,206.892c0.611,0,1.836-0.612,2.448-1.224C367.812,206.28,367.2,206.28,365.364,206.892z"/>
	<path d="M335.988,507.384c2.447-37.332-7.956-103.428-7.956-103.428c-9.181-9.18-6.732-41.004-6.732-41.004
		c-5.508,11.628-5.508,34.272-5.508,34.272L306,380.7c-1.224,6.732,13.464,25.092,15.912,34.272
		c2.448,9.18,6.731,88.739,6.731,113.831s7.956,56.916,7.956,56.916C339.048,569.808,333.54,544.716,335.988,507.384z"/>
	<path d="M453.492,361.728l-4.896-9.18c0,0-7.956,119.34-17.136,146.88s-18.36,71.604-17.136,83.232
		c1.224,11.628,1.224,11.628,1.224,11.628s11.628-71.604,22.644-91.188c0,0,18.36-102.203,18.36-113.832
		C456.552,377.64,453.492,361.728,453.492,361.728z"/>
	<path d="M290.088,372.744c-13.464,11.628-33.048,21.42-33.048,21.42s31.824-7.956,39.78-19.584
		c7.957-11.628,23.868-39.78,23.868-39.78S302.94,360.504,290.088,372.744z"/>
</g>
</svg>
