<?xml version="1.0" encoding="utf-8"?>
<!-- Generator: Adobe Illustrator 16.0.0, SVG Export Plug-In . SVG Version: 6.00 Build 0)  -->
<!DOCTYPE svg PUBLIC "-//W3C//DTD SVG 1.1//EN" "http://www.w3.org/Graphics/SVG/1.1/DTD/svg11.dtd">
<svg version="1.1"
	 id="Layer_1" xmlns:cc="http://creativecommons.org/ns#" xmlns:dc="http://purl.org/dc/elements/1.1/" xmlns:rdf="http://www.w3.org/1999/02/22-rdf-syntax-ns#"
	 xmlns="http://www.w3.org/2000/svg" xmlns:xlink="http://www.w3.org/1999/xlink" x="0px" y="0px" width="612px" height="792px"
	 viewBox="0 0 612 792" enable-background="new 0 0 612 792" xml:space="preserve">
<path color-rendering="auto" image-rendering="auto" shape-rendering="auto" d="M114.095,25.321c-4.225,0-7.65,3.425-7.65,7.65
	v576.498c0,4.226,3.425,7.65,7.65,7.65H471.16c35.288,0,64.762-25.644,64.762-58.367V83.699c0-32.723-29.475-58.379-64.762-58.379
	L114.095,25.321L114.095,25.321z M121.745,40.622h39.421v75.937l64.26-24.349l64.26,24.349V40.622h181.471
	c27.995,0,49.462,19.603,49.462,43.079v475.053c0,23.476-21.467,43.066-49.462,43.066H121.742V40.623L121.745,40.622z
	 M289.684,176.853c-9.358,0-16.89,7.531-16.89,16.89v62.418h-84.125c-9.358,0-16.89,7.531-16.89,16.89v63.605
	c0,9.358,7.531,16.89,16.89,16.89h84.125v168.6c0,9.358,7.531,16.89,16.89,16.89h62.993c9.358,0,16.902-7.531,16.902-16.89v-168.6
	h84.113c9.357,0,16.89-7.531,16.89-16.89V273.05c0-9.358-7.531-16.89-16.89-16.89h-84.113v-62.418c0-9.358-7.544-16.89-16.901-16.89
	H289.684L289.684,176.853z"/>
</svg>
