<?xml version="1.0" encoding="utf-8"?>
<!-- Generator: Adobe Illustrator 16.0.0, SVG Export Plug-In . SVG Version: 6.00 Build 0)  -->
<!DOCTYPE svg PUBLIC "-//W3C//DTD SVG 1.1//EN" "http://www.w3.org/Graphics/SVG/1.1/DTD/svg11.dtd">
<svg version="1.1" id="Layer_1" xmlns="http://www.w3.org/2000/svg" xmlns:xlink="http://www.w3.org/1999/xlink" x="0px" y="0px"
	 width="612px" height="792px" viewBox="0 0 612 792" enable-background="new 0 0 612 792" xml:space="preserve">
<g>
	<path d="M154.153,253.476h366.212c20.096,0,36.605,16.502,36.605,36.605v238.118c0,20.103-16.503,36.604-36.605,36.604H91.634
		c-20.102,0-36.604-16.51-36.604-36.604V290.081c0-20.095,16.51-36.605,36.604-36.605l0,0H154.153 M456.401,294.938
		c8.688,0,15.729,7.041,15.729,15.736c0,8.688-7.041,15.729-15.729,15.729c-8.695,0-15.736-7.041-15.736-15.729
		C440.665,301.979,447.706,294.938,456.401,294.938z M403.801,294.938c8.688,0,15.735,7.041,15.735,15.736
		c0,8.688-7.047,15.729-15.735,15.729c-8.696,0-15.736-7.041-15.736-15.729C388.064,301.979,395.104,294.938,403.801,294.938z
		 M351.199,294.938c8.695,0,15.736,7.041,15.736,15.736c0,8.688-7.041,15.729-15.736,15.729s-15.736-7.041-15.736-15.729
		C335.463,301.979,342.504,294.938,351.199,294.938z M322.69,348.341h162.22c13.843,0,25.104,11.262,25.104,25.097v83.083
		c0,13.843-11.262,25.104-25.104,25.104H322.69c-13.835,0-25.097-11.262-25.097-25.104v-83.083
		C297.594,359.603,308.855,348.341,322.69,348.341L322.69,348.341z M482.828,375.527H324.779v78.912h158.049V375.527z
		 M180.812,326.757c48.719,0,88.223,39.503,88.223,88.223c0,48.719-39.503,88.223-88.223,88.223
		c-48.72,0-88.223-39.504-88.223-88.223C92.589,366.261,132.092,326.757,180.812,326.757L180.812,326.757z M180.812,353.943
		c-33.713,0-61.037,27.323-61.037,61.037c0,33.713,27.324,61.036,61.037,61.036c33.713,0,61.037-27.323,61.037-61.036
		C241.848,381.267,214.524,353.943,180.812,353.943z M520.365,280.662H91.634c-5.219,0-9.418,4.2-9.418,9.419v238.118
		c0,5.227,4.2,9.419,9.418,9.419h428.731c5.227,0,9.419-4.192,9.419-9.419V290.081C529.784,284.861,525.592,280.662,520.365,280.662
		z"/>
</g>
</svg>
