<?xml version="1.0" encoding="utf-8"?>
<!-- Generator: Adobe Illustrator 16.0.0, SVG Export Plug-In . SVG Version: 6.00 Build 0)  -->
<!DOCTYPE svg PUBLIC "-//W3C//DTD SVG 1.1//EN" "http://www.w3.org/Graphics/SVG/1.1/DTD/svg11.dtd">
<svg version="1.1"
	 id="Layer_1" xmlns:sodipodi="http://sodipodi.sourceforge.net/DTD/sodipodi-0.dtd" xmlns:inkscape="http://www.inkscape.org/namespaces/inkscape" xmlns:cc="http://creativecommons.org/ns#" xmlns:dc="http://purl.org/dc/elements/1.1/" xmlns:svg="http://www.w3.org/2000/svg" xmlns:rdf="http://www.w3.org/1999/02/22-rdf-syntax-ns#"
	 xmlns="http://www.w3.org/2000/svg" xmlns:xlink="http://www.w3.org/1999/xlink" x="0px" y="0px" width="612px" height="792px"
	 viewBox="0 0 612 792" enable-background="new 0 0 612 792" xml:space="preserve">
<g transform="translate(0,-952.36218)">
	<path d="M299.591,1002.589c-6.308,0.594-11.12,5.904-11.092,12.24v33.851c-85.955,19.927-150.297,96.429-151.661,187.999
		l-52.02,103.658c-2.978,6.069-0.471,13.403,5.598,16.38c0.046,0.022,0.093,0.045,0.14,0.067l44.753,21.611v96.198
		c0,6.761,5.48,12.24,12.24,12.24h80.325v42.075c0,6.76,5.48,12.24,12.24,12.24h185.512c6.76,0,12.239-5.48,12.239-12.24v-123.548
		c74.76-46.948,100.852-128.527,87.02-201.578c-13.709-72.398-66.631-137.864-147.646-155.486v-33.469
		c0-6.76-5.479-12.24-12.239-12.24h-64.261C300.356,1002.571,299.974,1002.571,299.591,1002.589z M377.238,1073.542
		c68.103,17.012,111.754,72.545,123.548,134.832c12.525,66.148-10.72,138.472-81.281,179.584c-3.763,2.172-6.092,6.175-6.12,10.519
		v118.192H252.353v-42.075c0-6.761-5.48-12.239-12.24-12.239h-80.325v-91.609c0.033-4.715-2.645-9.03-6.885-11.093l-40.545-19.507
		l47.621-94.86c0.877-1.717,1.336-3.618,1.339-5.546c0-79.528,53.979-146.259,127.181-165.814v101.745
		c-22.001,14.5-36.529,39.48-36.529,67.702c0,44.604,36.358,81.09,80.898,81.09c44.592,0,80.899-36.5,80.899-81.09
		c0-28.24-14.496-53.262-36.529-67.702V1073.542L377.238,1073.542z M332.868,1211.625c17.43,0,31.748,14.317,31.748,31.748
		c0,17.431-14.318,31.939-31.748,31.939s-31.747-14.509-31.747-31.939C301.121,1225.943,315.438,1211.625,332.868,1211.625z"/>
	<path d="M332.861,1236.084c4.172,0,7.34,3.167,7.34,7.338c0,4.171-3.168,7.336-7.34,7.336"/>
</g>
</svg>
