<?xml version="1.0" encoding="utf-8"?>
<!-- Generator: Adobe Illustrator 16.0.0, SVG Export Plug-In . SVG Version: 6.00 Build 0)  -->
<!DOCTYPE svg PUBLIC "-//W3C//DTD SVG 1.1//EN" "http://www.w3.org/Graphics/SVG/1.1/DTD/svg11.dtd">
<svg version="1.1" id="Layer_1" xmlns="http://www.w3.org/2000/svg" xmlns:xlink="http://www.w3.org/1999/xlink" x="0px" y="0px"
	 width="612px" height="792px" viewBox="0 0 612 792" enable-background="new 0 0 612 792" xml:space="preserve">
<title>Jazz</title>
<desc>Created with Sketch.</desc>
<g transform="translate(-552.000000, -110.000000)">
	<path d="M861.151,217.753l2.389-27.438c0-44.357,35.958-80.315,80.315-80.315h98.164c14.785,0,26.771,11.986,26.771,26.772
		s-11.986,26.772-26.771,26.772h-88.687c-14.786,0-26.772,11.986-26.772,26.771c0.001,0.137,2.219,144.366,6.654,432.688
		c1.009,65.587-51.342,119.574-116.929,120.583c-0.914,0.012-0.914,0.012-1.827,0.014c-68.448,0-126.479-50.33-136.159-118.09
		l-10.335-72.346l-18.733-9.366c-8.816-4.408-12.39-15.129-7.982-23.946c1.214-2.428,2.966-4.547,5.123-6.195l121.539-92.941
		c7.83-5.988,19.031-4.494,25.02,3.336c3.119,4.08,4.331,9.306,3.324,14.342l-3.995,19.971L807.713,582
		c0.707,5.651,5.511,9.893,11.207,9.893c5.469,0,10.03-4.182,10.503-9.63l6.098-70.052h-10.642c0.001,4.883-3.929,8.869-8.824,8.923
		c-4.928,0.055-8.968-3.896-9.023-8.823l-0.198-17.849c-0.055-4.928,3.896-8.968,8.824-9.022s8.968,3.896,9.022,8.824l0.001,0.099
		h12.394l2.33-26.772h-14.526c0.001,4.883-3.929,8.869-8.824,8.923c-4.928,0.055-8.968-3.896-9.023-8.824l-0.198-17.848
		c-0.055-4.928,3.896-8.968,8.824-9.023c4.928-0.055,8.968,3.896,9.022,8.824l0.001,0.1h16.277l2.333-26.804
		c-0.251,0.021-0.505,0.032-0.762,0.032h-17.65c0.001,4.883-3.929,8.869-8.824,8.923c-4.928,0.055-8.968-3.896-9.023-8.824
		l-0.198-17.848c-0.055-4.929,3.896-8.968,8.824-9.022c4.928-0.055,8.968,3.896,9.022,8.824l0.001,0.099h17.848
		c0.791,0,1.558,0.103,2.288,0.296l7.017-80.611h-9.106c0.001,4.883-3.929,8.869-8.824,8.924c-4.928,0.055-8.968-3.896-9.023-8.824
		l-0.198-17.848c-0.055-4.928,3.896-8.968,8.825-9.022c4.928-0.055,8.967,3.896,9.022,8.824l0.001,0.099h10.857l2.33-26.772h-12.989
		c0.001,4.883-3.929,8.869-8.824,8.923c-4.928,0.055-8.968-3.896-9.023-8.824l-0.198-17.848c-0.055-4.928,3.896-8.968,8.825-9.022
		c4.928-0.055,8.967,3.896,9.022,8.824l0.001,0.1h14.742l2.33-26.772h-16.874c0.001,4.883-3.929,8.869-8.824,8.923
		c-4.928,0.055-8.968-3.896-9.023-8.824l-0.198-17.848c-0.055-4.928,3.896-8.968,8.825-9.023s8.967,3.896,9.022,8.824l0.001,0.1
		h17.847C860.639,217.721,860.896,217.731,861.151,217.753z M890.865,208.163c5.613,187.091,7.83,325.371,6.654,414.84
		c-0.527,40.077-10.52,70.348-29.975,90.812c32.555-16.816,48.494-47.087,47.822-90.812c-4.436-288.321-6.654-432.55-6.654-432.688
		c0-21.756,14.689-33.654,44.066-35.696C908.422,154.62,890.865,163.806,890.865,208.163z M806.644,608.502
		c-9.878-6.47-15.424-14.566-16.64-24.288l-15.813-126.51l4.562-22.811l-17.848,17.848c8.857,76.133,14.335,121.42,16.433,135.861
		C779.436,603.043,789.205,609.676,806.644,608.502z"/>
</g>
</svg>
