<?xml version="1.0" encoding="utf-8"?>
<!-- Generator: Adobe Illustrator 16.0.0, SVG Export Plug-In . SVG Version: 6.00 Build 0)  -->
<!DOCTYPE svg PUBLIC "-//W3C//DTD SVG 1.1//EN" "http://www.w3.org/Graphics/SVG/1.1/DTD/svg11.dtd">
<svg version="1.1" id="Layer_1" xmlns="http://www.w3.org/2000/svg" xmlns:xlink="http://www.w3.org/1999/xlink" x="0px" y="0px"
	 width="612px" height="792px" viewBox="0 0 612 792" enable-background="new 0 0 612 792" xml:space="preserve">
<g>
	<path d="M117.841,372.414c2.888,6.842,7.16,0.324,9.945-8.127c4.063-11.971,12.828-27.583,17.534-35.594
		c4.707-8.023,4.92-16.041,5.024-22.24s-0.752-24.272,11.757-42.552c12.827-16.573,29.504-28.011,49.18-33.789
		s80.184-19.456,150.742-9.192c70.563,10.263,87.455,37.846,93.446,52.387c5.985,14.542,4.486,31.861,4.271,40.417
		c-0.214,8.556,1.922,11.12,5.992,15.612c11.334,14.963,14.963,26.512,20.74,41.91s8.55,16.891,11.12,6.916
		c14.247-60.435,5.129-88.097-5.704-125.729c-10.832-37.632-35.674-64.963-35.674-64.963c20.955-11.653,22.339-27.479,22.339-27.479
		c-10.478,7.057-26.084,4.706-26.084,4.706c56.23-20.098,49.603-73.336,49.603-73.336c-28.226,21.384-64.578,26.083-64.578,26.083
		c18.819-7.699,24.376-21.805,24.376-21.805c-33.14,10.477-71.843,9.834-96.011,7.271c-24.155-2.564-42.76-13.256-66.922-14.755
		c-24.162-1.5-38.489-3.421-73.979,6.842c-54.438,15.74-61.689,63.721-61.689,63.721s-6.096,1.922-12.081,7.907
		c-5.992,5.991-28.079,27.938-35.068,58.305c-6.989,30.361-9.406,64.75-8.978,79.615c0.429,14.859,3.421,31.646,4.596,42.975
		C112.92,358.839,114.952,365.571,117.841,372.414z"/>
	<path d="M491.381,397.75h-19.67c-0.109,0-0.214,0.031-0.324,0.037c-2.533-40.221-35.869-72.087-76.727-72.087
		c-26.763,0-50.324,13.672-64.113,34.4c-8.635-5.3-24.547-5.22-24.547-5.22s-15.912-0.086-24.547,5.22
		c-13.794-20.729-37.35-34.4-64.113-34.4c-40.857,0-74.199,31.867-76.726,72.087c-0.11-0.006-0.208-0.037-0.318-0.037h-19.67
		c-5.551,0-10.049,4.498-10.049,10.056c0,5.557,4.498,10.049,10.049,10.049h19.67c0.532,0,1.046-0.079,1.561-0.159
		c6.989,35.318,38.122,61.959,75.484,61.959c42.51,0,76.978-34.468,76.978-76.978c0-5.435-0.575-10.722-1.646-15.833
		c1.585-1.144,5.117-2.448,13.335-2.448c8.213,0,11.744,1.31,13.33,2.448c-1.065,5.11-1.646,10.398-1.646,15.833
		c0,42.51,34.468,76.978,76.978,76.978c37.362,0,68.494-26.641,75.483-61.959c0.515,0.086,1.028,0.159,1.567,0.159h19.669
		c5.545,0,10.056-4.492,10.056-10.049C501.442,402.248,496.926,397.75,491.381,397.75z M280.467,390.376
		c0.374,1.86-0.826,3.647-2.681,4.021c-1.854,0.374-3.66-0.832-4.027-2.687c-0.373-1.854,0.838-3.654,2.687-4.021
		C278.307,387.322,280.1,388.521,280.467,390.376z M276.795,378.16c0.728,1.75-0.098,3.739-1.848,4.468
		c-1.75,0.728-3.746-0.104-4.474-1.854c-0.729-1.75,0.11-3.746,1.854-4.468C274.072,375.59,276.073,376.416,276.795,378.16z
		 M266.061,365.957c1.573-1.053,3.696-0.63,4.743,0.942c1.053,1.573,0.63,3.69-0.942,4.743c-1.573,1.052-3.696,0.63-4.749-0.949
		C264.066,369.127,264.488,367.003,266.061,365.957z M156.562,377.903c0.722-1.75,2.717-2.595,4.461-1.861
		c1.763,0.729,2.583,2.724,1.86,4.474c-0.728,1.744-2.729,2.564-4.468,1.842C156.666,381.63,155.833,379.629,156.562,377.903z
		 M152.835,390.1c0.367-1.86,2.16-3.072,4.015-2.692c1.867,0.373,3.066,2.167,2.693,4.021c-0.374,1.861-2.173,3.054-4.021,2.687
		C153.661,393.742,152.455,391.937,152.835,390.1z M151.556,402.787c0-1.891,1.518-3.439,3.409-3.421
		c1.903-0.007,3.434,1.523,3.434,3.421c0,1.891-1.536,3.415-3.421,3.415C153.08,406.202,151.543,404.666,151.556,402.787z
		 M152.78,415.486c-0.374-1.849,0.82-3.66,2.674-4.021c1.867-0.373,3.666,0.832,4.039,2.688c0.367,1.859-0.844,3.653-2.687,4.014
		C154.94,418.54,153.135,417.328,152.78,415.486z M156.452,427.701c-0.728-1.744,0.092-3.745,1.842-4.467
		c1.756-0.729,3.751,0.104,4.479,1.854c0.716,1.751-0.116,3.746-1.854,4.462C159.169,430.271,157.167,429.439,156.452,427.701z
		 M167.186,439.905c-1.579,1.052-3.708,0.63-4.743-0.937c-1.053-1.573-0.637-3.696,0.93-4.743c1.579-1.065,3.703-0.637,4.755,0.937
		C169.181,436.734,168.753,438.858,167.186,439.905z M168.294,370.461c-1.059,1.573-3.176,1.983-4.743,0.942
		c-1.579-1.059-1.995-3.188-0.949-4.737c1.047-1.579,3.176-2.014,4.737-0.955C168.924,366.771,169.34,368.888,168.294,370.461z
		 M175.35,448.834c-1.34,1.347-3.513,1.347-4.834,0.006c-1.34-1.328-1.347-3.488-0.006-4.828c1.34-1.353,3.507-1.353,4.847-0.013
		C176.685,445.346,176.678,447.506,175.35,448.834z M175.552,361.661c-1.34,1.334-3.507,1.328-4.841,0
		c-1.34-1.346-1.334-3.513-0.006-4.835c1.334-1.346,3.507-1.358,4.841-0.012C176.893,358.154,176.886,360.327,175.552,361.661z
		 M185.1,456.007c-1.053,1.579-3.183,2.001-4.737,0.948c-1.573-1.047-2.007-3.164-0.955-4.736c1.053-1.586,3.176-2.002,4.749-0.955
		C185.73,452.316,186.146,454.439,185.1,456.007z M184.396,354.439c-1.579,1.046-3.696,0.618-4.743-0.942
		c-1.052-1.579-0.624-3.708,0.937-4.743c1.573-1.052,3.709-0.643,4.749,0.937C186.391,351.263,185.962,353.393,184.396,354.439z
		 M196.061,461.142c-0.729,1.744-2.736,2.582-4.468,1.854c-1.75-0.717-2.583-2.712-1.86-4.462c0.728-1.757,2.723-2.589,4.474-1.866
		C195.956,457.39,196.776,459.397,196.061,461.142z M194.475,349.084c-1.75,0.716-3.745-0.116-4.467-1.854
		c-0.722-1.756,0.116-3.757,1.842-4.467c1.75-0.729,3.764,0.092,4.474,1.842C197.052,346.367,196.219,348.362,194.475,349.084z
		 M203.79,466.723c-1.854-0.367-3.06-2.16-2.693-4.015c0.373-1.866,2.167-3.066,4.027-2.692c1.854,0.373,3.054,2.172,2.687,4.021
		C207.438,465.885,205.638,467.096,203.79,466.723z M205.406,345.792c-1.861,0.374-3.654-0.838-4.021-2.681
		c-0.367-1.86,0.838-3.666,2.681-4.027c1.86-0.374,3.672,0.826,4.033,2.681C208.465,343.625,207.254,345.431,205.406,345.792z
		 M216.483,468.002c-1.891,0-3.421-1.518-3.427-3.421c0-1.897,1.53-3.428,3.421-3.428s3.421,1.536,3.421,3.421
		C219.898,466.472,218.362,468.008,216.483,468.002z M216.764,344.702c-1.891,0-3.421-1.53-3.421-3.427
		c0-1.891,1.53-3.421,3.421-3.421s3.421,1.53,3.421,3.421C220.191,343.172,218.662,344.702,216.764,344.702z M229.176,466.771
		c-1.854,0.373-3.654-0.82-4.021-2.681c-0.374-1.866,0.833-3.666,2.687-4.026c1.854-0.374,3.654,0.832,4.021,2.681
		C232.229,464.611,231.03,466.417,229.176,466.771z M228.123,345.847c-1.854-0.367-3.06-2.167-2.687-4.021
		c0.367-1.854,2.167-3.054,4.021-2.681c1.854,0.367,3.06,2.167,2.687,4.021C231.777,345.014,229.983,346.214,228.123,345.847z
		 M241.391,463.1c-1.75,0.723-3.739-0.092-4.468-1.842c-0.728-1.757,0.098-3.758,1.849-4.474c1.75-0.723,3.751,0.109,4.467,1.848
		C243.961,460.383,243.135,462.39,241.391,463.1z M243.509,347.34c-0.722,1.744-2.717,2.577-4.468,1.848
		c-1.75-0.716-2.577-2.717-1.854-4.467c0.729-1.744,2.729-2.577,4.468-1.849C243.405,343.594,244.231,345.589,243.509,347.34z
		 M252.658,457.114c-1.573,1.047-3.69,0.637-4.743-0.942s-0.636-3.696,0.937-4.749s3.696-0.624,4.749,0.948
		C254.647,453.95,254.225,456.067,252.658,457.114z M253.839,353.649c-1.046,1.573-3.17,1.995-4.743,0.943
		c-1.573-1.053-1.995-3.176-0.942-4.743c1.053-1.573,3.176-1.995,4.743-0.942C254.47,349.959,254.892,352.077,253.839,353.649z
		 M262.536,449.042c-1.34,1.341-3.495,1.347-4.834,0c-1.347-1.34-1.347-3.501-0.006-4.835c1.34-1.34,3.5-1.34,4.841,0
		C263.87,445.548,263.87,447.708,262.536,449.042z M262.738,361.863c-1.334,1.334-3.5,1.334-4.841-0.006
		c-1.34-1.334-1.334-3.5,0-4.835c1.34-1.34,3.506-1.34,4.841,0C264.072,358.356,264.072,360.522,262.738,361.863z M270.651,439.201
		c-1.053,1.572-3.17,1.995-4.743,0.942c-1.579-1.053-2.001-3.177-0.948-4.743c1.052-1.566,3.176-1.989,4.749-0.942
		C271.275,435.511,271.697,437.641,270.651,439.201z M276.685,427.965c-0.728,1.75-2.717,2.576-4.467,1.848
		c-1.75-0.716-2.577-2.717-1.854-4.467c0.728-1.738,2.723-2.57,4.474-1.843C276.581,424.226,277.407,426.221,276.685,427.965z
		 M276.392,418.454c-1.854-0.373-3.06-2.167-2.687-4.021c0.367-1.861,2.173-3.061,4.027-2.688c1.854,0.38,3.054,2.174,2.687,4.016
		C280.045,417.622,278.252,418.821,276.392,418.454z M278.276,406.49c-1.897,0.012-3.427-1.519-3.427-3.422
		c0-1.891,1.53-3.421,3.427-3.414c1.891,0,3.415,1.529,3.415,3.414C281.691,404.972,280.167,406.49,278.276,406.49z M459.165,390.1
		c0.38,1.836-0.832,3.642-2.687,4.015c-1.849,0.367-3.653-0.833-4.021-2.687c-0.374-1.854,0.826-3.653,2.692-4.021
		C457.005,387.028,458.804,388.24,459.165,390.1z M455.438,377.903c0.722,1.726-0.11,3.727-1.86,4.461
		c-1.732,0.722-3.74-0.098-4.462-1.842c-0.722-1.75,0.098-3.746,1.86-4.474C452.721,375.308,454.722,376.153,455.438,377.903z
		 M341.196,366.899c1.046-1.573,3.164-1.995,4.736-0.942c1.573,1.046,2.002,3.176,0.942,4.737c-1.052,1.579-3.176,2.001-4.742,0.949
		C340.554,370.59,340.138,368.472,341.196,366.899z M335.205,378.16c0.722-1.744,2.717-2.57,4.461-1.854
		c1.75,0.722,2.576,2.717,1.854,4.468c-0.723,1.75-2.724,2.583-4.474,1.854C335.309,381.899,334.477,379.911,335.205,378.16z
		 M335.547,387.689c1.861,0.374,3.061,2.167,2.688,4.021c-0.367,1.86-2.167,3.06-4.027,2.687c-1.849-0.379-3.054-2.167-2.681-4.021
		C331.894,388.521,333.693,387.322,335.547,387.689z M330.309,403.068c0-1.885,1.523-3.414,3.421-3.414
		c1.892-0.007,3.428,1.523,3.428,3.414c0,1.903-1.53,3.434-3.428,3.422C331.832,406.49,330.309,404.972,330.309,403.068z
		 M331.588,415.762c-0.373-1.842,0.826-3.642,2.681-4.016c1.854-0.373,3.659,0.833,4.021,2.688c0.38,1.854-0.826,3.653-2.681,4.021
		C333.742,418.821,331.949,417.622,331.588,415.762z M339.788,429.807c-1.756,0.729-3.739-0.098-4.467-1.848
		c-0.723-1.738,0.109-3.733,1.848-4.462c1.744-0.729,3.752,0.104,4.468,1.842C342.359,427.09,341.539,429.091,339.788,429.807z
		 M346.092,440.144c-1.579,1.053-3.69,0.63-4.743-0.942c-1.04-1.561-0.624-3.69,0.949-4.743c1.572-1.047,3.696-0.63,4.743,0.942
		C348.087,436.974,347.671,439.091,346.092,440.144z M349.263,357.021c1.334-1.34,3.494-1.34,4.841,0
		c1.334,1.334,1.334,3.501,0,4.835c-1.347,1.34-3.507,1.34-4.848,0.006C347.922,360.522,347.922,358.356,349.263,357.021z
		 M354.299,449.042c-1.34,1.347-3.494,1.341-4.828,0c-1.341-1.334-1.341-3.494,0-4.835c1.334-1.34,3.494-1.34,4.834,0
		C355.646,445.541,355.64,447.702,354.299,449.042z M359.109,348.907c1.566-1.053,3.69-0.63,4.743,0.942
		c1.046,1.573,0.63,3.696-0.942,4.743c-1.579,1.052-3.696,0.63-4.749-0.943C357.114,352.077,357.53,349.959,359.109,348.907z
		 M364.085,456.172c-1.059,1.579-3.17,1.989-4.743,0.942c-1.566-1.047-1.989-3.17-0.942-4.743c1.053-1.572,3.177-2.001,4.743-0.948
		C364.722,452.476,365.138,454.593,364.085,456.172z M370.34,342.866c1.744-0.729,3.751,0.104,4.468,1.848
		c0.728,1.75-0.104,3.751-1.849,4.468c-1.75,0.728-3.752-0.104-4.468-1.848C367.77,345.589,368.602,343.594,370.34,342.866z
		 M375.07,461.258c-0.723,1.75-2.717,2.564-4.462,1.842c-1.744-0.71-2.57-2.717-1.854-4.468c0.722-1.738,2.717-2.57,4.467-1.848
		C374.979,457.5,375.799,459.501,375.07,461.258z M382.543,339.139c1.848-0.374,3.653,0.832,4.021,2.681
		c0.367,1.86-0.838,3.66-2.687,4.021c-1.854,0.374-3.653-0.832-4.021-2.68C379.489,341.312,380.683,339.506,382.543,339.139z
		 M382.824,466.771c-1.854-0.361-3.054-2.166-2.687-4.021c0.373-1.854,2.166-3.054,4.021-2.681c1.86,0.367,3.055,2.166,2.688,4.027
		C386.466,465.958,384.666,467.145,382.824,466.771z M395.229,337.86c1.892,0,3.421,1.53,3.421,3.421
		c0,1.897-1.529,3.427-3.421,3.427c-1.897,0-3.427-1.53-3.427-3.427C391.809,339.39,393.339,337.86,395.229,337.86z
		 M395.518,468.002c-1.886,0.006-3.415-1.53-3.422-3.428c0-1.885,1.53-3.421,3.422-3.421c1.896,0,3.421,1.53,3.421,3.428
		C398.938,466.484,397.408,468.002,395.518,468.002z M407.935,339.078c1.842,0.367,3.048,2.166,2.681,4.027
		c-0.379,1.848-2.166,3.054-4.021,2.68c-1.854-0.361-3.061-2.166-2.687-4.027C404.263,339.904,406.074,338.71,407.935,339.078z
		 M408.204,466.723c-1.849,0.38-3.642-0.838-4.015-2.687c-0.367-1.849,0.832-3.653,2.687-4.021c1.854-0.374,3.653,0.832,4.021,2.692
		C411.264,464.562,410.064,466.355,408.204,466.723z M415.677,344.604c0.716-1.75,2.724-2.571,4.474-1.842
		c1.731,0.71,2.564,2.711,1.848,4.467c-0.728,1.738-2.717,2.571-4.467,1.854C415.78,348.362,414.948,346.367,415.677,344.604z
		 M420.407,462.989c-1.738,0.729-3.745-0.11-4.468-1.854c-0.716-1.737,0.104-3.745,1.849-4.467c1.75-0.723,3.751,0.109,4.474,1.866
		C422.983,460.278,422.151,462.273,420.407,462.989z M426.668,349.69c1.034-1.585,3.177-1.989,4.743-0.937
		c1.566,1.035,1.989,3.17,0.931,4.743c-1.047,1.561-3.171,1.989-4.737,0.942S425.604,351.263,426.668,349.69z M431.638,456.955
		c-1.561,1.053-3.685,0.631-4.737-0.948c-1.046-1.567-0.63-3.69,0.942-4.743c1.579-1.047,3.696-0.631,4.749,0.955
		C433.639,453.791,433.217,455.908,431.638,456.955z M436.448,356.813c1.327-1.346,3.5-1.334,4.834,0.012
		c1.335,1.322,1.341,3.489-0.006,4.835c-1.328,1.328-3.494,1.334-4.835,0C435.102,360.327,435.107,358.154,436.448,356.813z
		 M441.484,448.84c-1.315,1.341-3.488,1.341-4.835-0.006c-1.328-1.328-1.334-3.488-0.006-4.835c1.347-1.34,3.507-1.34,4.854,0.013
		C442.831,445.346,442.818,447.512,441.484,448.84z M444.661,365.712c1.566-1.059,3.69-0.624,4.736,0.955
		c1.047,1.554,0.631,3.684-0.948,4.737c-1.566,1.04-3.69,0.63-4.743-0.942C442.659,368.888,443.076,366.771,444.661,365.712z
		 M449.551,438.969c-1.034,1.566-3.164,1.988-4.737,0.937c-1.566-1.047-1.995-3.171-0.942-4.743
		c1.059-1.573,3.177-2.002,4.756-0.937C450.199,435.272,450.609,437.396,449.551,438.969z M455.548,427.701
		c-0.71,1.738-2.717,2.57-4.467,1.849c-1.732-0.716-2.57-2.711-1.861-4.462c0.729-1.75,2.729-2.582,4.486-1.854
		C455.456,423.95,456.271,425.957,455.548,427.701z M455.199,418.166c-1.848-0.367-3.054-2.16-2.692-4.014
		c0.379-1.861,2.173-3.061,4.039-2.688c1.86,0.367,3.048,2.173,2.681,4.021C458.865,417.328,457.06,418.54,455.199,418.166z
		 M457.023,406.202c-1.885,0-3.421-1.524-3.421-3.415c0-1.897,1.523-3.428,3.427-3.421c1.897-0.019,3.421,1.53,3.421,3.421
		C460.45,404.666,458.921,406.202,457.023,406.202z"/>
</g>
</svg>
