<?xml version="1.0" encoding="utf-8"?>
<!-- Generator: Adobe Illustrator 16.0.0, SVG Export Plug-In . SVG Version: 6.00 Build 0)  -->
<!DOCTYPE svg PUBLIC "-//W3C//DTD SVG 1.1//EN" "http://www.w3.org/Graphics/SVG/1.1/DTD/svg11.dtd">
<svg version="1.1" id="Layer_1" xmlns="http://www.w3.org/2000/svg" xmlns:xlink="http://www.w3.org/1999/xlink" x="0px" y="0px"
	 width="612px" height="792px" viewBox="0 0 612 792" enable-background="new 0 0 612 792" xml:space="preserve">
<g>
	<path d="M363.375,204.75H344.25v-19.125c0-10.562-8.562-19.125-19.125-19.125S306,175.062,306,185.625v19.125h-19.125v-19.125
		c0-21.125,17.125-38.25,38.25-38.25s38.25,17.125,38.25,38.25V204.75z"/>
	<path d="M325.125,348.188c-21.125,0-38.25-17.125-38.25-38.25v-47.812H306v47.812c0,10.562,8.562,19.125,19.125,19.125
		s19.125-8.562,19.125-19.125v-47.812h19.125v47.812C363.375,331.062,346.25,348.188,325.125,348.188z"/>
	<path d="M267.75,357.75c-21.125,0-38.25-17.125-38.25-38.25V195.188c0-21.125,17.125-38.25,38.25-38.25S306,174.062,306,195.188
		v9.562h-19.125v-9.562c0-10.562-8.562-19.125-19.125-19.125s-19.125,8.562-19.125,19.125V319.5
		c0,10.562,8.562,19.125,19.125,19.125s19.125-8.562,19.125-19.125v-57.375H306V319.5C306,340.625,288.875,357.75,267.75,357.75z"/>
	
		<rect x="423.898" y="214.322" transform="matrix(-0.083 0.9965 -0.9965 -0.083 692.6033 -189.5207)" width="19.192" height="19.125"/>
	<path d="M372.564,207.37l-18.379-5.24l18.752-65.656V51.75c0-21.125,17.125-38.25,38.25-38.25s38.25,17.125,38.25,38.25v95.625
		l-4.017,48.616l-19.058-1.587l3.978-47.812l-0.028-94.841c0-10.562-8.562-19.125-19.125-19.125s-19.125,8.562-19.125,19.125v86.062
		c0.002,0.887-0.124,1.769-0.373,2.62L372.564,207.37z"/>
	<path d="M353.812,462.938c-21.125,0-38.25-17.125-38.25-38.25v-47.812c0.031-26.393,21.42-47.781,47.812-47.812
		c5.281,0,9.562-4.281,9.562-9.562v-6.914L348.4,271.688H306c-21.125,0-38.25-17.125-38.25-38.25s17.125-38.25,38.25-38.25h66.938
		c2.536,0,4.968,1.008,6.761,2.802l80.459,80.459c5.4,5.365,8.427,12.669,8.405,20.282v35.018c-0.001,4.802-1.208,9.527-3.51,13.741
		l-35.907,65.838l-16.791-9.161l35.916-65.837c0.767-1.405,1.168-2.98,1.167-4.581V298.73c-0.01-2.534-1.017-4.963-2.802-6.761
		l-77.657-77.657H306c-10.562,0-19.125,8.562-19.125,19.125s8.562,19.125,19.125,19.125h47.812c3.356,0,6.467,1.761,8.195,4.638
		l28.688,47.812c0.894,1.487,1.366,3.189,1.367,4.925v9.562c0,15.844-12.844,28.688-28.688,28.688s-28.688,12.844-28.688,28.688
		v47.812c0,10.562,8.562,19.125,19.125,19.125c33.985,0,40.631-3.442,41.271-3.825c-1.368,1.085-2.227,2.688-2.371,4.428
		c-0.29,2.279,0.507,4.563,2.151,6.168l13.521-13.521c3.333,3.349,4.322,8.375,2.505,12.737
		C407.525,457.907,396.844,462.938,353.812,462.938z"/>
	<path d="M401.625,510.75h-191.25c-5.281,0-9.562-4.281-9.562-9.562v-55.645c-0.005-5.938-1.387-11.793-4.035-17.107l-23.113-46.215
		c-7.283-14.611-11.083-30.711-11.102-47.038V319.5h19.125v15.683c0.019,13.355,3.128,26.525,9.084,38.479l23.112,46.244
		c3.966,7.965,6.038,16.739,6.053,25.637v46.082h172.125v-35.62c0.007-9.599,2.413-19.042,7-27.474l4.6-8.424l16.791,9.16
		l-4.6,8.425c-3.057,5.62-4.661,11.915-4.666,18.312v45.183C411.188,506.469,406.906,510.75,401.625,510.75z"/>
	<rect x="162.562" y="281.25" width="19.125" height="19.125"/>
	<path d="M181.688,262.125h-19.125V90c0-21.125,17.125-38.25,38.25-38.25s38.25,17.125,38.25,38.25v56.419l9.371,46.856
		l-18.742,3.749l-9.562-47.812c-0.128-0.604-0.192-1.219-0.191-1.836V90c0-10.562-8.562-19.125-19.125-19.125
		S181.688,79.438,181.688,90V262.125z"/>
	<path d="M430.312,549h-19.125v-38.25H200.812V549h-19.125v-47.812c0-5.281,4.281-9.562,9.562-9.562h229.5
		c5.281,0,9.562,4.281,9.562,9.562V549z"/>
	<path d="M420.75,625.5h-229.5c-5.281,0-9.562-4.281-9.562-9.562v-47.812h19.125v38.25h210.375v-38.25h19.125v47.812
		C430.312,621.219,426.031,625.5,420.75,625.5z"/>
	<path d="M269.557,472.5h-11.37c-40.163,0-52.508-10.299-54.573-12.364l6.761-6.761l6.359-7.144
		c0.086,0.077,9.372,7.144,41.454,7.144h11.37c10.224,0.016,20.355-1.933,29.845-5.737l31.737-12.689l7.096,17.767l-31.738,12.689
		C294.751,470.109,282.211,472.519,269.557,472.5z"/>
	<path d="M424.106,596.21l-6.693-17.92l52.603-19.728l-52.594-19.728l6.694-17.92l76.5,28.688c4.948,1.845,7.464,7.352,5.619,12.301
		c-0.969,2.6-3.02,4.65-5.619,5.619L424.106,596.21z"/>
	<path d="M187.894,596.21l-76.5-28.688c-4.949-1.845-7.464-7.352-5.62-12.301c0.969-2.6,3.02-4.65,5.62-5.619l76.5-28.688
		l6.694,17.92l-52.604,19.728l52.594,19.728L187.894,596.21z"/>
	<path d="M306,596.812c-21.125,0-38.25-17.125-38.25-38.25s17.125-38.25,38.25-38.25s38.25,17.125,38.25,38.25
		S327.125,596.812,306,596.812z M306,539.438c-10.562,0-19.125,8.562-19.125,19.125s8.562,19.125,19.125,19.125
		s19.125-8.562,19.125-19.125S316.562,539.438,306,539.438z"/>
	<path d="M392.062,596.812c-21.125,0-38.25-17.125-38.25-38.25s17.125-38.25,38.25-38.25c1.735,0.001,3.438,0.474,4.925,1.367
		l47.812,28.688c4.526,2.722,5.988,8.597,3.268,13.123c-0.806,1.34-1.928,2.462-3.268,3.268l-47.812,28.688
		C395.5,596.339,393.798,596.812,392.062,596.812z M389.662,539.591c-10.478,1.333-17.891,10.908-16.558,21.386
		c1.101,8.648,7.91,15.457,16.558,16.558l31.623-18.972L389.662,539.591z"/>
	<path d="M219.938,596.812c-1.735-0.001-3.438-0.474-4.925-1.367L167.2,566.758c-4.526-2.722-5.989-8.597-3.267-13.123
		c0.806-1.34,1.927-2.462,3.267-3.268l47.812-28.688c1.487-0.894,3.189-1.366,4.925-1.367c21.125,0,38.25,17.125,38.25,38.25
		S241.062,596.812,219.938,596.812z M190.714,558.562l31.624,18.972c10.478-1.333,17.891-10.908,16.558-21.386
		c-1.101-8.648-7.91-15.457-16.558-16.558L190.714,558.562z"/>
</g>
</svg>
