<?xml version="1.0" encoding="utf-8"?>
<!-- Generator: Adobe Illustrator 16.0.0, SVG Export Plug-In . SVG Version: 6.00 Build 0)  -->
<!DOCTYPE svg PUBLIC "-//W3C//DTD SVG 1.1//EN" "http://www.w3.org/Graphics/SVG/1.1/DTD/svg11.dtd">
<svg version="1.1" id="Layer_1" xmlns="http://www.w3.org/2000/svg" xmlns:xlink="http://www.w3.org/1999/xlink" x="0px" y="0px"
	 width="612px" height="792px" viewBox="0 0 612 792" enable-background="new 0 0 612 792" xml:space="preserve">
<g>
	<path fill="none" d="M438.118,113.195c-3.341,9.718-4.467,20.19-3.225,30.588c29.345,13.298,57.65,35.729,77.167,61.2
		c9.896-1.242,19.382-4.7,27.797-10.202c0.459-0.3,0.894-0.618,1.347-0.93C518.082,163.66,470.469,128.317,438.118,113.195z"/>
	<path fill="none" d="M451.864,84.07l-12.962,16.463c35.367,15.281,89.511,55.221,114.052,89.26l12.718-16.145
		C543.26,140.3,491.669,99.688,451.864,84.07z"/>
	<path fill="none" d="M427.494,153.458c-15.288,19.835-131.255,170.644-207.076,278.454c-11.071,15.618-11.071,15.618-9.174,23.788
		l0.667,2.877l-1.842,2.215c-2.527,3.403-22.271,38.274-32.975,57.431c-1.561,2.791-2.931,5.257-4.027,7.233l13.99,13.042
		l0.166,0.153c10.159-8.69,36.408-34.492,47.185-45.074c4.902-4.816,7.295-7.173,8.072-7.876l1.934-1.77l2.613,0.239
		c3.072,0.294,5.312,0.416,7.013,0.416c3.844,0,3.844,0,7.032-3.696c1.028-1.193,2.301-2.681,3.947-4.382
		c123.777-129.004,223.925-245.327,238.839-262.744C484.899,188.391,456.607,166.06,427.494,153.458z"/>
	<path fill="none" d="M500.524,68.568c-11.849,0-23.372,3.158-33.52,9.137c35.882,16.848,76.629,48.746,100.576,78.611
		c0.38-1.451,0.74-2.907,1.034-4.394c3.531-17.876-0.067-36.225-10.159-51.677C545.5,80.41,523.848,68.568,500.524,68.568z"/>
	<g>
		<path fill="none" d="M427.494,153.458c-15.288,19.835-131.255,170.644-207.076,278.454c-11.071,15.618-11.071,15.618-9.174,23.788
			l0.667,2.877l-1.842,2.215c-2.527,3.403-22.271,38.274-32.975,57.431c-1.561,2.791-2.931,5.257-4.027,7.233l13.99,13.042
			l0.166,0.153c10.159-8.69,36.408-34.492,47.185-45.074c4.902-4.816,7.295-7.173,8.072-7.876l1.934-1.77l2.613,0.239
			c3.072,0.294,5.312,0.416,7.013,0.416c3.844,0,3.844,0,7.032-3.696c1.028-1.193,2.301-2.681,3.947-4.382
			c123.777-129.004,223.925-245.327,238.839-262.744C484.899,188.391,456.607,166.06,427.494,153.458z"/>
		<path fill="none" d="M438.118,113.195c-3.341,9.718-4.467,20.19-3.225,30.588c29.345,13.298,57.65,35.729,77.167,61.2
			c9.896-1.242,19.382-4.7,27.797-10.202c0.459-0.3,0.894-0.618,1.347-0.93C518.082,163.66,470.469,128.317,438.118,113.195z"/>
		<path fill="none" d="M451.864,84.07l-12.962,16.463c35.367,15.281,89.511,55.221,114.052,89.26l12.718-16.145
			C543.26,140.3,491.669,99.688,451.864,84.07z"/>
		<path fill="none" d="M500.524,68.568c-11.849,0-23.372,3.158-33.52,9.137c35.882,16.848,76.629,48.746,100.576,78.611
			c0.38-1.451,0.74-2.907,1.034-4.394c3.531-17.876-0.067-36.225-10.159-51.677C545.5,80.41,523.848,68.568,500.524,68.568z"/>
		<path d="M569.215,93.225c-15.343-23.482-41.016-37.497-68.69-37.497c-15.374,0-30.282,4.437-43.128,12.828
			c-1.628,1.065-3.188,2.191-4.712,3.354c-0.667-0.128-1.322-0.196-1.959-0.196c-2.724,0-5.141,1.157-6.793,3.256l-16.757,21.279
			c-1.805,2.295-2.454,5.441-1.701,8.207c0.264,0.955,0.68,1.824,1.23,2.588c-4.156,11.12-5.845,23.128-4.891,35.123
			c-0.752,0.477-1.432,1.089-2.02,1.836c-1.267,1.646-128.036,165.846-209.083,281.073c-11.187,15.789-13.819,19.492-11.585,30.796
			c-7.993,12.729-36.433,63.739-38.715,67.956l-2.172,4.033l5.336,4.97c-9.125,9.963-22.289,19.914-38.568,19.914
			c-11.365,0-17.576-7.014-26.775-18.482c-11.891-14.822-28.183-35.116-64.064-19.498l8.684,19.938
			c20.637-8.996,26.953-1.126,38.421,13.158c9.523,11.861,21.365,26.622,43.733,26.622c23.88,0,42.204-13.593,54.444-26.873
			l0.373,0.35l6.249,5.832l3.825-2.301c5.294-3.177,24.945-22.069,52.822-49.462c2.405-2.375,4.504-4.432,5.937-5.82
			c2.148,0.159,3.898,0.238,5.392,0.238c8.837,0,11.854-2.968,16.022-7.827c0.979-1.139,2.093-2.424,3.507-3.904
			c133.881-139.518,240.161-264.25,241.226-265.498l0.129-0.171c0.38-0.483,0.716-1.028,0.991-1.634
			c11.01-1.707,21.549-5.728,30.974-11.879c0.991-0.648,1.958-1.328,2.925-2.02c0.869,0.312,1.787,0.483,2.736,0.483
			c2.692,0,5.336-1.297,7.056-3.482l16.745-21.286c1.102-1.396,3.188-5.03,0.471-10.098c1.909-4.7,3.391-9.615,4.395-14.719
			C585.415,133.226,581.149,111.5,569.215,93.225z M265.014,476.503c-1.646,1.694-2.919,3.188-3.947,4.382
			c-3.188,3.696-3.188,3.696-7.032,3.696c-1.701,0-3.941-0.129-7.014-0.416l-2.613-0.239l-1.934,1.769
			c-0.777,0.704-3.17,3.061-8.072,7.877c-10.777,10.581-37.026,36.383-47.186,45.073l-0.165-0.152l-13.99-13.042
			c1.095-1.971,2.466-4.443,4.027-7.233c10.704-19.156,30.447-54.027,32.975-57.431l1.842-2.215l-0.667-2.877
			c-1.897-8.17-1.897-8.17,9.174-23.788c75.827-107.81,191.789-258.619,207.077-278.454c29.119,12.601,57.411,34.933,76.371,60.307
			C488.945,231.182,388.798,347.505,265.014,476.503z M539.857,194.78c-8.415,5.502-17.901,8.96-27.797,10.202
			c-19.517-25.471-47.822-47.901-77.167-61.2c-1.242-10.398-0.116-20.87,3.225-30.588c32.351,15.123,79.964,50.465,103.086,80.655
			C540.745,194.163,540.316,194.48,539.857,194.78z M552.954,189.793c-24.541-34.04-78.679-73.979-114.052-89.26l12.962-16.463
			c39.805,15.618,91.396,56.23,113.808,89.578L552.954,189.793z M568.615,151.922c-0.294,1.487-0.648,2.943-1.034,4.394
			c-23.947-29.866-64.688-61.763-100.576-78.611c10.141-5.979,21.671-9.137,33.52-9.137c23.323,0,44.976,11.842,57.932,31.677
			C568.548,115.698,572.146,134.046,568.615,151.922z"/>
	</g>
</g>
</svg>
