<?xml version="1.0" encoding="utf-8"?>
<!-- Generator: Adobe Illustrator 16.0.0, SVG Export Plug-In . SVG Version: 6.00 Build 0)  -->
<!DOCTYPE svg PUBLIC "-//W3C//DTD SVG 1.1//EN" "http://www.w3.org/Graphics/SVG/1.1/DTD/svg11.dtd">
<svg version="1.1" id="Layer_1" xmlns="http://www.w3.org/2000/svg" xmlns:xlink="http://www.w3.org/1999/xlink" x="0px" y="0px"
	 width="612px" height="792px" viewBox="0 0 612 792" enable-background="new 0 0 612 792" xml:space="preserve">
<path d="M458.092,375.766l64.479-7.832l-67.59-63.75l11.933-28.61l-23.654-54.915c-5.782-13.423-3.295-23.746-47.635-44.016
	l6.847-93.733c0,0-33.46,47.401-53.373,76.27c-8.916-2.204-18.225-3.742-27.741-4.528c-14.584-31.222-35.927-79.172-35.927-79.172
	l-4.34,80.116c-8.364,1.093-16.622,2.769-24.639,5.007l-85.18-64.688l41.627,84.952c-7.576,5.395-14.413,11.604-20.236,18.692
	L89.43,198.09l82.919,48.708c-0.561,4.127-0.969,8.351-1.049,12.77c-0.14,7.815,0.259,15.354,1.026,22.662l-58.745,59.844
	l65.542-25.838c18.623,62.297,63.963,98.522,63.963,98.522l-7.784,148.764h112.546v-87.523l63.53,16.47l37.501-9.474l8.542-53.106
	l-1.425-21.038l6.935-12.822L458.092,375.766z"/>
</svg>
