<?xml version="1.0" encoding="utf-8"?>
<!-- Generator: Adobe Illustrator 16.0.0, SVG Export Plug-In . SVG Version: 6.00 Build 0)  -->
<!DOCTYPE svg PUBLIC "-//W3C//DTD SVG 1.1//EN" "http://www.w3.org/Graphics/SVG/1.1/DTD/svg11.dtd">
<svg version="1.1" id="Layer_1" xmlns="http://www.w3.org/2000/svg" xmlns:xlink="http://www.w3.org/1999/xlink" x="0px" y="0px"
	 width="612px" height="792px" viewBox="0 0 612 792" enable-background="new 0 0 612 792" xml:space="preserve">
<path d="M549.844,269.775c-2.869-16.256-8.606-31.556-14.344-46.856c-6.693-14.344-14.344-28.688-22.95-42.075
	s-19.125-25.819-30.6-36.337c-11.476-11.475-23.906-21.038-36.338-30.6c-13.388-8.606-27.731-16.256-42.075-22.95
	c-15.3-6.693-30.6-11.475-46.855-14.344c-17.213-3.825-33.469-5.737-50.682-5.737c-17.212,0-33.469,1.913-49.725,4.781
	S224.719,84.263,209.419,90c-14.344,6.694-28.688,14.344-42.075,22.95c-13.388,8.606-25.819,19.125-36.337,30.6
	c-11.475,11.475-21.038,23.906-30.6,36.338c-8.606,13.387-16.256,27.731-22.95,42.075c-6.693,15.3-11.475,30.6-14.344,46.856
	c-3.825,17.212-5.737,33.469-5.737,50.681s1.913,33.469,4.781,49.725s8.606,31.556,14.344,46.856
	c6.694,14.344,14.344,28.688,22.95,42.075c8.606,13.388,19.125,25.818,30.6,36.338c11.475,11.475,23.906,21.037,36.338,30.6
	c13.387,8.606,27.731,16.256,42.075,22.95c15.3,6.693,30.6,11.475,46.856,14.344c16.256,3.825,33.469,4.781,49.725,4.781
	c17.212,0,33.469-1.913,49.725-4.781c16.257-2.869,31.557-8.606,46.856-14.344c14.344-6.694,28.688-14.344,42.075-22.95
	s25.818-19.125,36.337-30.6c11.476-11.476,21.038-23.906,30.601-36.338c8.606-13.388,16.256-27.731,22.95-42.075
	c6.693-15.3,11.475-30.6,14.344-46.856c3.824-16.256,4.781-33.469,4.781-49.725C554.625,302.288,552.713,286.031,549.844,269.775z
	 M96.581,319.5c0-108.056,83.194-197.944,189.338-208.462v198.9L129.094,430.425C109.013,397.912,96.581,359.663,96.581,319.5z
	 M153,461.981l132.919-102.319v168.3C233.325,522.225,186.469,498.318,153,461.981z M326.081,527.963v-168.3L459,461.981
	C425.531,498.318,378.675,522.225,326.081,527.963z M482.906,430.425L326.081,309.938v-198.9
	c106.144,9.562,189.338,99.45,189.338,208.462C515.419,359.663,502.987,397.912,482.906,430.425z"/>
<path d="M577.575,264.038c-3.825-18.169-8.606-35.381-16.257-51.638c-6.693-17.212-15.3-33.469-25.818-47.812
	c-9.562-14.344-21.037-28.688-33.469-41.119S476.213,99.562,460.912,90c-15.3-9.562-30.6-18.169-46.855-25.819
	c-17.213-6.694-34.426-12.431-51.638-16.256C343.294,44.1,325.125,42.188,306,42.188s-37.294,1.913-55.462,5.737
	c-18.169,3.825-35.381,8.606-51.638,16.256c-17.212,6.694-33.469,15.3-47.812,25.819c-14.344,9.562-28.688,21.038-41.119,33.469
	S86.062,149.288,76.5,164.587c-9.562,15.3-18.169,30.6-25.819,46.856c-6.694,17.212-12.431,34.425-16.256,51.637
	c-3.825,19.125-5.737,37.294-5.737,56.419s1.913,37.294,5.737,55.462c3.825,18.169,8.606,35.381,16.256,51.637
	c6.694,17.213,15.3,33.469,25.819,47.812c9.562,14.344,21.038,28.688,33.469,41.119s26.775,23.906,41.119,33.469
	c15.3,9.562,30.6,18.169,46.856,25.818c17.212,6.694,34.425,12.432,51.637,16.257c19.125,3.825,37.294,5.737,56.419,5.737
	s37.294-1.912,55.463-5.737c18.168-3.825,35.381-8.606,51.637-16.257c16.257-6.693,32.513-15.3,46.856-25.818
	c14.344-9.562,28.688-21.037,41.119-33.469c12.431-12.432,23.906-26.775,33.469-41.119c9.562-15.3,18.169-30.6,25.818-46.855
	c6.694-17.213,12.432-34.425,16.257-51.638c4.781-19.125,6.693-37.294,6.693-56.419S581.4,282.206,577.575,264.038z M306,583.425
	c-145.35,0-263.925-118.575-263.925-263.925C42.075,174.15,160.65,55.575,306,55.575c145.35,0,263.925,118.575,263.925,263.925
	C569.925,464.85,451.35,583.425,306,583.425z"/>
</svg>
