<?xml version="1.0" encoding="utf-8"?>
<!-- Generator: Adobe Illustrator 16.0.0, SVG Export Plug-In . SVG Version: 6.00 Build 0)  -->
<!DOCTYPE svg PUBLIC "-//W3C//DTD SVG 1.1//EN" "http://www.w3.org/Graphics/SVG/1.1/DTD/svg11.dtd">
<svg version="1.1" id="Layer_1" xmlns="http://www.w3.org/2000/svg" xmlns:xlink="http://www.w3.org/1999/xlink" x="0px" y="0px"
	 width="612px" height="792px" viewBox="0 0 612 792" enable-background="new 0 0 612 792" xml:space="preserve">
<title>music-melody-sound-guitar-audio-artistic-piano</title>
<g>
	<path d="M301.448,381.656c0-31.793-25.773-57.566-57.566-57.566s-57.566,25.773-57.566,57.566s25.773,57.566,57.566,57.566
		C275.66,439.186,301.411,413.434,301.448,381.656z M205.441,381.656c0-21.23,17.21-38.441,38.441-38.441
		s38.441,17.211,38.441,38.441s-17.211,38.441-38.441,38.441C222.66,420.076,205.462,402.878,205.441,381.656L205.441,381.656z"/>
	<path d="M38.872,458.156c-3.976-33.597,7.098-67.232,30.256-91.896c23.264-24.013,55.953-36.516,89.304-34.157
		c0.172,0,1.119,0.124,1.271,0.124c0.669,0.096,1.33,0.191,1.989,0.239c4.805,0.391,9.149-2.855,10.136-7.574
		c3.423-16.719,11.687-32.062,23.763-44.121c0.432-0.422,0.817-0.891,1.147-1.396c12.125-11.224,28.097-17.365,44.619-17.155
		c21.409,0.332,41.825,9.082,56.83,24.355l40.736,40.736c29.462,29.472,32.513,74.53,7.229,101.362
		c-0.512,0.347-0.988,0.74-1.425,1.177c-9.099,9.188-20.163,16.19-32.359,20.482l6.388,18.016
		c14.231-5.003,27.209-13.032,38.039-23.533c0.57-0.366,1.099-0.793,1.578-1.271c32.561-32.513,31.556-87.019-1.023-124.427
		l171.331-181.592l8.014-6.234l5.909,5.91c3.67,3.798,9.724,3.903,13.521,0.234c3.799-3.669,3.904-9.723,0.234-13.521
		c-0.076-0.08-0.154-0.158-0.234-0.234l-4.217-4.217l15.3-11.934l9.305,9.304c3.669,3.798,9.723,3.903,13.521,0.234
		s3.903-9.723,0.234-13.521c-0.077-0.08-0.155-0.158-0.234-0.234l-7.65-7.65l6.694-5.231c4.176-3.232,4.941-9.238,1.709-13.415
		c-0.253-0.327-0.526-0.638-0.82-0.929L549.231,35.36c-1.91-1.911-4.551-2.908-7.248-2.735c-2.736,0.171-5.269,1.508-6.952,3.672
		l-5.23,6.694l-7.65-7.65c-3.798-3.669-9.852-3.564-13.521,0.234c-3.579,3.706-3.579,9.581,0,13.287l9.314,9.313l-11.925,15.3
		l-4.217-4.227c-3.736-3.737-9.795-3.737-13.531,0c-3.736,3.736-3.736,9.794,0,13.531l0,0l5.919,5.91l-6.196,7.965L306.306,268.044
		c-17.963-15.825-41.01-24.678-64.948-24.948c-22.23-0.248-43.636,8.405-59.45,24.03c-0.46,0.466-0.87,0.979-1.224,1.53
		c-11.995,12.408-20.764,27.567-25.542,44.15c-37.477-1.399-73.781,13.203-99.852,40.163c-27.067,28.705-40.045,67.915-35.448,107.1
		L38.872,458.156z M344.049,305.396l-23.906-23.906L494.85,116.622l14.038,14.019L344.049,305.396z M543.475,56.608l25.418,25.417
		l-45.9,35.678l-15.224-15.214L543.475,56.608z"/>
	<path d="M135.338,395.264l-13.541,13.531c-11.22,11.096-11.32,29.188-0.224,40.407c0.074,0.075,0.149,0.149,0.224,0.224
		l24.48,24.479l13.521-13.521l-24.518-24.528c-3.726-3.638-3.797-9.607-0.16-13.333c0.053-0.054,0.106-0.107,0.16-0.159l6.818-6.818
		l54.152,54.152l13.521-13.521l-60.913-60.913C145.125,391.531,139.072,391.531,135.338,395.264z"/>
	<path d="M592.875,596.812V491.625c0-5.281-4.281-9.562-9.562-9.562H28.688c-5.281,0-9.562,4.281-9.562,9.562v105.188
		c0,5.281,4.281,9.562,9.562,9.562h554.625C588.594,606.375,592.875,602.094,592.875,596.812z M573.75,587.25H38.25v-86.062h47.812
		V549h19.125v-47.812h19.125V549h19.125v-47.812h47.812V549h19.125v-47.812H229.5V549h19.125v-47.812h19.125V549h19.125v-47.812
		h47.812V549h19.125v-47.812h19.125V549h19.125v-47.812h47.812V549H459v-47.812h19.125V549h19.125v-47.812h19.125V549H535.5v-47.812
		h38.25V587.25z"/>
</g>
</svg>
