<?xml version="1.0" encoding="utf-8"?>
<!-- Generator: Adobe Illustrator 16.0.0, SVG Export Plug-In . SVG Version: 6.00 Build 0)  -->
<!DOCTYPE svg PUBLIC "-//W3C//DTD SVG 1.1//EN" "http://www.w3.org/Graphics/SVG/1.1/DTD/svg11.dtd">
<svg version="1.1" id="Layer_1" xmlns="http://www.w3.org/2000/svg" xmlns:xlink="http://www.w3.org/1999/xlink" x="0px" y="0px"
	 width="612px" height="792px" viewBox="0 0 612 792" enable-background="new 0 0 612 792" xml:space="preserve">
<title>Brass instrument, euphonium, french horn, horn, musical instrument</title>
<path d="M165.75,396H382.5v127.5H153v51h293.25c63.375,0,114.75-51.375,114.75-114.75C561,396.375,509.625,345,446.25,345H229.5
	V217.5h195.585L561,319.5v-255l-135.915,102H165.75C102.375,166.5,51,217.875,51,281.25S102.375,396,165.75,396z M510,459.75
	c0,35.208-28.542,63.75-63.75,63.75H433.5V396h12.75C481.458,396,510,424.542,510,459.75z M510,166.5v51L476.085,192L510,166.5z
	 M165.75,217.5h12.75V345h-12.75c-35.208,0-63.75-28.542-63.75-63.75S130.542,217.5,165.75,217.5z"/>
</svg>
