<?xml version="1.0" encoding="utf-8"?>
<!-- Generator: Adobe Illustrator 16.0.0, SVG Export Plug-In . SVG Version: 6.00 Build 0)  -->
<!DOCTYPE svg PUBLIC "-//W3C//DTD SVG 1.1//EN" "http://www.w3.org/Graphics/SVG/1.1/DTD/svg11.dtd">
<svg version="1.1" id="Layer_1" xmlns="http://www.w3.org/2000/svg" xmlns:xlink="http://www.w3.org/1999/xlink" x="0px" y="0px"
	 width="612px" height="792px" viewBox="0 0 612 792" enable-background="new 0 0 612 792" xml:space="preserve">
<g display="none">
	<g display="inline">
		<path fill="none" stroke="#000000" stroke-width="2" stroke-miterlimit="10" d="M160.081,481.093
			c-18.207,18.207-47.718,18.207-65.913,0c-18.213-18.214-18.201-47.706,0-65.919c1.671-1.652,3.445-3.17,5.282-4.541"/>
		<path fill="none" stroke="#000000" stroke-width="2" stroke-miterlimit="10" d="M466.699,173.232
			c17.883-17.876,17.883-46.867,0-64.744c-17.871-17.889-46.867-17.889-64.726,0c-1.652,1.646-3.157,3.373-4.479,5.196"/>
		<path fill="none" stroke="#000000" stroke-width="2" stroke-miterlimit="10" d="M506.896,234.885
			c-5.355-22.503-15.992-42.656-32.18-58.844l-5.734-5.27"/>
		<path fill="none" stroke="#000000" stroke-width="2" stroke-miterlimit="10" d="M455.053,418.767
			c23.305-29.909,39.59-62.277,48.36-94.083"/>
		<path fill="none" stroke="#000000" stroke-width="2" stroke-miterlimit="10" d="M297.022,524.086
			c35.404-8.146,71.885-25.754,105.208-52.118"/>
		<path fill="none" stroke="#000000" stroke-width="2" stroke-miterlimit="10" d="M138.263,467.212
			c5.239,9.389,11.72,18.055,19.474,25.809c16.928,16.922,38.183,27.772,61.922,32.87"/>
		<path fill="none" stroke="#000000" stroke-width="2" stroke-miterlimit="10" d="M179.487,192.639
			c87.418-87.437,208.961-107.694,271.446-45.251c62.431,62.473,42.186,184.01-45.257,271.447
			c-87.425,87.418-208.961,107.663-271.428,45.232C71.788,401.605,92.057,280.062,179.487,192.639z"/>
		<path fill="none" stroke="#000000" stroke-width="2" stroke-miterlimit="10" d="M343.853,111.353
			c31.064,1.548,59.063,12.412,79.933,33.274c57.65,57.65,38.942,169.83-41.769,250.547
			c-80.711,80.698-192.884,99.395-250.541,41.757c-20.453-20.453-31.292-47.761-33.177-78.091"/>
		<path fill="none" stroke="#000000" stroke-width="2" stroke-miterlimit="10" d="M306.27,487.047
			c-33.421,12.02-66.825,16.794-97.388,13.96c0,0,0.716,4.211,1.365,6.622c7.124,26.212,34.137,41.695,60.349,34.572
			C294.8,535.622,309.898,511.876,306.27,487.047L306.27,487.047z"/>
		<path fill="none" stroke="#000000" stroke-width="2" stroke-miterlimit="10" d="M406.521,419.256
			c-16.396,16.727-41.678,34.964-41.182,35.472c1.31,1.334,2.687,2.632,4.143,3.837c22.161,18.422,55.074,15.386,73.483-6.793
			c17.43-20.967,15.648-51.586-3.409-70.417C439.557,381.349,420.364,405.106,406.521,419.256z"/>
		<path fill="none" stroke="#000000" stroke-width="2" stroke-miterlimit="10" d="M470.285,329.182
			c13.941-34.186,20.655-68.66,19.217-100.551l0,0c27.864,4.461,45.753,30.661,41.311,58.513
			c-4.456,27.889-30.655,46.867-58.526,42.418L470.285,329.182z"/>
	</g>
</g>
<g display="none">
	<path display="inline" stroke="#006699" stroke-width="2" stroke-miterlimit="10" d="M103.073,409.115
		c5.612,20.937,15.936,39.706,31.181,54.957c7.307,7.302,15.429,13.477,24.205,18.544l0.012,0.013
		c-18.299,16.652-46.628,16.138-64.297-1.536c-18.213-18.214-18.201-47.706,0-65.919c1.671-1.652,3.446-3.17,5.282-4.541
		L103.073,409.115z"/>
	<path display="inline" stroke="#006699" stroke-width="2" stroke-miterlimit="10" d="M396.344,116.322
		c20.783,5.636,39.425,15.924,54.59,31.071c7.068,7.075,13.085,14.914,18.055,23.372c15.557-17.98,14.798-45.208-2.289-62.283
		c-17.871-17.889-46.867-17.889-64.726,0c-1.652,1.646-3.158,3.372-4.479,5.196L396.344,116.322z"/>
	<path display="inline" stroke="#006699" stroke-width="2" stroke-miterlimit="10" d="M343.853,111.353
		c31.064,1.548,59.063,12.412,79.933,33.274c57.65,57.65,38.942,169.83-41.769,250.547
		c-80.711,80.698-192.884,99.395-250.541,41.757c-20.453-20.453-31.292-47.761-33.183-78.091
		c3.109-54.933,31.151-116.151,81.206-166.201c49.493-49.505,109.921-77.473,164.371-81.096L343.853,111.353z"/>
	<g display="inline">
		<path stroke="#006699" stroke-width="2" stroke-linecap="round" stroke-linejoin="round" stroke-miterlimit="10" d="
			M450.934,147.394c-26.763-26.745-64.37-38.269-105.466-35.894c30.417,1.842,57.815,12.632,78.317,33.127
			c57.65,57.65,38.941,169.83-41.769,250.547c-80.711,80.698-192.884,99.395-250.541,41.757
			c-20.374-20.374-31.2-47.559-33.146-77.755c-2.24,40.888,9.309,78.263,35.931,104.896
			c62.467,62.431,183.998,42.191,271.428-45.232C493.113,331.403,513.364,209.866,450.934,147.394z"/>
	</g>
	<g display="inline">
		<path stroke="#006699" stroke-width="2" stroke-miterlimit="10" d="M506.896,234.885c-5.355-22.503-15.992-42.656-32.18-58.844
			l-5.734-5.27c38.924,66.194,14.223,170.54-63.312,248.074c-87.424,87.418-208.961,107.663-271.428,45.233l4.009,3.14
			c5.238,9.388,11.72,18.054,19.474,25.808c16.928,16.922,38.183,27.772,61.922,32.871l77.369-1.806
			c35.404-8.146,71.886-25.753,105.209-52.118l52.822-53.201c23.305-29.908,39.59-62.277,48.359-94.083L506.896,234.885z"/>
	</g>
	<path display="inline" stroke="#006699" stroke-width="2" stroke-miterlimit="10" d="M306.27,487.047
		c-33.421,12.02-66.825,16.794-97.388,13.96c0,0,0.716,4.211,1.365,6.622c7.124,26.212,34.137,41.695,60.349,34.572
		C294.8,535.622,309.898,511.876,306.27,487.047L306.27,487.047z"/>
	<path display="inline" stroke="#006699" stroke-width="2" stroke-miterlimit="10" d="M406.521,419.256
		c-16.396,16.727-41.678,34.964-41.182,35.472c1.31,1.334,2.687,2.632,4.143,3.837c22.161,18.422,55.074,15.386,73.483-6.793
		c17.43-20.967,15.648-51.586-3.409-70.417C439.557,381.349,420.364,405.106,406.521,419.256z"/>
	<path display="inline" stroke="#006699" stroke-width="2" stroke-miterlimit="10" d="M470.285,329.182
		c13.941-34.186,20.655-68.66,19.217-100.551l0,0c27.864,4.461,45.753,30.661,41.311,58.513
		c-4.456,27.889-30.655,46.867-58.526,42.418L470.285,329.182z"/>
</g>
<g display="none">
	<g display="inline">
		<path stroke="#006699" stroke-width="2" stroke-linecap="round" stroke-linejoin="round" stroke-miterlimit="10" d="
			M103.073,409.115c5.612,20.937,15.936,39.706,31.181,54.957c7.307,7.302,15.429,13.477,24.205,18.544l0.012,0.013
			c-18.299,16.652-46.628,16.138-64.297-1.536c-18.213-18.214-18.201-47.706,0-65.919c1.671-1.652,3.446-3.17,5.282-4.541
			L103.073,409.115z"/>
		<path stroke="#006699" stroke-width="2" stroke-linecap="round" stroke-linejoin="round" stroke-miterlimit="10" d="
			M396.344,116.322c20.783,5.636,39.425,15.924,54.59,31.071c7.068,7.075,13.085,14.914,18.055,23.372
			c15.557-17.98,14.798-45.208-2.289-62.283c-17.871-17.889-46.867-17.889-64.726,0c-1.652,1.646-3.158,3.372-4.479,5.196
			L396.344,116.322z"/>
		<path stroke="#006699" stroke-width="2" stroke-miterlimit="10" d="M343.853,111.353c31.064,1.548,59.063,12.412,79.933,33.274
			c57.65,57.65,38.942,169.83-41.769,250.547c-80.711,80.698-192.884,99.395-250.541,41.757
			c-20.453-20.453-31.292-47.761-33.183-78.091c3.109-54.933,31.151-116.151,81.206-166.201
			c49.493-49.505,109.921-77.473,164.371-81.096L343.853,111.353z"/>
		<g>
			<path stroke="#006699" stroke-width="2" stroke-miterlimit="10" d="M450.934,147.394c-26.763-26.745-64.37-38.269-105.466-35.894
				c30.417,1.842,57.815,12.632,78.317,33.127c57.65,57.65,38.941,169.83-41.769,250.547
				c-80.711,80.698-192.884,99.395-250.541,41.757c-20.374-20.374-31.2-47.559-33.146-77.755
				c-2.24,40.888,9.309,78.263,35.931,104.896c62.467,62.431,183.998,42.191,271.428-45.232
				C493.113,331.403,513.364,209.866,450.934,147.394z"/>
		</g>
		<g>
			<path stroke="#006699" stroke-width="2" stroke-miterlimit="10" d="M506.896,234.885c-5.355-22.503-15.992-42.656-32.18-58.844
				l-5.734-5.27c38.924,66.194,14.223,170.54-63.312,248.074c-87.424,87.418-208.961,107.663-271.428,45.233l4.009,3.14
				c5.238,9.388,11.72,18.054,19.474,25.808c16.928,16.922,38.183,27.772,61.922,32.871l77.369-1.806
				c35.404-8.146,71.886-25.753,105.209-52.118l52.822-53.201c23.305-29.908,39.59-62.277,48.359-94.083L506.896,234.885z"/>
		</g>
		<path stroke="#006699" stroke-width="2" stroke-linecap="round" stroke-linejoin="round" stroke-miterlimit="10" d="
			M306.27,487.047c-33.421,12.02-66.825,16.794-97.388,13.96c0,0,0.716,4.211,1.365,6.622c7.124,26.212,34.137,41.695,60.349,34.572
			C294.8,535.622,309.898,511.876,306.27,487.047L306.27,487.047z"/>
		<path stroke="#006699" stroke-width="2" stroke-linecap="round" stroke-linejoin="round" stroke-miterlimit="10" d="
			M406.521,419.256c-16.396,16.727-41.678,34.964-41.182,35.472c1.31,1.334,2.687,2.632,4.143,3.837
			c22.161,18.422,55.074,15.386,73.483-6.793c17.43-20.967,15.648-51.586-3.409-70.417
			C439.557,381.349,420.364,405.106,406.521,419.256z"/>
		<path stroke="#006699" stroke-width="2" stroke-linecap="round" stroke-linejoin="round" stroke-miterlimit="10" d="
			M470.285,329.182c13.941-34.186,20.655-68.66,19.217-100.551l0,0c27.864,4.461,45.753,30.661,41.311,58.513
			c-4.456,27.889-30.655,46.867-58.526,42.418L470.285,329.182z"/>
	</g>
</g>
<g>
	<path d="M478.859,171.531l-1.646-1.512c14.651-21.53,10.612-51.567-9.076-68.544c-22.264-19.199-57.246-15.521-75.031,7.882
		c-15.562-3.641-31.518-4.847-47.466-3.984c-0.502-0.031-0.985-0.11-1.487-0.128l-6.824-0.147l0.049,0.851
		c-63.103,6.145-121.574,40.619-165.215,85.417c-43.495,44.645-76.408,103.96-79.982,167.143l-0.024,0.367l0.024,0.367
		c0.006,0.062,0.013,0.116,0.019,0.171c-0.845,16.206,0.465,31.738,3.813,46.207c-20.441,14.865-27.314,43.194-16.182,65.845
		c12.834,26.096,45.521,36.873,71.39,23.568c17.613,18.476,40.312,30.667,65.135,36.353c22.326,25.141,63.061,24.406,84.193-1.903
		c36.445-8.758,72.865-26.91,105.479-52.712l0.227-0.227c29.468-1.726,53.379-25.93,54.694-55.447
		c22.014-28.592,38.385-60.343,47.559-92.13c36.315-20.453,38.979-75.203,3.647-98.073
		C506.179,207.682,495.084,187.755,478.859,171.531z M441.619,364.745c-32.644,50.618-81.268,92.382-137.56,114.401
		c-51.316,20.073-116.61,24.204-160.417-14.859l-0.637-1.139l-4.614-3.604c-8.427-8.507-15.502-18.439-20.808-29.174
		c40.588,52.491,113.33,54.314,170.987,32.895c62.13-23.078,115.454-71.09,146.868-129.248
		c34.026-62.981,44.994-154.193-18.287-203.343c38.587,18.899,60.472,58.195,63.482,100.148
		C484.043,278.233,466.834,325.295,441.619,364.745C440.089,367.114,441.852,364.378,441.619,364.745z M492.091,222.938
		c-0.68-5.937-1.566-11.793-2.895-17.479c3.231,5.881,5.924,12.154,8.176,18.733C495.652,223.686,493.89,223.275,492.091,222.938z
		 M183.814,196.972c46.72-46.732,105.203-75.637,160.455-79.315l0.826-0.085v0.037c30.472,1.842,60.153,13.966,80.123,37.613
		c15.521,18.385,23.617,41.775,25.478,65.582c4.541,58.25-24.039,115.931-61.989,158.398
		c-42.332,47.357-104.401,85.062-169.488,85.074c-28.813,0-57.81-8.445-79.523-27.968c-22.038-19.805-33.379-48.312-35.264-77.516
		h-0.006C107.7,303.123,136.611,244.163,183.814,196.972C230.534,150.239,136.611,244.163,183.814,196.972z M168.19,494.379
		c11.145,4.859,23.072,8.244,35.092,10.049c0.771,3.99,1.849,7.81,3.421,11.567C192.199,511.136,179.298,503.926,168.19,494.379
		C169.548,494.973,179.298,503.926,168.19,494.379z M312.591,488.853c17.907-7.362,34.896-16.652,50.949-27.454
		c7.038,6.426,15.416,11.053,24.657,13.451c-25.006,18.085-51.928,31.641-79.088,39.713
		C312.193,506.582,313.473,497.824,312.591,488.853C319.972,485.817,313.473,497.824,312.591,488.853z M458.951,403.173
		c-2.283-8.544-6.506-16.616-12.632-23.495c9.633-13.917,18.018-28.678,25.073-44.064c7.516,1.188,15.172,0.838,22.564-0.936
		C486.118,358.129,474.208,381.422,458.951,403.173C456.668,394.623,474.208,381.422,458.951,403.173z"/>
</g>
<g display="none">
	<g display="inline">
		<path fill="none" stroke="#000000" stroke-width="2" stroke-miterlimit="10" d="M160.081,481.093
			c-18.207,18.207-47.718,18.207-65.913,0c-18.213-18.214-18.201-47.706,0-65.919c1.671-1.652,3.445-3.17,5.282-4.541"/>
		<path fill="none" stroke="#000000" stroke-width="2" stroke-miterlimit="10" d="M466.699,173.232
			c17.883-17.876,17.883-46.867,0-64.744c-17.871-17.889-46.867-17.889-64.726,0c-1.652,1.646-3.157,3.373-4.479,5.196"/>
		<path fill="none" stroke="#000000" stroke-width="2" stroke-miterlimit="10" d="M506.896,234.885
			c-5.355-22.503-15.992-42.656-32.18-58.844l-5.734-5.27"/>
		<path fill="none" stroke="#000000" stroke-width="2" stroke-miterlimit="10" d="M455.053,418.767
			c23.305-29.909,39.59-62.277,48.36-94.083"/>
		<path fill="none" stroke="#000000" stroke-width="2" stroke-miterlimit="10" d="M297.022,524.086
			c35.404-8.146,71.885-25.754,105.208-52.118"/>
		<path fill="none" stroke="#000000" stroke-width="2" stroke-miterlimit="10" d="M138.263,467.212
			c5.239,9.389,11.72,18.055,19.474,25.809c16.928,16.922,38.183,27.772,61.922,32.87"/>
		<path fill="none" stroke="#000000" stroke-width="2" stroke-miterlimit="10" d="M179.487,192.639
			c87.418-87.437,208.961-107.694,271.446-45.251c62.431,62.473,42.186,184.01-45.257,271.447
			c-87.425,87.418-208.961,107.663-271.428,45.232C71.788,401.605,92.057,280.062,179.487,192.639z"/>
		<path fill="none" stroke="#000000" stroke-width="2" stroke-miterlimit="10" d="M343.853,111.353
			c31.064,1.548,59.063,12.412,79.933,33.274c57.65,57.65,38.942,169.83-41.769,250.547
			c-80.711,80.698-192.884,99.395-250.541,41.757c-20.453-20.453-31.292-47.761-33.177-78.091"/>
		<path fill="none" stroke="#000000" stroke-width="2" stroke-miterlimit="10" d="M306.27,487.047
			c-33.421,12.02-66.825,16.794-97.388,13.96c0,0,0.716,4.211,1.365,6.622c7.124,26.212,34.137,41.695,60.349,34.572
			C294.8,535.622,309.898,511.876,306.27,487.047L306.27,487.047z"/>
		<path fill="none" stroke="#000000" stroke-width="2" stroke-miterlimit="10" d="M406.521,419.256
			c-16.396,16.727-41.678,34.964-41.182,35.472c1.31,1.334,2.687,2.632,4.143,3.837c22.161,18.422,55.074,15.386,73.483-6.793
			c17.43-20.967,15.648-51.586-3.409-70.417C439.557,381.349,420.364,405.106,406.521,419.256z"/>
		<path fill="none" stroke="#000000" stroke-width="2" stroke-miterlimit="10" d="M470.285,329.182
			c13.941-34.186,20.655-68.66,19.217-100.551l0,0c27.864,4.461,45.753,30.661,41.311,58.513
			c-4.456,27.889-30.655,46.867-58.526,42.418L470.285,329.182z"/>
	</g>
</g>
</svg>
