<?xml version="1.0" encoding="utf-8"?>
<!-- Generator: Adobe Illustrator 16.0.0, SVG Export Plug-In . SVG Version: 6.00 Build 0)  -->
<!DOCTYPE svg PUBLIC "-//W3C//DTD SVG 1.1//EN" "http://www.w3.org/Graphics/SVG/1.1/DTD/svg11.dtd">
<svg version="1.1" id="Layer_1" xmlns="http://www.w3.org/2000/svg" xmlns:xlink="http://www.w3.org/1999/xlink" x="0px" y="0px"
	 width="612px" height="792px" viewBox="0 0 612 792" enable-background="new 0 0 612 792" xml:space="preserve">
<path d="M273.11,315.647c2.759-2.91,5.276-6.084,7.446-9.651c1.514-2.49,4.721-3.361,7.269-1.906
	c16.719,9.543,27.544,26.436,44.074,36.203c3.512,2.074,3.361,7.067,0,9.175c-11.417,7.156-13.465,25.064-9.995,36.979
	c2.191,7.523,6.818,14.459,15.034,16.18c9.182,1.923,19.342-2.524,26.59-8.026c17.4-13.209,31.332-41.665,54.638-42.645
	c-1.884-5.096-3.536-10.21-4.309-15.712c-1.018-7.25-1.481-14.535-1.689-21.852c-1.358-47.514,6.069-94.857,17.428-141.058
	c-6.345-17.707-21.611-42.083-43.422-38.014c-13.36,2.493-23.016,12.326-32.026,21.828c-9.224,9.727-17.745,20.071-26.677,30.058
	c-12.161,13.598-32.52,39.432-53.697,28.94c-4.381-2.169-8.046-5.34-11.166-9.122c5.847,28.225,10.164,56.906,10.625,85.736
	C273.354,300.362,273.325,308.008,273.11,315.647z"/>
<path d="M429.318,379.042c-2.111-5.426-4.595-10.698-6.854-16.064c-14.215-1.527-25.267,11.164-34.252,21.34
	c-11.69,13.24-24.292,27.208-43.076,29.192c-35.502,3.748-45.387-46.26-24.743-68.152c-11.983-8.925-21.387-21.059-33.725-29.438
	c-4.106,5.598-8.965,10.342-14.233,14.677c-0.158,2.559-0.332,5.113-0.539,7.661c-1.147,14.124-3.098,28.5-8.087,41.841
	c-9.174,24.535-26.956,42.671-49.812,55.088c-12.864,6.986-26.889,12.503-41.504,14.243c-6.201,0.739-11.452,1.254-16.855,4.648
	c-4.304,2.714-2.717,12.779-2.719,16.929c0,1.989-1.386,11.449,0.001,12.906c8.24,8.659,20.562,13.365,31.749,16.516
	c14.833,4.177,29.978,6.125,45.237,7.987c10.528,1.285,21.093,2.769,31.722,2.705c17.774-0.104,35.546-0.488,53.319-0.698
	c12.25-13.446,21.706-29.784,34.083-43.779c11.232-12.7,24.769-21.837,40.362-28.427c13.749-5.812,28.139-8.134,42.856-8.745
	c1.149-8.645,1.906-17.33,1.667-26.041C433.686,394.933,432.412,386.992,429.318,379.042z"/>
<path d="M420.881,486.022c2.547-10.991,5.893-21.757,7.69-32.964c0.687-4.281,1.41-8.574,2.097-12.88
	c-14.424,0.768-28.471,3.379-41.717,9.806c-15.159,7.355-27.247,17.151-37.587,30.446c-0.997,1.283-1.974,2.583-2.944,3.889
	c0.003,0.001,0.004,0.002,0.006,0.003c6.865,4.396,14.051,8.217,21.279,11.959C387.068,494.5,404.004,490.398,420.881,486.022z"/>
<path d="M346.132,147.96c-7.957-20.256-34.191-26.671-52.08-16.048c-18.154,10.781-27.484,30.236-32.774,50.011
	c1.812,4.732,3.927,9.336,6.576,13.627c3.808,6.168,9.433,13.217,17.549,12.26c11.387-1.343,21.236-13.671,28.51-21.486
	c9.08-9.757,17.522-20.075,26.474-29.945c2.069-2.282,4.241-4.664,6.507-7.051C346.596,148.931,346.336,148.479,346.132,147.96z"/>
</svg>
