<?xml version="1.0" encoding="utf-8"?>
<!-- Generator: Adobe Illustrator 16.0.0, SVG Export Plug-In . SVG Version: 6.00 Build 0)  -->
<!DOCTYPE svg PUBLIC "-//W3C//DTD SVG 1.1//EN" "http://www.w3.org/Graphics/SVG/1.1/DTD/svg11.dtd">
<svg version="1.1" id="Layer_1" xmlns="http://www.w3.org/2000/svg" xmlns:xlink="http://www.w3.org/1999/xlink" x="0px" y="0px"
	 width="612px" height="792px" viewBox="0 0 612 792" enable-background="new 0 0 612 792" xml:space="preserve">
<title>Soul</title>
<desc>Created with Sketch.</desc>
<g transform="translate(-289.000000, -109.000000)">
	<path d="M454.085,599.4c-2.128-1.336-4.236-2.701-6.323-4.095 M418.633,549.209 M346.697,374.427 M417.078,571.396
		c-53.738-48.572-87.505-118.827-87.505-196.968C329.573,227.836,448.409,109,595,109c146.592,0,265.428,118.836,265.428,265.427
		c0,94.82-49.721,178.028-124.513,224.973c3.03-11.695,4.642-23.963,4.642-36.605c0-10.272-1.063-20.297-3.088-29.968
		c2.024-9.671,3.088-19.695,3.088-29.968c0-80.389-65.168-145.557-145.557-145.557c-47.832,0-90.275,23.072-116.808,58.693
		 M753.108,511.422h2.564c14.187,0,25.687,11.5,25.687,25.687c0,0.947-0.053,1.895-0.156,2.837l-3.911,35.193
		c-1.845,16.599-15.35,29.33-31.803,30.395C726.175,668.41,645.107,742.6,595,742.6c-50.125,0-131.134-74.081-150.473-136.994h-0.4
		c-17.451,0-32.112-13.122-34.039-30.467l-3.91-35.193c-0.105-0.942-0.157-1.89-0.157-2.837c0-14.187,11.5-25.687,25.687-25.687
		h5.183c0.556-15.331,1.968-30.279,4.247-44.889c18.332-73.288,70.378-110.47,153.863-110.47
		c83.486,0,135.532,37.182,153.863,110.47C751.14,481.154,752.551,496.103,753.108,511.422z M552.188,648.416
		c-4.728,0-8.562-3.833-8.562-8.562c0-4.729,3.834-8.562,8.562-8.562c5.473,0,15.496-5.012,29.051-15.366
		c1.493-1.141,3.319-1.758,5.198-1.758h17.125c1.818,0,3.59,0.579,5.057,1.652c14.191,10.388,24.359,15.472,29.191,15.472
		c4.729,0,8.562,3.833,8.562,8.562c0,4.729-3.833,8.562-8.562,8.562c0.001,1.79-0.557,3.596-1.713,5.138
		c-10.179,13.572-24.134,20.549-41.099,20.549s-30.919-6.977-41.098-20.549C552.745,652.012,552.188,650.206,552.188,648.416z
		 M621.77,644.099c-6.117-2.861-13.062-7.139-20.981-12.807h-11.485c-7.759,5.769-14.701,10.104-20.942,12.971
		c6.83,8.591,15.482,12.716,26.64,12.716C606.229,656.979,614.919,652.802,621.77,644.099z M436.624,528.546h-4.917
		c-4.729,0-8.562,3.833-8.562,8.562c0,0.315,0.018,0.632,0.053,0.945l3.91,35.194c0.837,7.53,6.474,13.469,13.657,14.902
		C438.103,567.628,436.716,547.786,436.624,528.546z M595,373.188c-75.911,0-120.902,32.142-137.096,96.735
		c-5.578,35.975-5.578,75.116,0.027,117.435c7.597,57.363,91.56,138.118,137.068,138.118c45.471,0,129.468-80.829,137.069-138.12
		c5.584-42.091,5.604-81.102,0.086-117.046C715.729,405.206,670.764,373.188,595,373.188z M503.69,552.069
		c-3.535-3.142-3.853-8.553-0.711-12.087c3.142-3.535,8.554-3.854,12.088-0.711c4.75,4.222,11.281,6.398,19.998,6.398
		s15.248-2.177,19.998-6.398c3.535-3.143,8.946-2.824,12.088,0.711c3.142,3.534,2.823,8.945-0.711,12.087
		c-8.093,7.194-18.686,10.726-31.375,10.726C522.376,562.795,511.783,559.264,503.69,552.069z M623.561,552.069
		c-3.534-3.142-3.853-8.553-0.711-12.087c3.142-3.535,8.553-3.854,12.088-0.711c4.75,4.222,11.281,6.398,19.998,6.398
		s15.248-2.177,19.998-6.398c3.534-3.143,8.946-2.824,12.088,0.711c3.142,3.534,2.823,8.945-0.711,12.087
		c-8.094,7.194-18.687,10.726-31.375,10.726C642.246,562.795,631.653,559.264,623.561,552.069z"/>
</g>
</svg>
