<?xml version="1.0" encoding="utf-8"?>
<!-- Generator: Adobe Illustrator 16.0.0, SVG Export Plug-In . SVG Version: 6.00 Build 0)  -->
<!DOCTYPE svg PUBLIC "-//W3C//DTD SVG 1.1//EN" "http://www.w3.org/Graphics/SVG/1.1/DTD/svg11.dtd">
<svg version="1.1" id="Layer_1" xmlns="http://www.w3.org/2000/svg" xmlns:xlink="http://www.w3.org/1999/xlink" x="0px" y="0px"
	 width="612px" height="792px" viewBox="0 0 612 792" enable-background="new 0 0 612 792" xml:space="preserve">
<g>
	<path d="M284.368,474.605c-28.884,29.196-72.126,49.321-115.022,63.091l-22.751,29.323c-12.377,15.951-9.482,38.919,6.472,51.287
		c6.666,5.177,14.553,7.684,22.386,7.684c10.909,0,21.701-4.864,28.908-14.15l113.054-145.708l-18.818-5.507
		C294.303,464.705,289.591,469.326,284.368,474.605z"/>
	<path d="M319.558,211.222c10.783-1.468,23.4-4.188,36.356-9.169c12.731-4.905,24.188-11.199,34.515-18.946
		c-7.104-15.849-15.995-32.312-21.058-41.396c-4.083,0.726-8.274,1.126-12.562,1.126c-4.782,0-9.45-0.479-13.972-1.377
		c-5.677,3.372-11.233,9.423-14.737,15.796c-1.044,1.57-1.939,3.272-2.598,5.133c-0.009,0-0.062,0.169-0.295,0.787
		c-1.302,3.527-6.984,18.224-16.519,36.67C312.465,203.039,316.13,206.791,319.558,211.222z"/>
	<path d="M410.278,164.875c4.346-4.849,8.446-10.052,12.292-15.662c0.492-0.719,1.03-1.395,1.589-2.044
		c5.065-9.078,14.717-14.968,25.497-14.968c2.434,0,4.87,0.304,7.244,0.906c45.988,11.751,61.755,14.942,61.755,14.942
		s0.176,1.983,0.454,5.197c-13.284-2.337-34.176-6.94-63.653-14.468c-12.526-3.194-25.267,4.372-28.448,16.896
		c-3.194,12.526,4.372,25.257,16.896,28.451c38.746,9.839,63.016,15.003,78.844,17.004c0.208,0.026,0.431,0.059,0.635,0.082
		c0.006,0,0.015,0.003,0.023,0.003c4.139,0.488,7.735,0.778,11.289,0.778c3.592-0.087,6.955-0.041,12.547-1.901
		c2.765-1.026,6.481-2.659,10.359-6.718c3.928-3.911,6.861-11.035,6.669-16.878c-0.032-5.177-1.492-8.932-2.791-11.541
		c-2.673-5.016-5.039-7.078-7.104-9.072c-3.884-3.469-7.476-5.762-11.652-8.315c-14.249-8.552-35.239-18.191-53.527-26.287
		c-18.171-8.008-33.128-14.106-33.254-14.156c-3.293-1.342-6.712-1.854-10.046-1.679c-0.322,0.012-0.632,0.035-0.945,0.062
		c-0.562,0.05-1.117,0.135-1.67,0.228c-0.062,0.012-0.131,0.012-0.192,0.026c-0.018,0.006-0.038,0.009-0.056,0.015
		c-1.038,0.182-2.06,0.421-3.057,0.743c-9.584,2.322-18.282,5.282-26.564,8.531c-1.105,1.421-2.252,2.813-3.46,4.147
		C411.501,129.685,411.363,147.543,410.278,164.875z"/>
	<path d="M497.414,391.854c-8.43-23.766-13.264-43.391-15.964-56.777c-1.348-6.695-2.161-11.828-2.623-15.136
		c-0.234-1.649-0.371-2.852-0.456-3.559c-0.035-0.328-0.059-0.547-0.073-0.664c-0.003-0.047-0.003-0.073-0.009-0.082
		c-0.021-0.223-0.067-0.439-0.094-0.661c11.144-47.345,16.092-77.352,13.998-113.367c-11.854-2.521-26.013-5.858-43.081-10.14
		c-20.555,24.322-46.646,42.926-76.445,54.285c-5.2,1.989-10.342,3.688-15.39,5.165c-0.717,16.036-5.709,35.871-15.922,64.627
		c-0.056,0.225-0.138,0.477-0.199,0.71l-41.996,54.127c-0.066,0.535-0.125,1.064-0.189,1.6c13.846,3.934,40.533,12.962,69.23,28.697
		l41.19-53.092c9.471,48.368,40.554,158.158,138.687,269.019c7.227,8.148,17.275,12.307,27.372,12.307
		c8.622,0.004,17.276-3.029,24.239-9.2c15.112-13.393,16.502-36.501,3.109-51.606C545.475,503.442,514.292,439.421,497.414,391.854z
		"/>
	<path d="M25.74,566.04l-15.162,12.57c-12.433,10.31-14.155,28.746-3.843,41.182c5.782,6.979,14.129,10.582,22.535,10.582
		c6.578,0,13.19-2.205,18.647-6.727v-0.009l94-77.929c-59.438,15.77-111.893,20.005-115.879,20.306L25.74,566.04z"/>
	<path d="M349.816,427.764c-12.053,3.018-21.377,5.36-46.251,28.217l40.437,11.833L277.784,575.58
		c-8.467,13.761-4.162,31.771,9.599,40.237c13.761,8.459,31.771,4.15,40.238-9.61l86.272-140.385
		c4.758-7.738,5.642-17.344,2.378-25.825c-3.271-8.473-10.359-15.013-19.081-17.557l-18.133-5.306l-0.205,0.103
		C365.826,423.754,357.318,425.883,349.816,427.764z"/>
	<ellipse cx="222.308" cy="135.224" rx="58.491" ry="58.491"/>
	<path d="M25.597,560.185c0,0,179.383-13.649,254.615-89.691c60.29-60.942,56.671-38.811,96.03-58.494
		c-47.77-28.758-80.485-34.242-80.485-34.242l-2.08-10.397c2.085-15.252,5.659-32.482,11.667-51.752
		c16.536-0.918,29.001-15.732,30.355-39.191c0.38-6.642-0.188-13.436-1.513-20.122c-14.693,2.574-27.761,3.326-37.842,3.334h-0.009
		c-11.839,0-19.391-0.974-20.783-1.17c-6.198-0.898-11.667-4.15-15.413-9.154c-3.752-5.001-5.32-11.167-4.425-17.35
		c1.635-11.433,11.579-20.069,23.125-20.069c1.064,0,2.149,0.076,3.211,0.225c0.164,0.018,0.377,0.044,0.664,0.067
		c0.559,0.062,1.448,0.164,2.662,0.257c2.313,0.184,6.095,0.406,10.959,0.406c4.167,0,9.759-0.184,16.285-0.81
		c-17.519-20.423-40.165-23.661-50.618-19.206c-12.178,5.188-27.776,15.425-31.677,50.521c-1.267,11.383-3.229,27.407-5.303,43.864
		l7.224-1.804c2.337-0.582,4.724-0.884,7.116-0.884c13.43,0,25.088,9.117,28.349,22.164c3.913,15.641-5.642,31.555-21.28,35.477
		l-26.313,6.572c-1.024,0.257-2.068,0.433-3.112,0.579c-0.687,5.227-1.103,8.347-1.103,8.347c-3.085,7.915-6.844,16.455-11.397,25.7
		c-2.965,1.842-5.875,3.72-8.777,5.609c-36.369,23.687-67.499,50.779-92.821,76.34C52.925,515.773,25.597,560.185,25.597,560.185z"
		/>
	<path d="M207.349,297.658c-12.544,3.133-4.826,46.108,5.659,46.108c1.878,0,3.785-0.228,5.689-0.702l26.319-6.581
		c12.542-3.141,20.154-15.84,17.022-28.375c-3.129-12.535-15.829-20.163-28.364-17.027L207.349,297.658z"/>
	<circle cx="356.81" cy="71.182" r="65.805"/>
	<path d="M370.584,240.285c24.287-9.256,50.133-24.994,72.22-50.404c-0.117-0.029-0.226-0.059-0.342-0.085
		c-13.079-3.337-21.81-15.05-21.994-27.942c-18.861,23.664-40.998,37.392-62.451,45.66c-24.069,9.239-47.21,11.193-61.687,11.175
		c-4.917,0-8.821-0.216-11.418-0.424c-1.299-0.102-2.261-0.205-2.863-0.275c-0.301-0.035-0.518-0.061-0.629-0.067l-0.053-0.009
		c-9.593-1.387-18.49,5.273-19.867,14.875c-1.386,9.584,5.276,18.481,14.878,19.867h-0.009c0.669,0.094,8.086,1.126,19.961,1.126
		C313.825,253.768,341.071,251.565,370.584,240.285z"/>
</g>
</svg>
